<svg xmlns="http://www.w3.org/2000/svg" xmlns:xlink="http://www.w3.org/1999/xlink" viewBox="0 0 2322 916.58"><defs><style>.cls-1{fill:none;}.cls-2{clip-path:url(#clip-path);}.cls-3{fill:#3a1e78;}.cls-4{fill:#232a55;}.cls-5{fill:#271451;}.cls-6{fill:#ac73ff;}.cls-6,.cls-7{fill-opacity:0.2;}.cls-7{fill:#7e37e5;}</style><clipPath id="clip-path" transform="translate(221.93 -154.33)"><rect class="cls-1" x="24.56" width="1812.38" height="915.36"/></clipPath></defs><g id="Capa_2" data-name="Capa 2"><g id="Capa_1-2" data-name="Capa 1"><g class="cls-2"><path class="cls-3" d="M1765.8,772.85c-7-7.91-21.93-14.5-22.88-23.12,5.89.75,9.47-1.44,6.16-5,7.92,1.63,6.09-3.47-7.51-16.7,18.33,2.36-2.28-7.75-7.29-26.21,9,5.61,12.38,6.18,8.43.24,17.72,9-8.69-13.56-9.79-28.07,5.39,4.39,7.08,4.64,5,.7,2.72.84,3.69.32,1.37-2.79-6-8.69-10-19.25-11.84-32,.22,1.49-2.39,24.82-15.82,38.49-3.14,3.2,1.14,3.17,2.72.27-2,6.51,11.49-8,6.93-1.19-6.3,9.34-6.63,13.46-2.35,10-1.77,9.5-22.32,29.4-11.29,23.23-.38,1.4-1.26,4.78-.45,5.28,1.07.66,3.34-1,4.55-4.35.14,6.05,3.19,4,9.65-8.19-2,6.06-3.68,9-7.79,14.48s2.25,5.18,3.38,1.58c-4.53,14.47-27.39,21.75-15.14,20.37,0,0-1.75,1.81-6.59,6.55s10,4,10,4c-3.18,13.54-32.85,18.37-14.23,19.27-4,4,9.3,4,13.35,0,0,0-11.22,11.73-18.26,18.57-4.86,3.9-1.1,7.59,5.85,3.44-1,2.37,6.57,3.83,9,1.67-8.1,8.18-10.72,7.45-19.21,9.4-6.17,1.41-.79,7.92,8.37,5.94-4.62,8.61,5.4,10.41,10.84,4.13a2.36,2.36,0,0,0,0,1.6c1.07,2.26,14.45,4.59,22.86-7,0-.22-.45,20.75-1,26.29-.15,1.39,9,1.28,8.87-.1-.2-2.29-1.74-28.92-1.74-28.92,3.91,12,19.65,13.19,18.74,7.78,4.24,6.68,12.53,7.82,9.07-1.09,6,7.23,15.33,5.54,10.63,1.7-12.09-9.88-18.91-15.29-19.62-18.77,2,2.35,4.54,1.08,3.81-1.34,5.59,4.72,8.86,1.42,5-2.87-6-6.78-9.59-11.18-10.17-14.72,4.5,5.44,9.25,4.43,7.8.36,2.29,2.74,4.91.57,4.08-2.18C1763.84,778,1767.93,775.74,1765.8,772.85Z" transform="translate(221.93 -154.33)"/><path class="cls-4" d="M1815.44,769.3c-8.25-9.25-25.65-17-26.76-27,6.88.88,11.08-1.68,7.21-5.89,9.25,1.91,7.12-4.06-8.8-19.53,21.45,2.75-2.66-9.07-8.52-30.66,10.56,6.56,14.48,7.22,9.86.27,20.73,10.57-10.17-15.86-11.46-32.83,6.32,5.13,8.29,5.43,5.86.81,3.18,1,4.31.38,1.6-3.25-7-10.17-11.76-22.53-13.85-37.45.26,1.74-2.8,29-18.51,45-3.67,3.73,1.34,3.7,3.19.31-2.34,7.61,13.43-9.3,8.1-1.39-7.36,10.93-7.76,15.74-2.75,11.64-2.07,11.11-26.11,34.39-13.21,27.17-.44,1.64-1.47,5.59-.52,6.17,1.25.77,3.91-1.13,5.32-5.09.17,7.08,3.74,4.64,11.29-9.57-2.35,7.09-4.31,10.58-9.11,16.93s2.63,6.07,3.95,1.85c-5.29,16.93-32,25.45-17.71,23.84,0,0-2,2.11-7.71,7.66s11.71,4.69,11.71,4.69c-3.72,15.85-38.43,21.49-16.65,22.55-4.74,4.73,10.89,4.7,15.63,0,0,0-13.13,13.73-21.37,21.72-5.69,4.56-1.29,8.88,6.84,4-1.16,2.77,7.69,4.48,10.58,2-9.48,9.56-12.54,8.71-22.47,11-7.22,1.66-.93,9.27,9.79,7-5.41,10.07,6.31,12.17,12.68,4.83a2.7,2.7,0,0,0,0,1.87c1.25,2.64,16.9,5.37,26.74-8.23,0-.27-.52,24.27-1.21,30.75-.18,1.62,10.51,1.5,10.37-.12-.23-2.68-2-33.83-2-33.83,4.58,14.08,23,15.43,21.93,9.1,5,7.82,14.65,9.15,10.6-1.28,7.07,8.47,17.94,6.49,12.44,2-14.14-11.56-22.12-17.88-23-22,2.29,2.75,5.31,1.27,4.46-1.56,6.53,5.52,10.36,1.66,5.84-3.35-7-7.93-11.22-13.09-11.89-17.23,5.26,6.37,10.81,5.18,9.12.43,2.69,3.2,5.74.66,4.78-2.56C1813.14,775.37,1817.93,772.69,1815.44,769.3Z" transform="translate(221.93 -154.33)"/><path class="cls-4" d="M1729.63,768.87c-8.61-9.65-26.75-17.69-27.91-28.21,7.18.92,11.56-1.74,7.52-6.13,9.65,2,7.43-4.23-9.17-20.37,22.36,2.87-2.77-9.45-8.88-32,11,6.83,15.1,7.52,10.27.28,21.62,11-10.59-16.54-11.94-34.23,6.58,5.36,8.64,5.66,6.11.85,3.31,1,4.5.39,1.67-3.39-7.32-10.6-12.26-23.49-14.44-39,.27,1.81-2.92,30.26-19.3,46.94-3.82,3.9,1.4,3.86,3.32.32-2.43,7.94,14-9.69,8.45-1.44-7.68,11.39-8.09,16.41-2.87,12.13-2.15,11.58-27.22,35.85-13.76,28.33-.47,1.71-1.54,5.83-.55,6.43,1.3.81,4.07-1.17,5.54-5.3.18,7.38,3.9,4.83,11.78-10-2.45,7.4-4.49,11-9.5,17.66s2.74,6.33,4.12,1.93c-5.52,17.65-33.4,26.53-18.47,24.85,0,0-2.13,2.2-8,8s12.2,4.89,12.2,4.89c-3.87,16.51-40.06,22.4-17.35,23.5-4.94,4.93,11.35,4.9,16.29,0,0,0-13.69,14.31-22.28,22.64-5.93,4.76-1.34,9.26,7.13,4.2-1.21,2.89,8,4.67,11,2-9.88,10-13.08,9.09-23.42,11.45-7.53,1.73-1,9.67,10.2,7.25-5.64,10.5,6.58,12.7,13.22,5a2.9,2.9,0,0,0,0,2c1.3,2.75,17.62,5.59,27.88-8.59,0-.28-.54,25.3-1.27,32.06-.18,1.69,11,1.56,10.82-.13-.24-2.79-2.13-35.27-2.13-35.27,4.77,14.69,24,16.09,22.86,9.49,5.18,8.16,15.28,9.54,11.06-1.33,7.36,8.83,18.7,6.76,13,2.08-14.75-12.05-23.07-18.65-23.93-22.9,2.39,2.87,5.53,1.33,4.65-1.63,6.81,5.76,10.8,1.74,6.09-3.49-7.31-8.27-11.7-13.65-12.4-18,5.49,6.63,11.28,5.4,9.51.44,2.8,3.34,6,.69,5-2.66C1727.23,775.2,1732.23,772.4,1729.63,768.87Z" transform="translate(221.93 -154.33)"/><path class="cls-4" d="M484.94,586.11c-8.45-9.47-26.25-17.36-27.39-27.68,7.05.9,11.34-1.72,7.38-6,9.47,1.94,7.29-4.16-9-20,21.94,2.82-2.72-9.28-8.72-31.38,10.8,6.71,14.82,7.39,10.09.28,21.21,10.81-10.4-16.23-11.73-33.6,6.46,5.26,8.49,5.56,6,.83,3.25,1,4.41.39,1.64-3.33-7.19-10.4-12-23.05-14.18-38.31.27,1.78-2.86,29.7-18.94,46.07-3.75,3.82,1.37,3.79,3.26.32-2.38,7.79,13.75-9.52,8.29-1.42-7.53,11.18-7.93,16.11-2.81,11.91-2.12,11.37-26.72,35.19-13.51,27.8-.46,1.68-1.51,5.72-.54,6.32,1.28.79,4-1.16,5.44-5.21.18,7.24,3.83,4.75,11.56-9.8-2.41,7.26-4.41,10.83-9.32,17.33s2.69,6.21,4,1.89c-5.42,17.33-32.79,26-18.13,24.4,0,0-2.09,2.16-7.88,7.84s12,4.8,12,4.8c-3.81,16.21-39.33,22-17,23.07-4.85,4.84,11.14,4.81,16,0,0,0-13.43,14-21.86,22.22-5.83,4.67-1.32,9.09,7,4.13-1.19,2.83,7.86,4.58,10.82,2-9.7,9.79-12.84,8.92-23,11.24-7.39,1.69-.95,9.48,10,7.12-5.53,10.3,6.46,12.45,13,4.94a2.84,2.84,0,0,0,0,1.92c1.28,2.7,17.3,5.49,27.37-8.43,0-.27-.54,24.84-1.25,31.47-.18,1.66,10.76,1.53,10.62-.13-.24-2.73-2.09-34.62-2.09-34.62,4.69,14.42,23.52,15.79,22.44,9.32,5.08,8,15,9.36,10.85-1.31,7.23,8.66,18.36,6.64,12.73,2-14.47-11.83-22.64-18.3-23.48-22.47,2.34,2.81,5.42,1.3,4.56-1.6,6.68,5.65,10.6,1.7,6-3.43-7.18-8.12-11.48-13.39-12.17-17.63,5.38,6.51,11.06,5.3,9.33.44,2.75,3.27,5.88.67,4.89-2.62C482.59,592.32,487.49,589.58,484.94,586.11Z" transform="translate(221.93 -154.33)"/><path class="cls-3" d="M544.18,615.72c-9.31-10.44-28.93-19.14-30.19-30.51,7.76,1,12.5-1.89,8.13-6.64,10.44,2.15,8-4.57-9.91-22,24.18,3.11-3-10.22-9.62-34.57,11.91,7.39,16.34,8.14,11.12.3,23.38,11.92-11.46-17.89-12.92-37,7.12,5.79,9.35,6.12,6.61.92,3.58,1.11,4.86.42,1.8-3.68-7.92-11.46-13.26-25.4-15.62-42.22.29,2-3.16,32.73-20.87,50.78-4.14,4.21,1.51,4.17,3.59.34-2.63,8.59,15.16-10.48,9.14-1.56-8.3,12.32-8.75,17.75-3.1,13.13-2.33,12.52-29.45,38.78-14.89,30.63-.5,1.86-1.66,6.31-.6,7,1.41.87,4.41-1.28,6-5.74.19,8,4.22,5.23,12.74-10.8-2.65,8-4.86,11.94-10.27,19.1s3,6.84,4.45,2.08c-6,19.09-36.13,28.7-20,26.88,0,0-2.31,2.39-8.7,8.64s13.21,5.3,13.21,5.3c-4.19,17.86-43.34,24.23-18.78,25.42-5.34,5.33,12.28,5.3,17.62,0,0,0-14.8,15.48-24.09,24.49-6.42,5.14-1.45,10,7.71,4.54-1.31,3.12,8.67,5,11.93,2.21-10.69,10.79-14.14,9.83-25.33,12.39-8.15,1.86-1.05,10.45,11,7.84-6.09,11.36,7.12,13.73,14.3,5.45a3.07,3.07,0,0,0,0,2.11c1.41,3,19.06,6,30.16-9.28,0-.3-.59,27.37-1.37,34.67-.2,1.83,11.85,1.69,11.69-.13-.26-3-2.29-38.15-2.29-38.15C502,673.48,522.8,675,521.6,667.86c5.6,8.82,16.53,10.32,12-1.44,8,9.55,20.23,7.31,14,2.25-16-13-25-20.17-25.88-24.77,2.58,3.1,6,1.44,5-1.76,7.36,6.23,11.69,1.87,6.59-3.78-7.91-9-12.65-14.76-13.41-19.43,5.93,7.18,12.19,5.84,10.28.48,3,3.61,6.48.75,5.39-2.88C541.58,622.56,547,619.54,544.18,615.72Z" transform="translate(221.93 -154.33)"/><path class="cls-5" d="M2100.07,1070.91c-252.7-286.2-369.4-389.2-578.7-206.4-237.5-217.9-327.3-144.6-582.3,82.6-127.4-178.1-176.3-252-235.4-140.6-145.3-242.1-225.2-321.4-347.1-110.5-13.2,22.8-30.7,39.7-50.5,48.7a77,77,0,0,1-60.8,1.9c-183.4-71.2-359.6,227-467.2,324.3Z" transform="translate(221.93 -154.33)"/></g><path class="cls-4" d="M203.62,740.53c-9.65-10.82-30-19.84-31.29-31.63,8,1,13-2,8.43-6.88,10.82,2.23,8.33-4.74-10.28-22.83,25.07,3.22-3.11-10.6-10-35.84,12.34,7.66,16.93,8.44,11.52.32,24.23,12.35-11.88-18.55-13.39-38.38,7.38,6,9.69,6.34,6.85,1,3.71,1.15,5,.44,1.87-3.81-8.21-11.88-13.75-26.33-16.19-43.76.3,2-3.28,33.93-21.64,52.63-4.28,4.36,1.57,4.33,3.73.36-2.73,8.9,15.71-10.87,9.47-1.62-8.61,12.77-9.07,18.4-3.21,13.6-2.42,13-30.53,40.2-15.44,31.76-.52,1.92-1.72,6.54-.62,7.22,1.47.9,4.57-1.32,6.22-6,.2,8.27,4.37,5.42,13.21-11.2-2.75,8.3-5,12.38-10.65,19.8s3.07,7.09,4.61,2.16c-6.18,19.79-37.45,29.75-20.7,27.86,0,0-2.39,2.48-9,9s13.68,5.49,13.68,5.49c-4.34,18.51-44.91,25.12-19.46,26.35-5.53,5.53,12.73,5.49,18.27,0,0,0-15.35,16-25,25.38-6.65,5.34-1.5,10.39,8,4.71-1.36,3.24,9,5.24,12.36,2.29-11.07,11.18-14.66,10.19-26.26,12.84-8.44,1.93-1.08,10.84,11.44,8.13-6.32,11.77,7.38,14.23,14.82,5.64a3.34,3.34,0,0,0,0,2.2c1.46,3.08,19.76,6.27,31.26-9.63,0-.31-.61,28.37-1.42,35.94-.2,1.9,12.29,1.76,12.13-.13-.27-3.13-2.39-39.55-2.39-39.55,5.35,16.47,26.87,18,25.63,10.64,5.81,9.14,17.13,10.69,12.4-1.49,8.26,9.89,21,7.58,14.54,2.33-16.53-13.52-25.86-20.91-26.82-25.67,2.67,3.21,6.19,1.48,5.2-1.83,7.64,6.46,12.12,1.94,6.83-3.92-8.19-9.27-13.11-15.3-13.89-20.13,6.14,7.43,12.63,6,10.66.49,3.13,3.74,6.71.78,5.58-3C200.93,747.62,206.53,744.48,203.62,740.53Z" transform="translate(221.93 -154.33)"/><path class="cls-4" d="M1338.47,688.56c-9.65-10.82-30-19.84-31.29-31.62,8,1,13-2,8.42-6.88,10.83,2.22,8.33-4.75-10.27-22.84,25.06,3.22-3.12-10.59-10-35.84,12.34,7.67,16.93,8.44,11.53.32,24.23,12.35-11.88-18.54-13.39-38.37,7.38,6,9.68,6.34,6.85.95,3.71,1.15,5,.44,1.86-3.81-8.2-11.88-13.74-26.33-16.19-43.77.31,2-3.27,33.93-21.63,52.63-4.29,4.37,1.57,4.34,3.72.36-2.72,8.9,15.71-10.87,9.47-1.61-8.6,12.77-9.06,18.39-3.21,13.6-2.42,13-30.52,40.2-15.44,31.76-.52,1.92-1.71,6.53-.61,7.21,1.46.91,4.57-1.32,6.22-5.94.2,8.27,4.37,5.42,13.2-11.2-2.75,8.29-5,12.37-10.65,19.8s3.07,7.09,4.62,2.16c-6.19,19.79-37.45,29.75-20.71,27.86,0,0-2.38,2.47-9,9s13.69,5.48,13.69,5.48c-4.34,18.52-44.92,25.12-19.46,26.35-5.54,5.54,12.73,5.5,18.26,0,0,0-15.34,16.05-25,25.39-6.65,5.33-1.51,10.38,8,4.71-1.36,3.23,9,5.24,12.36,2.29-11.08,11.18-14.66,10.18-26.26,12.84-8.45,1.93-1.09,10.83,11.43,8.13-6.31,11.77,7.39,14.23,14.83,5.64a3.21,3.21,0,0,0,0,2.2c1.46,3.08,19.75,6.27,31.26-9.63,0-.31-.61,28.37-1.42,35.94-.21,1.9,12.28,1.76,12.12-.14-.27-3.13-2.38-39.54-2.38-39.54,5.35,16.46,26.87,18,25.63,10.64,5.8,9.14,17.13,10.69,12.39-1.49,8.26,9.89,21,7.57,14.55,2.32-16.54-13.51-25.87-20.9-26.83-25.67,2.67,3.22,6.2,1.49,5.21-1.82,7.63,6.45,12.12,1.94,6.83-3.92-8.19-9.28-13.11-15.3-13.9-20.14,6.15,7.44,12.64,6.06,10.66.5,3.14,3.74,6.71.77,5.58-3C1335.78,695.66,1341.38,692.52,1338.47,688.56Z" transform="translate(221.93 -154.33)"/><path class="cls-6" d="M1851,361.23a9,9,0,0,0,6.27-2.69,22.51,22.51,0,0,0,5.09-7.84,45.39,45.39,0,0,0,2.95-11.47,59.32,59.32,0,0,0,.24-12.92c-4.13-44.89-15.38-85.85-32-116.7s-37.88-49.91-60.4-54.3-45.13,6.12-64.43,29.95-34.22,59.68-42.54,102.14a58.12,58.12,0,0,0-23.41-5c-15.12-.05-30.09,6.27-43.93,18.56s-26.25,30.29-36.45,52.83a7.07,7.07,0,0,0-.52,2.28,8.64,8.64,0,0,0,.16,2.5,5.24,5.24,0,0,0,.8,1.92,1.69,1.69,0,0,0,1.19.77Z" transform="translate(221.93 -154.33)"/><path class="cls-7" d="M102,273.41c-5.44,0-10.8,3.19-15.62,9.28s-9,14.89-12,25.67C62.18,295.08,48.74,290.44,35.57,295S10.06,313.16,0,334.13H134.51c-1.88-17.36-6.1-32.73-12-43.71S109.4,273.46,102,273.41Z" transform="translate(221.93 -154.33)"/><path class="cls-7" d="M449.88,311.41C469.93,287,484.07,306,484.07,306c9.89-7.42,18.69-2.18,23.13,6.12,2.82,5.46-3.44,4.37-17.59,4.37H450.33c-.29,0-.56-.28-.77-.77a5.13,5.13,0,0,1-.31-1.86,5.33,5.33,0,0,1,.16-1.42A2.49,2.49,0,0,1,449.88,311.41Z" transform="translate(221.93 -154.33)"/></g></g></svg>