<svg id="Capa_1" data-name="Capa 1" xmlns="http://www.w3.org/2000/svg" viewBox="0 0 1799.62539 783.19506"><defs><style>.cls-1{fill:#232a55;}.cls-2{fill:#3a1e78;}.cls-3{fill:#271451;}.cls-4{fill:#2a1260;}.cls-5{fill:#ac73ff;}.cls-5,.cls-6{fill-opacity:0.2;}.cls-6{fill:#7e37e5;}</style></defs><path class="cls-1" d="M459.90732,453.94682c-8.45169-9.47188-26.26167-17.36633-27.40214-27.68472,7.04778.89971,11.34359-1.71733,7.3802-6.02279,9.4772,1.94653,7.29348-4.15441-8.99894-19.99189,21.94879,2.82-2.72832-9.27815-8.7261-31.37549,10.806,6.711,14.82657,7.38811,10.08928.27779,21.2222,10.81357-10.40252-16.23262-11.72555-33.59658,6.4627,5.25409,8.48414,5.55553,5.99889.83292,3.24929,1.01029,4.41341.3849,1.63647-3.33181-7.18785-10.40187-12.04069-23.05254-14.17953-38.31624.26376,1.78023-2.86806,29.703-18.94908,46.07539-3.75415,3.82225,1.37455,3.79158,3.26341.31576-2.38789,7.79061,13.75567-9.51668,8.29482-1.41681-7.53722,11.17962-7.93986,16.10489-2.81412,11.90917-2.11723,11.36816-26.73035,35.19071-13.51936,27.80194-.45481,1.6812-1.50561,5.72333-.53963,6.31831,1.28119.78938,4.00236-1.15648,5.44811-5.20779.17232,7.243,3.82544,4.74743,11.56335-9.80156-2.40957,7.26136-4.41426,10.83392-9.32931,17.33151-4.91513,6.49695,2.693,6.21127,4.04472,1.89136-5.41979,17.3243-32.79829,26.04424-18.1315,24.39259,0,0-2.09186,2.16652-7.8921,7.84256-5.75865,5.63531,11.98525,4.80259,11.98525,4.80259-3.80337,16.21116-39.33583,21.99161-17.0428,23.068-4.84838,4.84331,11.147,4.81047,15.99653.01838,0,0-13.43829,14.04464-21.87212,22.22475-5.824,4.66731-1.31806,9.089,7.00292,4.1242-1.19138,2.8298,7.8697,4.5826,10.82605,2.001-9.70115,9.78974-12.839,8.91828-22.99766,11.24175-7.39522,1.69171-.95206,9.48435,10.016,7.11623-5.53155,10.30657,6.46507,12.45733,12.98164,4.94182a2.8295,2.8295,0,0,0-.00709,1.92092c1.27823,2.70043,17.30124,5.49083,27.37554-8.42837.007-.26992-.536,24.83915-1.246,31.46612-.17869,1.66217,10.76194,1.53606,10.61866-.12149-.23651-2.73853-2.08688-34.62036-2.08688-34.62036,4.68657,14.417,23.53106,15.79086,22.44511,9.31625,5.08284,8.0028,15.00349,9.35959,10.85615-1.30687,7.2337,8.66149,18.36576,6.63551,12.739,2.0378-14.48186-11.83017-22.653-18.30216-23.49459-22.47364,2.34072,2.81471,5.42708,1.30161,4.55991-1.59779,6.68712,5.65173,10.61175,1.69958,5.98155-3.432-7.17458-8.11772-11.48222-13.39251-12.17005-17.62573,5.38241,6.51074,11.06769,5.29843,9.33661.43541,2.74541,3.27047,5.87645.67576,4.88576-2.6144C457.55215,460.15678,462.4563,457.40905,459.90732,453.94682Z"/><path class="cls-2" d="M519.162,483.55172c-9.31388-10.43814-28.94074-19.13793-30.19755-30.50894,7.76676.99148,12.5008-1.89252,8.13309-6.6372,10.444,2.14509,8.03752-4.57823-9.917-22.03135,24.18787,3.10764-3.00665-10.22465-9.61629-34.57624,11.90839,7.39565,16.33909,8.14181,11.11854.30613,23.38716,11.91671-11.46373-17.88858-12.92173-37.02391,7.122,5.79009,9.34965,6.12227,6.61087.91789,3.58076,1.11336,4.86364.42417,1.80341-3.6717-7.92111-11.463-13.269-25.40423-15.626-42.225.29067,1.96184-3.16064,32.73315-20.88216,50.77574-4.13713,4.21217,1.51477,4.17837,3.59633.348-2.63149,8.58537,15.15894-10.48751,9.141-1.56134-8.30612,12.3201-8.74984,17.74782-3.1012,13.12407-2.33321,12.52788-29.45722,38.78067-14.89853,30.63814-.5012,1.85271-1.65919,6.30719-.59467,6.96287,1.41189.8699,4.41065-1.27447,6.0039-5.73906.18989,7.98185,4.21568,5.23173,12.743-10.80146-2.65538,8.00212-4.86458,11.93913-10.281,19.09957-5.41653,7.15972,2.96777,6.84491,4.45735,2.08431-5.97269,19.09162-36.14419,28.70111-19.98117,26.881,0,0-2.30527,2.38753-8.69721,8.64261-6.34611,6.2102,13.20791,5.29253,13.20791,5.29253-4.19136,17.86492-43.34864,24.23506-18.7814,25.42123-5.343,5.33741,12.2842,5.30122,17.6284.02027,0,0-14.80919,15.47738-24.10338,24.492-6.4181,5.14344-1.45253,10.01622,7.71731,4.54493-1.31292,3.11848,8.67252,5.05009,11.93047,2.20516-10.69081,10.78844-14.14879,9.82807-25.34376,12.38857-8.14963,1.86428-1.04917,10.45189,11.0378,7.84218-6.09585,11.358,7.1246,13.72816,14.306,5.446a3.11805,3.11805,0,0,0-.00782,2.11688c1.40863,2.97592,19.06621,6.051,30.16824-9.28818.00774-.29745-.59069,27.3731-1.37316,34.67611-.19692,1.83173,11.85981,1.69277,11.70191-.13388-.26063-3.01791-2.29977-38.15213-2.29977-38.15213,5.16466,15.88773,25.93156,17.40176,24.73483,10.26664,5.60136,8.8192,16.53406,10.3144,11.96363-1.44019,7.97164,9.54508,20.23933,7.31243,14.03851,2.24569-15.95921-13.037-24.964-20.16925-25.89137-24.76628,2.57951,3.10185,5.98072,1.4344,5.02509-1.76079,7.3693,6.22829,11.6943,1.873,6.59175-3.78215-7.90649-8.94584-12.65356-14.75873-13.41157-19.4238,5.9315,7.17493,12.19675,5.83894,10.28908.47983,3.02548,3.6041,6.47593.7447,5.38418-2.88111C516.56655,490.39518,521.971,487.36715,519.162,483.55172Z"/><path class="cls-3" d="M2075.60245,938.74036c-252.78917-286.2-369.53044-389.2-578.90426-206.4-237.58385-217.9-327.4156-144.6-582.50562,82.6-127.445-178.1-176.36223-252-235.48313-140.6-145.35129-242.1-225.27949-321.4-347.22252-110.5-13.20467,22.8-30.71084,39.7-50.51783,48.7a77.04758,77.04758,0,0,1-60.82147,1.9c-183.46474-71.2-359.72694,227-467.36494,324.3Z"/><path class="cls-2" d="M1741.21872,640.68449c-7.06026-7.91249-21.93813-14.50725-22.89084-23.12689,5.88748.75158,9.47606-1.4346,6.16518-5.03124,7.91693,1.62606,6.09273-3.47046-7.51742-16.70056,18.33529,2.3557-2.27915-7.75065-7.2895-26.21,9.027,5.60617,12.38563,6.17178,8.42826.23206,17.72831,9.03329-8.68992-13.5602-9.79514-28.06547,5.39873,4.38909,7.08737,4.6409,5.01128.69579,2.71434.844,3.68681.32154,1.36705-2.78328-6.00449-8.68937-10.05839-19.25732-11.84511-32.00811.22034,1.48715-2.39588,24.81291-15.82943,38.48985-3.13609,3.193,1.14825,3.16736,2.72615.26377-1.99477,6.508,11.491-7.94991,6.92921-1.18355-6.29634,9.33908-6.6327,13.45349-2.35083,9.94852-1.76865,9.49659-22.32964,29.39715-11.29362,23.22482-.37993,1.40442-1.25773,4.78108-.45078,5.27811,1.07026.65941,3.34343-.9661,4.55117-4.35042.14395,6.05053,3.19564,3.96584,9.65964-8.1879-2.01288,6.0659-3.68753,9.0503-7.7934,14.47817-4.10593,5.42733,2.24967,5.18869,3.37882,1.58-4.52751,14.47214-27.3986,21.75649-15.14644,20.37675,0,0-1.74748,1.80984-6.59281,6.55142-4.81058,4.70755,10.01208,4.01192,10.01208,4.01192-3.1772,13.54226-32.85984,18.37106-14.237,19.27022-4.05017,4.046,9.31187,4.01851,13.363.01536,0,0-11.22591,11.73242-18.27124,18.56581-4.86516,3.89892-1.10107,7.59266,5.85,3.44522-.99524,2.36393,6.57409,3.82815,9.04372,1.6716-8.104,8.178-10.72529,7.45-19.21148,9.391-6.17772,1.4132-.79531,7.92291,8.36705,5.94466-4.62087,8.60977,5.4007,10.40644,10.84443,4.12823a2.36366,2.36366,0,0,0-.00592,1.60467c1.06779,2.25586,14.45288,4.58687,22.86862-7.04077.00587-.22548-.44777,20.7498-1.0409,26.28575-.14928,1.38851,8.99016,1.28317,8.87046-.10149-.19756-2.28768-1.7433-28.92069-1.7433-28.92069,3.915,12.04347,19.65706,13.19115,18.7499,7.78248,4.246,6.68527,12.53341,7.81869,9.06886-1.09172,6.0428,7.23552,15.34215,5.54309,10.6417,1.70231-12.09766-9.88253-18.92359-15.289-19.6266-18.77373,1.95536,2.35131,4.53361,1.08733,3.8092-1.33474,5.5862,4.72126,8.86471,1.41977,4.99679-2.867-5.99341-6.78127-9.59186-11.18766-10.16645-14.72395,4.49628,5.43886,9.24557,4.42613,7.79949.36373,2.29342,2.732,4.909.56451,4.0814-2.184C1739.25129,645.87208,1743.34805,643.57672,1741.21872,640.68449Z"/><path class="cls-1" d="M1790.87757,637.13512c-8.25908-9.256-25.66317-16.97054-26.77765-27.05377,6.88717.8792,11.08507-1.67819,7.212-5.88553,9.26121,1.90216,7.12726-4.05974-8.79385-19.53628,21.44857,2.75569-2.66615-9.0667-8.52724-30.66044,10.55975,6.55808,14.48867,7.21973,9.85935.27146,20.73854,10.56713-10.16544-15.86268-11.45833-32.83092,6.31542,5.13436,8.29079,5.42892,5.86218.81394,3.17524.98727,4.31283.37613,1.59918-3.25587-7.024-10.16481-11.76629-22.52718-13.85638-37.443.25775,1.73966-2.8027,29.02609-18.51723,45.02534-3.6686,3.73514,1.34322,3.70516,3.189.30856-2.33347,7.61306,13.44217-9.29979,8.10577-1.38452-7.36544,10.92483-7.75891,15.73786-2.75,11.63776-2.069,11.10908-26.12117,34.38871-13.21126,27.16833-.44444,1.64289-1.47129,5.59289-.52732,6.17432,1.252.77138,3.91114-1.13013,5.32395-5.08911.16839,7.0779,3.73825,4.63923,11.29982-9.57818-2.35466,7.09587-4.31366,10.587-9.1167,16.93653-4.80311,6.34887,2.63166,6.06971,3.95254,1.84825-5.29627,16.92948-32.05082,25.45069-17.71828,23.83668,0,0-2.04419,2.11714-7.71224,7.66382-5.62741,5.50689,11.7121,4.69314,11.7121,4.69314-3.71668,15.84171-38.43936,21.49042-16.65439,22.54226-4.73788,4.73294,10.893,4.70085,15.632.018,0,0-13.132,13.72455-21.37365,21.71824-5.69124,4.56094-1.288,8.88187,6.84332,4.03021-1.16423,2.76531,7.69035,4.47816,10.57933,1.95542-9.48007,9.56664-12.54642,8.715-22.47355,10.98556-7.22668,1.65315-.93036,9.2682,9.78775,6.954-5.40548,10.07169,6.31773,12.17343,12.6858,4.8292a2.765,2.765,0,0,0-.00694,1.87714c1.24911,2.63889,16.907,5.3657,26.75166-8.23628.00687-.26377-.5238,24.27306-1.21765,30.749-.17462,1.62429,10.51667,1.50106,10.37666-.11872-.23112-2.67612-2.03932-33.83135-2.03932-33.83135,4.57976,14.08842,22.99478,15.431,21.93359,9.10392,4.967,7.82042,14.66156,9.14629,10.60873-1.27708,7.06885,8.46409,17.94721,6.48428,12.44864,1.99136-14.15181-11.56056-22.13677-17.88506-22.95915-21.96147,2.28738,2.75056,5.3034,1.27195,4.456-1.56138,6.53472,5.52293,10.36991,1.66085,5.84523-3.35381-7.01107-7.93272-11.22053-13.0873-11.89269-17.224,5.25975,6.36236,10.81545,5.17767,9.12383.42548,2.68284,3.19594,5.74252.66036,4.77441-2.55482C1788.57607,643.20356,1793.36846,640.51845,1790.87757,637.13512Z"/><path class="cls-1" d="M1705.03323,636.70127c-8.61038-9.64971-26.75476-17.69239-27.91664-28.20451,7.18011.91659,11.55658-1.74957,7.51877-6.13587,9.65514,1.98307,7.43043-4.23242-9.1679-20.36726,22.36089,2.87291-2.77955-9.45235-8.88994-31.96459,11.00891,6.837,15.10495,7.52683,10.27872.283,21.62066,11.0166-10.59784-16.53741-11.94572-34.22739,6.58405,5.35274,8.64345,5.65984,6.11154.84856,3.31029,1.02927,4.49627.39213,1.66719-3.39437-7.32281-10.59716-12.26676-23.48536-14.44576-39.03565.26871,1.81365-2.92191,30.26072-19.30486,46.94049-3.82465,3.894,1.40035,3.86277,3.32468.32169-2.43273,7.93688,14.01394-9.69536,8.45056-1.44342-7.67874,11.38953-8.08894,16.40728-2.867,12.13278-2.157,11.58161-27.23223,35.85144-13.7732,28.32394-.46335,1.71277-1.53387,5.83079-.54975,6.437,1.30524.80419,4.0775-1.1782,5.5504-5.30557.17555,7.379,3.89726,4.83656,11.78046-9.9856-2.45481,7.3977-4.49714,11.03734-9.50448,17.65693-5.00741,6.61893,2.7436,6.32789,4.12067,1.92687-5.52156,17.64957-33.41411,26.53324-18.47193,24.85057,0,0-2.13115,2.2072-8.04029,7.98981-5.86677,5.74113,12.21028,4.89277,12.21028,4.89277-3.87477,16.51553-40.07439,22.40451-17.36279,23.50109-4.93941,4.93426,11.35634,4.9008,16.29688.01874,0,0-13.69061,14.30833-22.28278,22.642-5.93332,4.755-1.34282,9.25967,7.1344,4.20164-1.21375,2.88294,8.01746,4.66864,11.02932,2.0386-9.8833,9.97356-13.08008,9.08573-23.42946,11.45283-7.53407,1.72347-.96993,9.66243,10.20407,7.24984-5.6354,10.50009,6.58646,12.69122,13.22539,5.0346a2.88256,2.88256,0,0,0-.00723,1.957c1.30223,2.75114,17.62609,5.59393,27.88954-8.58661.00716-.275-.54607,25.30552-1.26943,32.05692-.18205,1.69337,10.964,1.5649,10.818-.12378-.24094-2.78995-2.126-35.27038-2.126-35.27038,4.77456,14.68769,23.97286,16.08735,22.86653,9.49117,5.17827,8.15306,15.28519,9.53532,11.06-1.33141,7.36952,8.82412,18.71059,6.7601,12.97814,2.07607-14.75376-12.0523-23.07836-18.6458-23.93572-22.89561,2.38467,2.86756,5.529,1.32606,4.64553-1.62779,6.81268,5.75785,10.811,1.73149,6.09386-3.49647-7.30929-8.27014-11.69781-13.644-12.39855-17.95667,5.48347,6.633,11.27549,5.39791,9.51191.44359,2.797,3.33187,5.98678.68845,4.9775-2.6635C1702.63384,643.02783,1707.63007,640.22851,1705.03323,636.70127Z"/><path class="cls-4" d="M0,676.2966s117.42959-110.544,222.43454-61.21131c0,0,65.10686,28.92506,127.01769,168.10977H0Z"/><path class="cls-4" d="M678.95541,677.48806s23.828-66.53534,66.94587-54.59251c0,0,35.86026-1.76524,130.29159,138.541l15.6191,21.75849H730.54777S727.79618,774.48169,678.95541,677.48806Z"/><path class="cls-4" d="M1496.8096,732.34033s12.43881,8.66365,42.01843,50.85473h273.55414V682.84026s-98.64076-74.21964-202.607-25.34006C1609.77516,657.5002,1567.60647,668.87414,1496.8096,732.34033Z"/><path class="cls-1" d="M173.75786,608.3572c-9.39918-10.81933-29.20577-19.83682-30.47409-31.62309,7.83788,1.02769,12.61528-1.96163,8.20757-6.87958,10.53965,2.22343,8.11112-4.74542-10.00777-22.83591,24.40937,3.22112-3.03419-10.598-9.70436-35.83891,12.01744,7.66572,16.48872,8.43913,11.22036.31731,23.60133,12.35188-11.56871-18.54186-13.04006-38.376,7.18721,6.00154,9.43527,6.34585,6.67141.95141,3.61355,1.154,4.90817.43967,1.81992-3.80578-7.99365-11.88162-13.39052-26.332-15.76914-43.767.29334,2.03349-3.18958,33.92853-21.07338,52.63-4.175,4.366,1.52864,4.331,3.62926.36067-2.65559,8.89889,15.29776-10.8705,9.22471-1.61836-8.38218,12.77-8.83,18.39595-3.1296,13.60335-2.35458,12.98538-29.727,40.19688-15.035,31.757-.5058,1.92037-1.67439,6.53752-.60012,7.21714,1.42482.90167,4.451-1.321,6.05888-5.94864.19163,8.27334,4.25429,5.42279,12.85967-11.19591-2.6797,8.29435-4.90913,12.37513-10.37519,19.79706-5.46614,7.42119,2.99495,7.09488,4.49816,2.16042C102.71175,555.05117,72.264,565.0116,88.575,563.125c0,0-2.32638,2.47473-8.77686,8.95823C73.3939,578.5202,93.127,577.569,93.127,577.569c-4.22975,18.51734-43.74561,25.1201-18.9534,26.34959-5.39191,5.53232,12.39669,5.49481,17.78984.021,0,0-14.94481,16.04259-24.32411,25.38639-6.47688,5.33128-1.46583,10.382,7.788,4.71091-1.32494,3.23237,8.75194,5.23451,12.03972,2.28569-10.78871,11.18242-14.27835,10.187-25.57584,12.841-8.22426,1.93236-1.05879,10.83358,11.13887,8.12857-6.15166,11.77277,7.18985,14.22949,14.437,5.64483a3.31431,3.31431,0,0,0-.00789,2.19419c1.42153,3.08459,19.24081,6.272,30.4445-9.62737.00782-.30832-.59609,28.37272-1.38572,35.94244-.19873,1.89862,11.96841,1.75458,11.80906-.13878-.263-3.12811-2.32082-39.54539-2.32082-39.54539,5.212,16.46793,26.169,18.03724,24.96134,10.64156,5.65265,9.14127,16.68546,10.69107,12.07318-1.49278,8.04465,9.89365,20.42467,7.57946,14.16707,2.32769-16.10536-13.51311-25.19257-20.90579-26.12847-25.67071,2.60313,3.21513,6.03549,1.48679,5.0711-1.82509,7.43679,6.45574,11.8014,1.94137,6.65212-3.92026-7.9789-9.27254-12.76944-15.29771-13.53438-20.13314,5.98581,7.437,12.30844,6.05217,10.3833.49735,3.05318,3.73572,6.53523.77189,5.43348-2.98633C171.13866,615.45058,176.59259,612.312,173.75786,608.3572Z"/><path class="cls-1" d="M1307.92737,556.39374c-9.39917-10.81933-29.20577-19.83683-30.47409-31.6231,7.83789,1.02769,12.61528-1.96163,8.20757-6.87958,10.53965,2.22343,8.11113-4.74542-10.00777-22.83591,24.40937,3.22113-3.03419-10.598-9.70435-35.83891,12.01743,7.66572,16.48871,8.43913,11.22035.31731,23.60133,12.35188-11.5687-18.54186-13.04006-38.376,7.18721,6.00154,9.43527,6.34585,6.67141.95142,3.61355,1.154,4.90818.43966,1.81992-3.80579-7.99365-11.88162-13.39052-26.332-15.76914-43.767.29334,2.03349-3.18958,33.92853-21.07338,52.63-4.175,4.366,1.52864,4.331,3.62926.36067-2.65559,8.89889,15.29776-10.8705,9.22471-1.61836-8.38218,12.77-8.83,18.396-3.1296,13.60335-2.35457,12.98538-29.727,40.19688-15.035,31.757-.50579,1.92037-1.67439,6.53752-.60012,7.21714,1.42482.90167,4.451-1.321,6.05888-5.94864.19164,8.27334,4.25429,5.42279,12.85967-11.19591-2.6797,8.29435-4.90913,12.37513-10.37519,19.79706-5.46614,7.42119,2.995,7.09488,4.49816,2.16042-6.02738,19.78883-36.47517,29.74925-20.16414,27.86263,0,0-2.32638,2.47473-8.77686,8.95823-6.40423,6.437,13.32887,5.4858,13.32887,5.4858-4.22975,18.51734-43.74561,25.1201-18.9534,26.34959-5.39191,5.53232,12.39669,5.49481,17.78984.021,0,0-14.94481,16.0426-24.32411,25.38639-6.47687,5.33128-1.46583,10.382,7.788,4.71091-1.32494,3.23237,8.75194,5.23451,12.03972,2.28569-10.78871,11.18242-14.27835,10.187-25.57584,12.841-8.22426,1.93236-1.05878,10.83358,11.13888,8.12857-6.15167,11.77277,7.18984,14.22949,14.437,5.64483a3.31431,3.31431,0,0,0-.00789,2.19419c1.42153,3.08459,19.24081,6.27195,30.44451-9.62737.00781-.30832-.5961,28.37272-1.38573,35.94244-.19873,1.89862,11.96841,1.75458,11.80906-.13878-.263-3.12811-2.32082-39.54539-2.32082-39.54539,5.212,16.46793,26.169,18.03724,24.96134,10.64156,5.65265,9.14127,16.68547,10.69107,12.07318-1.49278,8.04465,9.89365,20.42467,7.57946,14.16708,2.32769-16.10536-13.51311-25.19258-20.90579-26.12848-25.67071,2.60313,3.21513,6.03549,1.48679,5.0711-1.82509,7.43679,6.45574,11.8014,1.94137,6.65212-3.92026-7.97889-9.27254-12.76944-15.29771-13.53438-20.13314,5.98581,7.437,12.30844,6.05217,10.3833.49735,3.05318,3.73572,6.53523.7719,5.43348-2.98633C1305.30817,563.48711,1310.7621,560.3485,1307.92737,556.39374Z"/><path class="cls-5" d="M1833.451,229.058a8.60965,8.60965,0,0,0,6.10179-2.69,22.49753,22.49753,0,0,0,4.96226-7.834,46.61631,46.61631,0,0,0,2.86729-11.473,60.41849,60.41849,0,0,0,.23472-12.917c-4.01559-44.891-14.9793-85.8525-31.216-116.7017-16.24544-30.8491-36.89115-49.90923-58.81956-54.30211-21.93621-4.39461-43.95714,6.11772-62.7504,29.94761s-33.33624,59.6834-41.43364,102.1482a55.49109,55.49109,0,0,0-22.80018-5.038c-14.72783-.05-29.30469,6.274-42.78352,18.567s-25.57467,30.285-35.50781,52.824a7.41717,7.41717,0,0,0-.50292,2.286,8.78074,8.78074,0,0,0,.15932,2.494,5.20272,5.20272,0,0,0,.7795,1.927,1.60012,1.60012,0,0,0,1.15677.762Z"/><path class="cls-6" d="M58.75953,145.19452c-5.29954.00655-10.51863,3.18878-15.2113,9.27373-4.69257,6.08711-8.71916,14.89571-11.73235,25.67211-11.79255-13.2816-24.87839-17.9141-37.70444-13.3449-12.8252,4.5691-24.85,18.1456-34.646,39.1175H90.47385c-1.83394-17.3572-5.93941-32.7268-11.67616-43.7086C73.06086,151.22048,66.01484,145.24038,58.75953,145.19452Z"/><path class="cls-6" d="M413.5999,179.24428c19.52313-24.4621,33.30418-5.46032,33.30418-5.46032,9.629-7.426,18.198-2.18411,22.5267,6.11552,2.73854,5.4603-3.3569,4.3682-17.138,4.3682H414.04159c-.28091,0-.55123-.2752-.75-.7666a5.15348,5.15348,0,0,1-.31-1.8543,5.76107,5.76107,0,0,1,.16515-1.4263A2.41263,2.41263,0,0,1,413.5999,179.24428Z"/></svg>