<svg xmlns="http://www.w3.org/2000/svg" xmlns:xlink="http://www.w3.org/1999/xlink" viewBox="0,0,256,256" width="30px" height="30px" fill-rule="nonzero"><g fill="#ffffff" fill-rule="nonzero" stroke="none" stroke-width="1" stroke-linecap="butt" stroke-linejoin="miter" stroke-miterlimit="10" stroke-dasharray="" stroke-dashoffset="0" font-family="none" font-weight="none" font-size="none" text-anchor="none" style="mix-blend-mode: normal"><g transform="scale(8.53333,8.53333)"><path d="M8,3c-1.105,0 -2,0.895 -2,2h17c1.657,0 3,1.343 3,3v13c1.105,0 2,-0.895 2,-2v-14c0,-1.105 -0.895,-2 -2,-2zM4,7c-1.105,0 -2,0.895 -2,2v14c0,1.105 0.895,2 2,2h3v3c0,0.55228 0.44772,1 1,1c0.33867,-0.00063 0.654,-0.17263 0.83789,-0.45703l2.66016,-3.54297h10.50195c1.105,0 2,-0.895 2,-2v-14c0,-1.105 -0.895,-2 -2,-2z"></path></g></g></svg>