<svg width="304" height="207" viewBox="0 0 304 207" fill="none" xmlns="http://www.w3.org/2000/svg">
<path d="M289.21 206.895C291.37 206.942 293.513 206.023 295.475 204.204C297.438 202.384 299.176 199.709 300.57 196.37C301.956 193.034 302.963 189.115 303.514 184.897C304.065 180.68 304.151 176.27 303.755 171.981C299.632 127.09 288.375 86.1281 271.704 55.279C255.024 24.4298 233.826 5.36969 211.311 0.97681C188.788 -3.4178 166.178 7.09453 146.882 30.9244C127.586 54.7544 112.654 90.6078 104.34 133.072C96.6457 129.722 88.7964 128.032 80.9299 128.035C65.8081 127.985 50.8413 134.309 37.0019 146.602C23.1625 158.895 10.7431 176.886 0.544242 199.426C0.268831 200.074 0.0881129 200.866 0.0278667 201.712C-0.0409861 202.558 0.0193147 203.423 0.191447 204.206C0.363579 204.988 0.638931 205.656 0.991802 206.132C1.34467 206.608 1.75779 206.872 2.17952 206.895H289.21Z" fill="#AC73FF" fill-opacity="0.2"/>
</svg>
