<svg height="898.647" viewBox="0 0 1138.689 898.647" width="1138.689" xmlns="http://www.w3.org/2000/svg"><g fill="#2043b7"><path d="m64.985 226.822s-3.396-21.831.72-27.901 107.18-39.89 111.344-38.921c4.164.97 19.722 22.301 19.722 22.301z"/><path d="m64.985 229.322c-.452 0-.901-.123-1.297-.362-.631-.383-1.06-1.024-1.174-1.753-.592-3.809-3.322-23.138 1.122-29.689 2.194-3.235 21.345-10.995 56.92-23.064 5.399-1.831 52.864-17.882 57.061-16.888 4.409 1.027 15.159 15.016 21.174 23.262.47.644.604 1.472.363 2.23s-.828 1.356-1.583 1.611l-131.786 44.521c-.261.089-.53.132-.8.132zm2.746-28.933c-2.253 3.476-1.709 14.95-.688 23.099l125.678-42.458c-6.431-8.58-13.788-17.348-16.13-18.536-3.598.363-26.449 7.193-54.794 16.817-34.522 11.723-51.992 19.017-54.066 21.078z"/><path d="m594.844 57.787s4.432-25.842 7.018-28.547c2.587-2.705 91.926-27.258 98.348-26.731 6.421.527 32.489 16.163 32.489 16.163z"/><path d="m594.843 60.287c-.609 0-1.206-.223-1.671-.641-.639-.574-.938-1.436-.793-2.282 1.703-9.933 4.965-27.019 7.676-29.853 2.038-2.131 27.708-9.475 48.884-15.261 10.868-2.97 46.718-12.626 51.476-12.233 6.805.558 30.851 14.879 33.57 16.511.854.513 1.323 1.484 1.192 2.473-.132.988-.837 1.804-1.796 2.076l-137.855 39.115c-.225.063-.455.095-.683.095zm8.741-29.194c-1.223 1.992-3.674 12.798-5.582 23.199l128.387-36.429c-9.877-5.699-22.787-12.568-26.384-12.863-6.021-.338-89.282 22.252-96.421 26.093z"/></g><path d="m34.929 830.275c6.844 15.626 34.447 55.54 47.366 62.671s98.461.969 111.777-5.102c13.317-6.071 42.421-51.113 49.114-63s32.233-204.716 44.67-222.672 484.543-127.474 499.696-122.804c15.154 4.67 147.979 193.037 158.226 203.573s59.397 32.915 75.403 32.986 92.667-33.869 101.42-45.034 17.779-62.814 11.486-81.051c-8.161-23.65-274.978-510.775-288.383-526.823s-74.228-45.362-100.031-46.683c-25.802-1.321-693.017 207.583-709.025 222.254s-30.517 70.813-33.875 90.817c-3.359 20.004 25.313 485.242 32.157 500.868z" fill="#3054e5"/><path d="m112.39 898.642c-14.706 0-26.758-.998-31.303-3.508-13.952-7.702-41.752-48.566-48.448-63.856-4.882-11.146-17.607-209.907-20.109-249.639-7.405-117.618-13.983-242.168-12.224-252.646 3.077-18.323 17.582-76.601 34.652-92.246 9.761-8.945 225.716-78.172 351.781-117.667 125.216-39.229 340.744-105.249 358.759-105.249.109 0 .209.002.304.007 27.361 1.401 88.437 31.554 101.822 47.578 13.599 16.281 280.832 504.443 288.827 527.609 6.415 18.592-2.405 71.321-11.882 83.409-9.146 11.667-86.295 45.991-103.344 45.992h-.055c-17.034-.076-66.518-22.775-77.185-33.742-3.363-3.459-18.38-23.918-39.163-52.234-21.835-29.75-49.01-66.775-72.072-96.832-34.715-45.245-43.68-53.166-45.934-53.861-8.024-1.735-122.608 22.602-250.246 53.127-164.228 39.276-242.221 62.813-246.663 68.718-6.967 10.059-18.919 81.624-28.523 139.127-8.081 48.386-13.178 78.297-16.019 83.343-3.885 6.897-34.956 57.072-50.256 64.048-8.959 4.084-51.724 8.523-82.72 8.523zm632.931-879.816c-12.666 0-162.217 43.977-356.94 104.979-195.98 61.397-343.195 110.446-350.045 116.628-15.227 13.954-29.649 68.848-33.099 89.388-1.474 8.774 3.807 116.898 12.282 251.505 8.787 139.568 16.889 241.528 19.699 247.946 7.037 16.067 34.537 55 46.284 61.485 11.41 6.299 95.919 1.017 109.532-5.188 12.311-5.613 40.653-48.954 47.973-61.952 2.555-4.538 9.107-43.771 15.444-81.713 10.19-61.016 21.741-130.172 29.349-141.156 1.332-1.923 4.871-7.032 82.585-28.407 42.886-11.795 102.449-26.884 167.719-42.487 92.265-22.057 242.304-55.916 252.185-52.876 10.31 3.179 60.701 70.951 120.564 152.514 19.887 27.095 35.595 48.496 38.716 51.706 9.656 9.928 58.25 32.16 73.622 32.229h.045c15.213 0 91.279-33.722 99.396-44.076 7.908-10.088 17.405-60.395 11.091-78.694-7.973-23.102-274.383-509.807-287.938-526.035-12.563-15.039-72.414-44.467-98.24-45.789-.069-.004-.145-.006-.225-.006z" fill="#3054e5"/><path d="m790.268 437.106c-17.279-3.924-513.507 111.723-521.819 122.609s-45.66 230.136-44.851 245.188c.478 8.889 4.848 26.421 8.641 37.496 4.962-7.52 8.954-14.013 10.948-17.554 6.692-11.887 32.233-204.716 44.669-222.672 12.437-17.956 484.543-127.474 499.696-122.804 15.154 4.67 147.979 193.037 158.226 203.572 2.83 2.91 8.636 6.725 15.884 10.722-3.792-17.66-8.503-37.332-11.969-44.229-6.811-13.554-142.147-208.404-159.426-212.328z" fill="#2043b7"/><path d="m232.239 844.898c-.104 0-.21-.007-.315-.02-.946-.121-1.741-.769-2.05-1.671-3.834-11.194-8.277-28.971-8.771-38.172-.442-8.233 9.333-69.882 19.04-124.726 6.07-34.303 20.788-114.868 26.319-122.113 1.125-1.473 3.467-4.539 83.977-25.206 45.977-11.802 108.121-26.92 174.988-42.569 93.451-21.87 254.511-58.25 265.396-55.754 3.187.723 9.775 5.219 32.641 33.802 13.734 17.168 31.878 41.278 52.469 69.723 35.746 49.379 72.273 102.711 75.996 110.119 2.959 5.886 7.057 20.968 12.18 44.827.205.957-.167 1.946-.953 2.531-.787.584-1.842.655-2.698.183-5.518-3.043-12.854-7.45-16.469-11.168-3.364-3.459-18.384-23.922-39.171-52.245-21.835-29.748-49.009-66.771-72.068-96.826-34.712-45.24-43.677-53.161-45.931-53.856-8.024-1.735-122.608 22.602-250.246 53.127-164.228 39.275-242.221 62.813-246.663 68.718-6.967 10.059-18.919 81.624-28.523 139.128-8.081 48.385-13.178 78.296-16.019 83.342-1.813 3.218-5.664 9.559-11.04 17.704-.467.707-1.254 1.123-2.087 1.123zm38.116-283.554c-2.776 4.156-11.623 42.616-25.29 119.837-10.833 61.21-19.343 116.65-18.971 123.587.393 7.302 3.634 21.186 6.912 31.878 3.814-5.915 6.568-10.482 8.002-13.028 2.555-4.538 9.107-43.771 15.444-81.713 10.19-61.016 21.741-130.172 29.348-141.156 1.333-1.923 4.871-7.032 82.586-28.407 42.886-11.795 102.449-26.884 167.718-42.487 92.266-22.057 242.305-55.938 252.186-52.875 10.309 3.177 60.697 70.945 120.557 152.502 19.892 27.101 35.603 48.507 38.725 51.717 1.905 1.959 5.539 4.559 10.451 7.497-4.421-20.018-8.055-33.151-10.562-38.139-3.264-6.494-38.422-58.104-75.579-109.433-66.637-92.051-79.735-101.024-82.164-101.58-7.679-1.509-119.836 22.233-260.954 55.232-143.104 33.464-251.516 61.396-258.408 66.568z" fill="#2043b7"/><path d="m785.32 27.534c-15.247-6.234-29.93-10.702-39.647-11.199-25.802-1.321-693.017 207.584-709.025 222.255-10.283 9.423-19.946 35.958-26.434 59.035 16.626-14.819 37.6-33.235 44.162-37.77 10.22-7.062 607.099-193.648 730.944-232.321z" fill="#668bff"/><path d="m10.213 300.125c-.457 0-.916-.125-1.323-.38-.942-.588-1.383-1.728-1.082-2.797 4.994-17.768 15.163-49.215 27.15-60.201 9.761-8.945 225.716-78.172 351.781-117.667 125.216-39.229 340.744-105.249 358.759-105.249.109 0 .209.002.304.007 9.31.478 23.68 4.52 40.465 11.382.976.399 1.597 1.368 1.552 2.421-.045 1.054-.746 1.966-1.753 2.28-330.522 103.211-720.109 225.905-730.308 232.016-5.081 3.512-20.268 16.507-43.881 37.554-.47.419-1.064.634-1.664.634zm735.108-281.299c-12.666 0-162.217 43.977-356.939 104.979-195.981 61.397-343.196 110.446-350.046 116.628-7.301 6.691-15.649 24.532-23.277 49.539 15.211-13.484 32.067-28.146 37.896-32.175 10.128-6.999 548.366-175.418 724.853-230.537-13.408-5.078-24.706-8.042-32.263-8.429-.069-.004-.145-.006-.225-.006z" fill="#668bff"/><path d="m120.503 363.219s-18.356-58.325-15.688-63.321 47.63-30.629 53.405-27.854 22.669 68.575 22.669 68.575 63.139-23.248 67.697-21.264 22.776 42.995 21.276 49.39c-1.5 6.394-60.101 32.673-60.101 32.673s20.126 55.578 17.434 59.982-47.172 24.785-55.096 23.983c-7.924-.803-25.686-57.297-25.686-57.297s-60.848 23.722-64.888 22.599c-4.04-1.122-22.936-53.291-19.558-59.956s58.536-27.509 58.536-27.509z" fill="#f6f6f6"/><path d="m172.385 487.893c-.194 0-.373-.008-.538-.024-3.369-.342-7.869-4.278-17.898-30.545-4.042-10.586-7.571-21.221-9.105-25.949-4.958 1.917-16.64 6.409-28.495 10.776-32.187 11.858-34.174 11.31-35.492 10.942-1.388-.386-2.966-1.486-6.983-10.597-4.034-9.147-17.822-45.627-14.136-52.898 3.363-6.637 42.487-22.087 57.681-27.881-1.453-4.689-4.924-16.025-8.166-27.611-8.782-31.378-7.39-33.985-6.642-35.386 2.547-4.771 25.569-17.328 26.548-17.86 24.946-13.565 28.858-11.689 30.145-11.069 1.611.774 4.61 2.216 14.815 36.875 3.736 12.69 7.094 25.307 8.498 30.66 5.158-1.878 17.28-6.256 29.607-10.45 33.63-11.442 35.963-10.424 37.36-9.813 3.839 1.671 10.547 15.962 14.203 24.333 2.946 6.743 9.672 22.962 8.509 27.92-.421 1.797-1.206 5.142-31.935 20.402-11.433 5.678-22.868 10.934-27.468 13.025 1.601 4.486 5.402 15.258 8.972 26.24 9.746 29.985 8.372 32.232 7.463 33.72-3.595 5.879-47.504 25.189-56.942 25.19zm.037-4.993c6.975.546 48.281-18.173 52.527-22.689.498-4.582-8.437-32.805-17.539-57.943-.445-1.231.134-2.597 1.328-3.133 27.085-12.146 56.316-27.026 58.707-31.065.229-1.723-1.691-9.568-7.962-24.032-5.72-13.194-10.314-20.891-11.85-22.313-.016 0-.032 0-.048 0-5.105 0-37.09 10.658-65.833 21.241-.664.246-1.4.195-2.026-.132-.626-.329-1.083-.907-1.26-1.592-7.779-30.3-17.816-63.304-21.366-66.92-6.256-.693-46.603 21.905-50.026 26.679-.843 4.352 7.333 34.521 15.813 61.469.398 1.266-.261 2.621-1.501 3.09-26.403 9.978-55.017 22.548-57.196 26.311-.673 1.606.56 10.685 6.762 29.004 5.091 15.036 9.71 25.049 11.462 27.31 5.548-.752 36.075-11.896 63.09-22.427.646-.251 1.366-.225 1.989.075.624.299 1.097.844 1.304 1.504.043.135 4.306 13.66 9.5 27.358 9.629 25.394 13.563 27.961 14.125 28.208z" fill="#f6f6f6"/><ellipse cx="344.74" cy="555.615" fill="#3054e5" rx="95.43" ry="99.409" transform="matrix(.57124372 -.82078049 .82078049 .57124372 -308.229 521.177)"/><path d="m348.362 654.826c-20.443 0-41.297-6.118-59.563-18.832-22.327-15.538-37.51-38.501-42.751-64.656-5.25-26.193.095-52.451 15.049-73.937 30.847-44.322 93.464-54.264 139.586-22.165 46.122 32.101 58.549 94.273 27.702 138.594-18.629 26.768-48.849 40.996-80.022 40.996zm-7.251-193.424c-29.592 0-58.25 13.479-75.911 38.854-14.169 20.358-19.229 45.253-14.25 70.099 4.986 24.884 19.442 46.737 40.704 61.535 17.397 12.108 37.261 17.937 56.717 17.938 29.592.002 58.249-13.479 75.91-38.854 29.271-42.059 17.404-101.109-26.454-131.635-17.397-12.107-37.26-17.938-56.716-17.938z" fill="#3054e5"/><ellipse cx="344.74" cy="555.615" fill="#1e1e1e" rx="58.547" ry="60.987" transform="matrix(.57124372 -.82078049 .82078049 .57124372 -308.229 521.177)"/><path d="m346.915 617.483c-13.085 0-25.954-4.042-37.047-11.763-28.733-19.997-36.465-58.743-17.236-86.372 9.325-13.399 23.521-22.213 39.972-24.816 16.409-2.6 33.108 1.301 47.01 10.978 28.731 19.996 36.461 58.744 17.236 86.372-9.325 13.4-23.521 22.214-39.971 24.817-3.318.524-6.648.784-9.964.784zm-4.354-118.735c-3.055 0-6.12.239-9.176.723-15.093 2.389-28.108 10.462-36.649 22.733-17.653 25.366-10.481 60.991 15.988 79.413 12.839 8.936 28.244 12.543 43.373 10.143 15.093-2.388 28.108-10.462 36.649-22.733 17.653-25.365 10.481-60.99-15.988-79.413-10.246-7.131-22.127-10.865-34.197-10.865z" fill="#1e1e1e"/><ellipse cx="716.877" cy="461.702" fill="#3054e5" rx="99.409" ry="95.43" transform="matrix(.84153907 -.54019626 .54019626 .84153907 -135.813 460.423)"/><path d="m713.434 560.84c-6.583 0-13.187-.637-19.741-1.927-26.212-5.157-48.435-20.13-62.575-42.159-14.142-22.029-18.502-48.469-12.278-74.448 6.215-25.941 22.244-48.32 45.135-63.015 47.287-30.355 109.492-18.082 138.662 27.36 14.142 22.029 18.502 48.469 12.277 74.447-6.215 25.942-22.244 48.321-45.135 63.015-17.159 11.015-36.642 16.727-56.345 16.727zm6.944-193.218c-18.295 0-36.975 5.138-53.703 15.876-21.8 13.994-37.061 35.293-42.974 59.973-5.903 24.644-1.775 49.71 11.623 70.582 13.398 20.873 34.471 35.063 59.333 39.955 24.902 4.896 50.62-.108 72.42-14.102s37.062-35.292 42.974-59.972c5.904-24.643 1.776-49.709-11.622-70.582-17.384-27.08-47.165-41.73-78.051-41.73z" fill="#3054e5"/><ellipse cx="716.877" cy="461.702" fill="#1e1e1e" rx="64.604" ry="62.019" transform="matrix(.84153907 -.54019626 .54019626 .84153907 -135.813 460.423)"/><path d="m714.609 526.967c-21.435 0-42.118-10.188-54.203-29.015-19.218-29.938-9.521-70.556 21.617-90.544 15.068-9.673 32.854-13.136 50.09-9.741 17.271 3.398 31.915 13.267 41.234 27.785 9.32 14.52 12.194 31.942 8.094 49.06-4.092 17.08-14.644 31.813-29.711 41.485-11.558 7.419-24.471 10.97-37.121 10.97zm4.511-125.567c-12.023 0-23.915 3.488-34.396 10.216-28.817 18.499-37.84 56.019-20.111 83.636 17.73 27.618 55.6 35.036 84.416 16.539 13.977-8.972 23.761-22.624 27.55-38.443 3.781-15.781 1.139-31.831-7.438-45.193-8.578-13.362-22.07-22.447-37.993-25.58-3.992-.786-8.018-1.174-12.027-1.174z" fill="#1e1e1e"/><ellipse cx="724.026" cy="135.369" fill="#f6f6f6" rx="34.753" ry="33.174" transform="matrix(.95501994 -.29654157 .29654157 .95501994 -7.576 220.791)"/><path d="m723.141 171.187c-15.653 0-29.995-9.643-34.693-24.771-5.832-18.785 5.382-39.024 24.999-45.116 19.615-6.088 40.323 4.24 46.156 23.022 2.832 9.121 1.778 18.844-2.968 27.377-4.725 8.495-12.549 14.795-22.031 17.739-3.818 1.186-7.68 1.749-11.463 1.749zm1.774-66.637c-3.295 0-6.657.491-9.986 1.524-16.983 5.274-26.722 22.706-21.706 38.858 5.017 16.152 22.909 25.003 39.898 19.729 8.248-2.561 15.047-8.028 19.145-15.394 4.075-7.328 4.985-15.661 2.562-23.465-4.032-12.986-16.395-21.254-29.912-21.254z" fill="#f6f6f6"/><ellipse cx="763.67" cy="263.047" fill="#ffd04d" rx="34.753" ry="33.174" transform="matrix(.95501994 -.29654157 .29654157 .95501994 -43.654 238.29)"/><path d="m762.786 298.865c-15.653 0-29.995-9.643-34.693-24.771-5.833-18.786 5.382-39.025 24.999-45.116 19.614-6.09 40.323 4.239 46.156 23.022 2.832 9.121 1.778 18.844-2.968 27.377-4.725 8.495-12.549 14.795-22.031 17.739-3.818 1.186-7.68 1.749-11.463 1.749zm1.774-66.637c-3.295 0-6.657.491-9.986 1.524-16.984 5.273-26.722 22.705-21.706 38.858 5.017 16.151 22.909 24.998 39.898 19.729 8.248-2.561 15.047-8.028 19.145-15.394 4.075-7.328 4.985-15.661 2.562-23.465-4.032-12.986-16.395-21.254-29.912-21.254z" fill="#ffd04d"/><ellipse cx="807.687" cy="179.386" fill="#aef45d" rx="33.174" ry="34.753" transform="matrix(.95501994 -.29654157 .29654157 .95501994 -16.866 247.579)"/><path d="m808.516 216.521c-5.894 0-11.764-1.525-17.159-4.526-8.495-4.725-14.795-12.549-17.739-22.031s-2.184-19.498 2.141-28.203c4.345-8.744 11.761-15.12 20.882-17.952 9.123-2.83 18.845-1.778 27.377 2.968 8.494 4.725 14.794 12.549 17.738 22.031 2.944 9.481 2.185 19.498-2.141 28.203-4.344 8.745-11.76 15.12-20.881 17.953-3.354 1.041-6.79 1.558-10.218 1.558zm-1.666-69.267c-2.931 0-5.864.44-8.728 1.33-7.804 2.423-14.155 7.893-17.886 15.401-3.75 7.548-4.405 16.248-1.844 24.496 2.561 8.249 8.028 15.048 15.394 19.145 7.328 4.075 15.661 4.984 23.465 2.563 7.804-2.423 14.155-7.894 17.886-15.402 3.75-7.548 4.404-16.248 1.843-24.496s-8.028-15.047-15.394-19.145c-4.639-2.579-9.682-3.892-14.736-3.892z" fill="#aef45d"/><ellipse cx="680.009" cy="219.03" fill="#ffa9d8" rx="33.174" ry="34.753" transform="matrix(.95501994 -.29654157 .29654157 .95501994 -34.365 211.501)"/><path d="m680.838 256.166c-5.894 0-11.764-1.525-17.159-4.526-8.495-4.725-14.795-12.549-17.739-22.031s-2.184-19.498 2.141-28.203c4.345-8.744 11.761-15.12 20.882-17.952 9.123-2.83 18.845-1.779 27.377 2.968 8.495 4.725 14.795 12.549 17.739 22.031 6.091 19.617-4.237 40.322-23.022 46.156-3.354 1.041-6.79 1.558-10.218 1.558zm-1.666-69.267c-2.931 0-5.864.44-8.728 1.33-7.804 2.423-14.155 7.893-17.886 15.401-3.75 7.548-4.405 16.248-1.844 24.496 2.561 8.249 8.028 15.048 15.394 19.145 7.328 4.075 15.661 4.984 23.465 2.563 16.152-5.016 25.003-22.914 19.729-39.898-2.561-8.248-8.028-15.047-15.394-19.145-4.64-2.579-9.683-3.892-14.737-3.892z" fill="#ffa9d8"/><path d="m316.891 323.972c17.658 7.014 256.962-64.24 263.144-85.289 5.29-18.014-19.022-135.15-26.144-168.557-91.307 27.674-200.893 61.894-295.673 92.31 10.651 38.692 43.948 155.688 58.674 161.537z" fill="#2043b7"/><path d="m320.667 326.899c-2.059 0-3.655-.19-4.698-.604-4.548-1.806-12.847-11.027-32.316-69.991-11.444-34.659-22.357-73.273-27.845-93.206-.355-1.291.37-2.634 1.646-3.044 94.751-30.405 205.298-64.918 295.712-92.321.673-.204 1.394-.116 1.996.239.603.356 1.028.948 1.175 1.632 9.604 45.062 31.376 151.809 26.097 169.783-.81 2.759-3.881 6.968-20.582 15.108-31.824 15.512-92.488 35.422-138.65 48.883-14.446 4.213-81.797 23.519-102.534 23.521zm-59.401-162.817c5.653 20.455 16.152 57.392 27.135 90.653 18.944 57.373 26.881 65.907 29.414 66.913 5.229 2.08 42.631-5.178 103.987-23.07 45.964-13.403 106.317-33.203 137.859-48.578 15.642-7.624 17.713-11.129 17.976-12.021 3.999-13.619-10.509-93.477-25.624-164.672-89.172 27.046-197.443 60.85-290.747 90.775z" fill="#2043b7"/></svg>