<svg xmlns="http://www.w3.org/2000/svg" xmlns:xlink="http://www.w3.org/1999/xlink" viewBox="0,0,256,256" width="50px" height="50px" fill-rule="nonzero"><g fill="#ffffff" fill-rule="nonzero" stroke="none" stroke-width="1" stroke-linecap="butt" stroke-linejoin="miter" stroke-miterlimit="10" stroke-dasharray="" stroke-dashoffset="0" font-family="none" font-weight="none" font-size="none" text-anchor="none" style="mix-blend-mode: normal"><g transform="scale(5.12,5.12)"><path d="M17,2c-2.76172,0 -5,2.23828 -5,5c0,2.76172 2.23828,5 5,5c2.76172,0 5,-2.23828 5,-5c0,-2.76172 -2.23828,-5 -5,-5zM32.8125,2c-2.76172,0 -5,2.23828 -5,5c0,2.76172 2.23828,5 5,5c2.76172,0 5,-2.23828 5,-5c0,-2.76172 -2.23828,-5 -5,-5zM17,13c-1.11328,0 -2.14453,0.25781 -3.0625,0.71875c1.875,1.46484 3.09375,3.75391 3.09375,6.3125c0,2.50391 -1.16016,4.75 -2.96875,6.21875c1.45703,0.75781 2.73047,1.80859 3.71875,3.125c-0.47656,-1.02344 -0.75,-2.14453 -0.75,-3.34375c0,-3.97266 2.91797,-7.28906 6.71875,-7.90625c-0.80469,-2.97656 -3.49609,-5.125 -6.75,-5.125zM32.8125,13c-3.23828,0 -5.93359,2.13281 -6.75,5.09375c3.91797,0.51563 6.96875,3.87891 6.96875,7.9375c0,1.12109 -0.23828,2.1875 -0.65625,3.15625c0.97656,-1.23437 2.19922,-2.25 3.59375,-2.96875c-1.79687,-1.46875 -2.9375,-3.69141 -2.9375,-6.1875c0,-2.51172 1.15234,-4.75 2.96875,-6.21875c-0.95703,-0.51172 -2.01562,-0.8125 -3.1875,-0.8125zM9.03125,14.03125c-3.3125,0 -6,2.6875 -6,6c0,3.3125 2.6875,6 6,6c3.3125,0 6,-2.6875 6,-6c0,-3.3125 -2.6875,-6 -6,-6zM41.03125,14.03125c-3.3125,0 -6,2.6875 -6,6c0,3.3125 2.6875,6 6,6c3.3125,0 6,-2.6875 6,-6c0,-3.3125 -2.6875,-6 -6,-6zM25.03125,20.03125c-3.3125,0 -6,2.6875 -6,6c0,3.3125 2.6875,6 6,6c3.3125,0 6,-2.6875 6,-6c0,-3.3125 -2.6875,-6 -6,-6zM9,27c-4.96094,0 -9,4.03516 -9,9v3.5c0,0.3125 0.15234,0.625 0.40625,0.8125c0.23047,0.17578 2.4375,1.6875 8.59375,1.6875c2.13281,0 3.79297,-0.19141 5.0625,-0.4375c0.12891,-3.07422 1.50391,-5.82812 3.65625,-7.75c-0.97656,-3.91406 -4.50781,-6.8125 -8.71875,-6.8125zM41,27c-4.19531,0 -7.72656,2.88672 -8.71875,6.78125c2.18359,1.92578 3.59375,4.71094 3.71875,7.8125c1.26172,0.24219 2.89844,0.40625 5,0.40625c6.15625,0 8.36328,-1.51172 8.59375,-1.6875c0.25391,-0.1875 0.40625,-0.49609 0.40625,-0.8125v-3.5c0,-4.96484 -4.03516,-9 -9,-9zM25.03125,33.03125c-4.96094,0 -9,4.03516 -9,9v3.5c0,0.31641 0.15234,0.59375 0.40625,0.78125c0.23047,0.17578 2.4375,1.71875 8.59375,1.71875c6.15625,0 8.36328,-1.54297 8.59375,-1.71875c0.25391,-0.1875 0.40625,-0.46875 0.40625,-0.78125v-3.5c0,-4.96484 -4.03516,-9 -9,-9z"></path></g></g></svg>