<svg xmlns="http://www.w3.org/2000/svg" xmlns:xlink="http://www.w3.org/1999/xlink" viewBox="0,0,256,256" width="50px" height="50px" fill-rule="nonzero"><g fill="#ffffff" fill-rule="nonzero" stroke="none" stroke-width="1" stroke-linecap="butt" stroke-linejoin="miter" stroke-miterlimit="10" stroke-dasharray="" stroke-dashoffset="0" font-family="none" font-weight="none" font-size="none" text-anchor="none" style="mix-blend-mode: normal"><g transform="scale(5.12,5.12)"><path d="M20.60156,2.07031c-5.815,0 -10.54687,3.98477 -10.54687,8.88477c0.001,2.668 1.43523,5.20086 3.86523,6.88086c-0.106,0.477 -0.37655,1.27217 -1.06055,2.20117l-1.08398,1.47266l1.82813,0.00781h0.02734c2.302,0 3.93725,-1.22367 4.65625,-1.88867c0.753,0.142 1.53045,0.21289 2.31445,0.21289c5.815,0 10.54492,-3.98672 10.54492,-8.88672c0,-4.9 -4.72992,-8.88477 -10.54492,-8.88477zM31.07422,4.97461c1.308,1.718 2.07617,3.77147 2.07617,5.98047c-0.002,3.765 -2.21627,7.08697 -5.57227,9.04297c0.992,0.31 2.05973,0.48828 3.17773,0.48828c0.659,0 1.31031,-0.05688 1.94531,-0.17187c0.657,0.594 2.07202,1.61233 4.04102,1.61133h0.02539l1.82813,-0.00781l-1.08398,-1.47266c-0.536,-0.729 -0.76719,-1.35786 -0.86719,-1.75586c2.078,-1.467 3.30078,-3.65784 3.30078,-5.96484c0,-4.189 -3.95309,-7.606 -8.87109,-7.75zM25.5332,24c-5.184,0 -6.53125,2.973 -6.53125,5.75c0,0.676 0.22672,1.63719 0.38672,2.24219c-0.211,0.332 -0.38672,0.81581 -0.38672,1.50781c0,1.328 0.57044,2.03894 1.27344,2.33594c0.238,0.883 0.71856,1.79737 1.22656,2.35937v1.58594c-0.336,0.578 -1.32791,1.00041 -2.37891,1.44141c-2.066,0.875 -4.89509,2.07384 -5.12109,5.71484c-0.016,0.277 0.08153,0.547 0.26953,0.75c0.19,0.2 0.45247,0.3125 0.73047,0.3125h20c0.277,0 0.53856,-0.11341 0.72656,-0.31641c0.191,-0.199 0.28853,-0.46909 0.26953,-0.74609c-0.224,-3.661 -3.43325,-4.85166 -5.78125,-5.72266c-1.16,-0.43 -2.35884,-0.87541 -2.71484,-1.44141v-1.58203c0.508,-0.559 0.98356,-1.47152 1.22656,-2.35352c0.703,-0.297 1.27344,-1.00794 1.27344,-2.33594c0,-0.691 -0.17767,-1.17777 -0.38867,-1.50977c0.16,-0.605 0.38867,-1.56423 0.38867,-2.24023c0,-2.133 -0.68816,-4.4197 -3.28516,-4.7207l-0.32422,-0.54297c-0.18,-0.301 -0.50838,-0.48828 -0.85937,-0.48828zM16.375,24.33203c-4.657,0 -5.86719,2.67102 -5.86719,5.16602c0,0.607 0.2027,1.47162 0.3457,2.01563c-0.19,0.298 -0.3457,0.73447 -0.3457,1.35547c0,1.193 0.51058,1.83261 1.14258,2.09961c0.214,0.793 0.64751,1.61314 1.10351,2.11914v1.42578c-0.302,0.519 -1.19467,0.89792 -2.13867,1.29492c-1.857,0.786 -4.39661,1.86377 -4.59961,5.13477c-0.015,0.248 0.07223,0.48888 0.24023,0.67188c0.172,0.179 0.40725,0.28125 0.65625,0.28125h5.20117c0.711,-4.176 4.26147,-5.68163 6.23047,-6.51562c0.332,-0.139 0.80639,-0.33867 1.15039,-0.51367c-0.348,-0.509 -0.65172,-1.09703 -0.88672,-1.70703c-1.031,-0.798 -1.60547,-2.08216 -1.60547,-3.66016c0,-0.618 0.09334,-1.18994 0.27734,-1.71094c-0.187,-0.819 -0.27734,-1.49106 -0.27734,-2.03906c0,-1.699 0.39972,-3.15108 1.13672,-4.33008c-0.216,-0.07 -0.44517,-0.13116 -0.70117,-0.16016l-0.29102,-0.48828c-0.161,-0.27 -0.45548,-0.43945 -0.77148,-0.43945zM34.625,24.33203c-1.716,0 -2.96152,0.36427 -3.85352,0.94727c0.79,1.135 1.23047,2.64475 1.23047,4.46875c0,0.548 -0.09134,1.22006 -0.27734,2.03906c0.185,0.521 0.27734,1.09294 0.27734,1.71094c0,1.579 -0.57442,2.86606 -1.60742,3.66406c-0.226,0.586 -0.51575,1.14862 -0.84375,1.64063c0.415,0.186 0.97237,0.39311 1.35938,0.53711c2.373,0.88 6.23956,2.31564 6.97656,6.55664h5.24609c0.249,0 0.48334,-0.10316 0.65234,-0.28516c0.172,-0.179 0.26019,-0.42092 0.24219,-0.66992c-0.2,-3.289 -3.08631,-4.35762 -5.19531,-5.14062c-1.042,-0.386 -2.1185,-0.78592 -2.4375,-1.29492v-1.42187c0.456,-0.502 0.88356,-1.32223 1.10156,-2.11523c0.632,-0.267 1.14453,-0.90661 1.14453,-2.09961c0,-0.621 -0.15866,-1.05647 -0.34766,-1.35547c0.144,-0.544 0.34766,-1.40762 0.34766,-2.01562c0,-1.916 -0.61912,-3.96728 -2.95312,-4.23828l-0.29102,-0.48828c-0.161,-0.27 -0.45548,-0.43945 -0.77148,-0.43945z"></path></g></g></svg>