<svg xmlns="http://www.w3.org/2000/svg" xmlns:xlink="http://www.w3.org/1999/xlink" viewBox="0,0,256,256" width="50px" height="50px" fill-rule="nonzero"><g fill="#ffffff" fill-rule="nonzero" stroke="none" stroke-width="1" stroke-linecap="butt" stroke-linejoin="miter" stroke-miterlimit="10" stroke-dasharray="" stroke-dashoffset="0" font-family="none" font-weight="none" font-size="none" text-anchor="none" style="mix-blend-mode: normal"><g transform="scale(5.12,5.12)"><path d="M13,0c-1.64446,0 -3,1.35443 -3,3v19h2v-19c0,-0.56443 0.43646,-1 1,-1h34c0.56354,0 1,0.43557 1,1v44c0,0.56294 -0.43706,1 -1,1h-34c-0.56294,0 -1,-0.43706 -1,-1v-19h-2v19c0,1.64506 1.35494,3 3,3h34c1.64506,0 3,-1.35494 3,-3v-44c0,-1.64557 -1.35554,-3 -3,-3zM22.04297,13.09961c-0.40657,0.0009 -0.77213,0.24784 -0.92475,0.62467c-0.15262,0.37684 -0.06192,0.80856 0.22944,1.09212l9.18164,9.18359h-29.5293c-0.36064,-0.0051 -0.69608,0.18438 -0.87789,0.49587c-0.18181,0.3115 -0.18181,0.69676 0,1.00825c0.18181,0.3115 0.51725,0.50097 0.87789,0.49587h29.5293l-9.18359,9.18359c-0.26123,0.25082 -0.36646,0.62327 -0.2751,0.9737c0.09136,0.35044 0.36503,0.62411 0.71546,0.71546c0.35044,0.09136 0.72288,-0.01387 0.9737,-0.27511l11.59766,-11.59766l-11.5957,-11.59766c-0.18874,-0.19402 -0.44807,-0.30325 -0.71875,-0.30274z"></path></g></g></svg>