<svg xmlns="http://www.w3.org/2000/svg" viewBox="0 0 1920 1080" width="1920" height="1080"><g transform="translate(884.0 301.0) rotate(0.0 399.0 227.5) scale(0.9997494362315209 0.9986830553116769)"><svg width="798.2" height="455.6" viewBox="0 0 798.2 455.6"><path d="m797.4 38-4.9 21-377.9 56.9L83.6 59l6.5-28c4.2-18.2 20.4-31 39-31h638.1c17.1 0 31 13.9 31 31 0 2.4-.3 4.7-.8 7z" fill="#ff5e43"/><path d="m792.5 59-84.4 365.6c-4.2 18.1-20.4 31-39 31H31c-17.1 0-31-13.9-31-31 0-2.3.3-4.7.8-7L83.6 59z" fill="#ffdc83"/><ellipse cx="124.3" cy="29.9" fill="#f9e7d7" rx="15.4" ry="12.2" transform="matrix(.7465 -.6653 .6653 .7465 11.6204 90.2993)"/><g fill="#ff8d6e"><ellipse cx="171.4" cy="29.9" rx="15.4" ry="12.2" transform="matrix(.7465 -.6653 .6653 .7465 23.5453 121.6009)"/><ellipse cx="218.4" cy="29.9" rx="15.4" ry="12.2" transform="matrix(.7465 -.6653 .6653 .7465 35.4695 152.9027)"/></g></svg></g><g transform="translate(675.0 107.0) rotate(0.0 283.5 175.5) scale(0.9991136610731572 0.9999857551886725)"><svg width="567.503" height="351.005" viewBox="0 0 567.503 351.005"><path d="m566.969 25.138-4.688 20.316L291.464 73.79 65.268 45.454l6.823-29.54A20.532 20.532 0 0 1 92.089 0h454.883a20.527 20.527 0 0 1 19.997 25.138z" fill="#5dace2"/><path d="M562.281 45.454 495.4 335.1a20.514 20.514 0 0 1-19.988 15.9H20.532a20.527 20.527 0 0 1-20-25.139L65.268 45.454z" fill="#f9e7d7"/><ellipse cx="90.816" cy="23.36" fill="#f9e7d7" rx="10.131" ry="8.047" transform="matrix(.74654529 -.6653346 .6653346 .74654529 7.475 66.343)"/><g fill="#77c3ed"><ellipse cx="121.766" cy="23.36" rx="10.131" ry="8.047" transform="matrix(.74654529 -.6653346 .6653346 .74654529 15.32 86.935)"/><ellipse cx="152.716" cy="23.36" rx="10.131" ry="8.047" transform="matrix(.74654529 -.6653346 .6653346 .74654529 23.164 107.527)"/></g></svg></g><g transform="translate(819.0 177.0) rotate(0.0 119.5 116.5) scale(0.9982457605880879 0.9990052822940249)"><svg width="239.42" height="233.232" viewBox="0 0 239.42 233.232"><ellipse cx="119.71" cy="116.616" fill="#ffdc83" rx="130.852" ry="103.929" transform="matrix(.74654529 -.6653346 .6653346 .74654529 -47.248 109.203)"/><ellipse cx="49.177" cy="140.174" fill="#d1a7db" rx="11.816" ry="11.825" transform="matrix(.88868126 -.45852548 .45852548 .88868126 -58.799 38.153)"/><ellipse cx="101.583" cy="132.067" fill="#0e1049" rx="56.262" ry="57.382" transform="matrix(.91065482 -.41316801 .41316801 .91065482 -45.49 53.77)"/><path d="M112.772 100.4c23.39 11.053 35.808 53.928 35.808 53.928l-3.69 7.261a59.022 59.022 0 0 1-59.41 31.893 45.213 45.213 0 0 1-17.2-4.336c-20.17-9.532-29.795-31.52-21.5-49.112a31.037 31.037 0 0 1 5.517-8.085 29.682 29.682 0 0 1 2.241-17.91C63.05 96 89.378 89.342 112.772 100.4z" fill="#d1a7db" fill-rule="evenodd"/><path d="M79.681 90.43c4.293 6.935 13.752 18.184 24.723 28.873s28.992 19.59 49.451 29.257q5.769-26.553-9.207-44.138C134.667 92.7 110.387 87.924 79.681 90.43z" fill="#0e1049" fill-rule="evenodd"/><ellipse cx="147.627" cy="152.569" fill="#d1a7db" rx="12.394" ry="12.37" transform="matrix(.14288805 -.98973886 .98973886 .14288805 -24.472 276.879)"/><g fill="#0e1049"><path d="M93.229 86.128Q80.32 97.5 73.318 102.994t-21.866 15.943l3.715-9.254c5.998-14.944 21.149-24.317 38.062-23.555z" fill-rule="evenodd"/><ellipse cx="152.73" cy="67.738" rx="45.078" ry="39.348"/></g></svg></g><g transform="translate(276.0 239.0) rotate(0.0 89.0 77.0) scale(0.9985974754558204 0.9963768115942029)"><svg width="178.25" height="154.56" viewBox="0 0 178.25 154.56"><path d="m1.333 135.18 7.758 12.07a13.109 13.109 0 0 0 10.881 6.02l115.243 1.289a17.858 17.858 0 0 0 17.655-14.08l25.143-116.164a10.461 10.461 0 0 0-1.9-8.552L167.3 4.186z" fill="#e54630"/><path d="M126.764 143.139 10.881 141A11.083 11.083 0 0 1 .2 127.828L22.419 12.221A15.062 15.062 0 0 1 37.211 0h121.412a11.081 11.081 0 0 1 10.788 13.617l-27.705 117.907a15.064 15.064 0 0 1-14.942 11.615z" fill="#ff5e43"/><path d="m140.7 24.412-7.776-7.761a5.849 5.849 0 0 0-7.963-.281L82.2 53.427 58.8 17.272a5.851 5.851 0 0 0-8.432-1.494l-10.056 7.576a5.849 5.849 0 0 0-1.419 7.807L63.66 70.184 24.239 107.41a5.847 5.847 0 0 0-.3 8.2c2.493 2.723 5.6 6.244 8.032 9.029a5.845 5.845 0 0 0 8.462.357l36.529-35.232 25.978 35.707a5.849 5.849 0 0 0 8.264 1.22l10.983-8.324a5.851 5.851 0 0 0 1.168-8.144L95.542 72.656l44.906-39.722a5.85 5.85 0 0 0 .252-8.522z" fill="#ffe3c3"/><g fill="#d1ae8b"><path d="m74.307 86.293-37.05 35.74a5.931 5.931 0 0 1-6.582 1.128l1.3 1.481a5.846 5.846 0 0 0 8.463.357l36.45-35.162zM140.7 24.412a5.908 5.908 0 0 1-2 4.241L93.154 68.94l2.608 3.522 44.686-39.528a5.85 5.85 0 0 0 .252-8.522zm-18.479 84.278a5.935 5.935 0 0 1-2.04 6.615l-11.141 8.444a5.931 5.931 0 0 1-7.658-.42l1.558 2.142a5.849 5.849 0 0 0 8.264 1.22l10.983-8.324a5.85 5.85 0 0 0 1.169-8.143z"/></g><path d="M27.764 40.011c-.422-1.158-2.109-1.966-3.055-.806-2.319 2.841-2.749 6.134-3.371 9.673-.756 4.305-1.534 8.608-2.28 12.915-1.5 8.662-2.386 17.41-3.846 26.062-.377 2.236 2.895 3.243 3.467.956 2.122-8.481 4.637-16.772 6.377-25.365a520.054 520.054 0 0 0 2.419-12.876c.625-3.541 1.553-7.09.289-10.559z" fill="#ff8d6e"/></svg></g><g transform="translate(1069.0 563.0) rotate(0.0 236.0 73.0) scale(0.9988213062127954 0.9971315394071849)"><svg width="472.557" height="146.42" viewBox="0 0 472.557 146.42"><path d="m436.348 27.08-19.87 101.02a22.715 22.715 0 0 1-22.28 18.32H22.718a22.7 22.7 0 0 1-21.75-29.21l30.22-101.02A22.7 22.7 0 0 1 52.938 0h361.14a22.7 22.7 0 0 1 22.27 27.08z" fill="#ff5e43"/><path d="M218.388 146.42H22.718a22.7 22.7 0 0 1-21.75-29.21l30.22-101.02A22.7 22.7 0 0 1 52.938 0h28.6c-16.7 1.56-29.677 12.69-33.847 28.34s-17.67 56.71-22.44 77.04c-2.44 10.44-3.73 29.26 15.13 30 48.007 1.89 120.619 6.98 178.007 11.04z" fill="#e54630"/><path d="m472.557 75.561-44.766-29.82-13.769 59.641z" fill="#ff5e43"/></svg></g><g transform="translate(1345.0 690.0) rotate(0.0 147.0 84.0) scale(0.9988754157733979 0.9992089595736708)"><svg width="294.331" height="168.133" viewBox="0 0 294.331 168.133"><path d="m1.652 145.847 7.782 13.3a18.156 18.156 0 0 0 15.67 8.986h228.454a18.28 18.28 0 0 0 17.978-14.969l22.519-122.257a16.726 16.726 0 0 0-.948-9.311l-5.3-13.086z" fill="#3d768a"/><path d="M249.137 153.115H13.813a13.808 13.808 0 0 1-13.582-16.3l39.017-125.5A13.809 13.809 0 0 1 52.83 0h222.219a13.809 13.809 0 0 1 13.523 16.6L262.66 142.1a13.807 13.807 0 0 1-13.523 11.015z" fill="#4ca2bb"/><path d="M131.26 123.156c-19.618-15.444-41.66-39.911-40.337-70.99.956-22.472 39.161-43.717 52.68-3.033 14.107-33.631 60.616-29.81 61.5 1.71.985 35.288-42.764 59.734-73.843 72.313z" fill="#ffe3c3"/><path d="M205.166 50.843c-.306-10.949-6.121-18.552-14.166-22.407 5.611 4.308 9.372 10.952 9.618 19.733.977 34.932-41.53 59.325-72.731 72.2q1.727 1.437 3.44 2.786c31.073-12.578 74.826-37.024 73.839-72.312z" fill="#d1ae8b"/><path d="M25.072 95.446a1.968 1.968 0 0 0-3.83-.749c-4.552 13.783-9.283 30.267-9.283 35.881 0 7.826 8.553 12.717 21.13 12.717 6.126 0 14.585.176 22.5.362a2.076 2.076 0 0 0 .474-4.107c-14.161-2.97-28.918-6.539-30.209-12.885-1.684-8.257-1.561-19.117-.782-31.219z" fill="#5bbfd6"/></svg></g><g transform="translate(1239.0 399.0) rotate(0.0 182.0 64.0) scale(0.9977933416482778 0.9991413628912652)"><svg width="364.805" height="128.11" viewBox="0 0 364.805 128.11"><path d="m364.484 20.87-17.84 92.98a17.561 17.561 0 0 1-17.25 14.26H37.8a17.567 17.567 0 0 1-16.78-22.75l28.73-92.98A17.553 17.553 0 0 1 66.534 0h280.7a17.559 17.559 0 0 1 17.25 20.87z" fill="#ffe3c3"/><path d="m0 58.715 34.691 23.109 10.67-46.218z" fill="#ffe3c3"/><path d="m364.484 20.87-17.84 92.98a17.561 17.561 0 0 1-17.25 14.26H98.575c40.69.03 209.939-8.486 223.389-20.21 20.352-17.74 37.56-62.93 42.52-87.03z" fill="#eacaac"/></svg></g><g transform="translate(1106.0 232.0) rotate(0.0 88.0 84.0) scale(0.9981568127038141 0.9991198230130599)"><svg width="176.325" height="168.148" viewBox="0 0 176.325 168.148"><path d="M17.721 144.032c47.763 46.358 125.632 21.909 152.241-39.526C191.106 55.688 154.2 20.3 137.231 9.187c-16.182 16.276-119.51 134.845-119.51 134.845z" fill="#3d768a"/><ellipse cx="83.149" cy="81" fill="#4ca2bb" rx="90.888" ry="72.188" transform="matrix(.74654529 -.6653346 .6653346 .74654529 -32.818 75.851)"/><path d="m17.368 78.43 10.3-17.455a4.042 4.042 0 0 1 6.747-.329l28.465 39 65.453-69.692a5.141 5.141 0 0 1 8.149.861l12.302 20.375a5.141 5.141 0 0 1-.854 6.381l-81.093 77.278a6.876 6.876 0 0 1-10.059-.921L17.643 82.944a4.04 4.04 0 0 1-.275-4.514z" fill="#ffe3c3"/><path d="m148.784 51.19-1.774-2.938a5.21 5.21 0 0 1-1.589 4.186L63.086 130.9a6.979 6.979 0 0 1-7.841 1.032l1.533 2a6.877 6.877 0 0 0 10.06.921l81.092-77.282a5.141 5.141 0 0 0 .854-6.381z" fill="#d1ae8b"/><path d="M98.753 8.412C93.34 5.6 87.407 7.731 81.84 9.321a106.332 106.332 0 0 0-17.577 6.737c-11.041 5.414-21.37 13.188-28.533 23.247-2.039 2.863 1.888 5.752 4.423 3.812 9.077-6.949 18.152-13.556 28.514-18.491a91.4 91.4 0 0 1 15.273-5.683c5.077-1.384 11.217-1.3 15.223-5.016 1.503-1.394 1.649-4.446-.41-5.515z" fill="#5bbfd6"/></svg></g><g transform="translate(516.0 91.0) rotate(0.0 121.5 146.0) scale(0.9962078507738034 0.9979221347331584)"><svg width="243.925" height="292.608" viewBox="0 0 243.925 292.608"><path d="M228.517 129.846c1.824-20.594-12.167-70.11-85.457-82.458C74.387 35.819 13.722 79.237 1.206 153.525c-8.282 49.161 27.036 114.79 76.6 126.591 31.828-26.084 150.711-150.27 150.711-150.27z" fill="#0e1049"/><path d="M224.525 172.976c20.954-65.5-25.987-106-81.083-115.284S47.029 76.776 38.22 129.061s28.715 102.2 83.812 111.479 86.337-17.063 102.493-67.564z" fill="#d1a7db"/><path d="M228.352 225.02c-4.6 27.275-22.291 48.156-48.065 59.086-25.2 5.513-42.472 4.442-68.633.034-61.207-10.311-88.579-48.202-80.554-95.84.036-.216.073-.433.119-.649 8.33-47.273 54.151-78.9 115.072-68.636 63.909 10.766 86.437 80.03 82.061 106.005z" fill="#d1a7db"/><path d="M213.551 102.1c.857 15.642-13.612 55.752-83.1 77.731-34.377-7.423-17.919-27.384-17.919-27.384l30.9-20.87zm-33.264 182.006c-19.244 8.166-42.979 10.789-69.141 6.382C49.939 280.176 23.075 235.938 31.1 188.3c.036-.216.073-.433.119-.649l44.986 1.383 12.9 30.223c-4.776 39.601 31.224 74.819 91.182 64.849z" fill="#8c6fb5"/><path d="M123.594 167.4c22.05.053 84.318-29.785 89.957-65.3 2.572 10.713 8.614 20.513 14.932 26.25 1.027-18.931-18.415-64.417-84.426-75.538S34.246 83.224 25.2 136.945s-6.545 109.261 36.737 134.579c-13.151-21.209-8.064-56.426 8.779-69.449 12.012-37.537 52.878-34.675 52.878-34.675z" fill="#0e1049"/><path d="M138.251 48.933c-2.761-11.29-4.353-28.51-.06-40.654s12.424-10.2 14.931 1.086c2.452 11.033.987 27.028-1.649 35.992 9.72-12.238 17.469-16.971 27.948-22.371 9.857-5.079 19.792-.47 9.168 12.258-7.677 9.2-22.336 19.632-32.491 20.705a56.6 56.6 0 0 1-17.847-7.016z" fill="#0e1049"/><path d="M202.672 191.557a35.6 35.6 0 0 1-9.215 1.1c-13.075-.094-23.63-6.841-23.578-15.079s10.716-14.845 23.791-14.751a35.17 35.17 0 0 1 5.12.4c10.609 1.537 18.51 7.555 18.457 14.687-.047 6.186-6.047 11.436-14.575 13.643z" fill="#fff"/><path d="m202.672 191.557-.122-.02a14.943 14.943 0 0 1-3.76-28.308c10.609 1.537 18.51 7.555 18.457 14.687-.047 6.184-6.047 11.434-14.575 13.641z" fill="#2b2929"/><path d="M185.794 213.558c6.2 2.8 24.368 10.145 29.435 11.991s4.53 6.083 1.67 8.273-11.915 6.579-20.524 2.94a24.826 24.826 0 0 1-15.2-19.372c-.497-4.126 1.679-5.16 4.619-3.832z" fill="#fff"/><path d="M167.851 154.531a6.177 6.177 0 0 1-2.651-11.662c10.483-5.415 28.575-6.778 42.085-3.169a6.177 6.177 0 0 1-3.189 11.935c-10.522-2.812-25.427-1.82-33.225 2.209a6.159 6.159 0 0 1-3.02.687z" fill="#0e1049"/><circle cx="100.052" cy="189.341" fill="#d1a7db" r="31.85"/><path d="M96.951 213.05a1.062 1.062 0 0 1-.137-.009 23.92 23.92 0 1 1 6.477-47.4 1 1 0 0 1-.271 1.983 21.918 21.918 0 1 0-5.935 43.433 1 1 0 0 1-.134 1.992z" fill="#403838"/><path d="m225.124 168.857 17.457 25.135a7.518 7.518 0 0 1-1.488 10.167l-12.742 10.158-15.969-22.671z" fill="#d1a7db"/></svg></g><g transform="translate(258.0 307.0) rotate(0.0 478.0 341.0) scale(0.9996308894309947 0.9988971121327918)"><svg width="956.353" height="682.753" viewBox="0 0 956.353 682.753"><path d="M160.78 327.593c-12.66 95.42-37.03 190.12-55.24 212.59C81.78 520.563 0 436.833 0 358.873a86.345 86.345 0 0 1 3.27-22.7.142.142 0 0 1 .02-.06c.27-1.02.57-2.05.88-3.08 22.48-73.98 129.35-161.1 160.8-177.4 7.56 43.067 4.35 107.68-4.19 171.96z" fill="#5dace2"/><path d="M160.78 327.593c-12.66 95.42-37.03 190.12-55.24 212.59C81.78 520.563 0 436.833 0 358.873a86.345 86.345 0 0 1 3.27-22.7c-5.831 50.969 75.62 63.687 111.357-22.2 14.524 3.036 35.643 7.37 46.153 13.62z" fill="#3591ba"/><path d="M468.425 169.709c-.056.766-.1 1.177-.1 1.177l-5.741-1.044-222.17-40.342c3.453-9.739 8.051-17.79 13.425-27.029A29.724 29.724 0 0 1 273.161 88.3c38.667-8.395 118.42-4.453 156.82 14.436a73.206 73.206 0 0 1 12.4 7.673c27.099 20.844 26.477 52.815 26.044 59.3z" fill="#5dace2"/><path d="M468.425 169.709c-1.81.033-3.764.089-5.841.133L240.414 129.5c3.453-9.739 8.051-17.79 13.425-27.029A29.724 29.724 0 0 1 273.161 88.3c-7.828 9.616-10.46 30.693 47.484 35.146C378.5 127.889 448.7 149 442.385 110.41c27.095 20.843 26.473 52.814 26.04 59.299z" fill="#3591ba"/><path d="M579.072 625.3c-76.54 72.2-367.03 76-471 13.39a23.138 23.138 0 0 1-10.6-24.97c.91-3.97 1.69-7.78 2.36-11.37a250.664 250.664 0 0 0 3.9-34.51c-23.342-24.012-29.62-49.09-29.62-70.63s10.17-58.92 30.47-79.72c-.73-4.72-1.41-10.87-1.98-18.23-2.25-29.33-1.75-79.589 4.23-131.59 3.251-28.277 9.911-53.265 18.6-72.67 8.045-17.968 23.55-42.63 58.36-55.06s91.73-23.24 135.22-23.24c78.71 0 176.34 27.31 209.85 45.16s36.33 55.49 36.72 89.21c.35 29.15-14.79 98.63-22.45 147.86-1.2 7.7-2.21 13.66-2.96 17.25 4.75 53.79 68.85 84.47 35.35 156.96.66 2.12 1.37 4.29 2.11 6.45.92 2.72 1.89 5.43 2.85 8.05 1.36 3.7 2.72 10.22 3.95 13.34a22.208 22.208 0 0 1-5.36 24.32z" fill="#f75c84"/><path d="M561.089 205.626c-17.023-21.67-44.8-19.349-73.11-4.583-45.862 23.921-83.739 80.348-84.782 163.826s34.452 130.938 100.182 95.795 57.71-255.038 57.71-255.038zm-410.684 385.18c22.756 5.56 57.922-1.067 77.012-21.154 10.649 27.652 45.867 43.609 77.011 46.308-35.013 1.207-112.761-2.724-154.023-25.154zm-22.67-191.443c-6.356 3.579-15.695 9.686-23.153 18.125-.73-4.72-1.41-10.87-1.98-18.23a77.116 77.116 0 0 1 24.232-3.561 1.956 1.956 0 0 1 .901 3.666z" fill="#cc125e"/><path d="M105.464 417.507a1 1 0 0 1-.737-1.676 95.211 95.211 0 0 1 22.551-17.358 1 1 0 0 1 .914 1.78 94.43 94.43 0 0 0-21.99 16.929 1 1 0 0 1-.738.325z" fill="#403838"/><g fill="#cc125e"><path d="M128.348 638.99a8.733 8.733 0 0 1-8.576-10.365l3.641-22.009a8.722 8.722 0 0 1 17.132 3.282l-3.645 22.009a8.726 8.726 0 0 1-8.552 7.083zm50.421 17.31a8.732 8.732 0 0 1-8.595-10.263l3.457-22.285a8.722 8.722 0 0 1 17.171 3.079l-3.458 22.285a8.725 8.725 0 0 1-8.575 7.184zm226.486 14.522h-.024a8.721 8.721 0 0 1-8.941-8.5l-.616-23.843a8.724 8.724 0 0 1 8.473-8.941h.025a8.722 8.722 0 0 1 8.941 8.5l.615 23.843a8.722 8.722 0 0 1-8.473 8.941zm-55.912 3.286h-.025a8.721 8.721 0 0 1-8.7-8.745l.057-23.851a8.722 8.722 0 0 1 8.722-8.7h.024a8.721 8.721 0 0 1 8.7 8.745l-.057 23.851a8.722 8.722 0 0 1-8.721 8.7zm-57.378-1.544h-.024a8.722 8.722 0 0 1-8.261-9.16l.95-23.821a8.722 8.722 0 0 1 9.135-8.262h.025a8.722 8.722 0 0 1 8.261 9.16L301.1 664.3a8.723 8.723 0 0 1-9.135 8.264zm-57.465-3.347h-.024a8.722 8.722 0 0 1-7.874-9.5l1.937-23.76a8.722 8.722 0 0 1 9.47-7.877h.024a8.723 8.723 0 0 1 7.874 9.5l-1.937 23.761a8.722 8.722 0 0 1-9.47 7.876zm223.913-7.605a8.722 8.722 0 0 1-8.938-8.09l-1.485-22.374a8.722 8.722 0 0 1 17.4-1.258l1.484 22.374a8.722 8.722 0 0 1-8.071 9.328c-.131.008-.261.016-.39.02zm52.142-12.548a8.722 8.722 0 0 1-9.065-7.506l-2.912-22.781a8.722 8.722 0 0 1 17.277-2.412l2.912 22.781a8.723 8.723 0 0 1-7.433 9.844q-.391.054-.779.074zm45.903-17.729a8.725 8.725 0 0 1-8.458-6.619l-3.9-18.7a8.722 8.722 0 0 1 16.928-4.21l3.9 18.7a8.73 8.73 0 0 1-8.47 10.829z"/></g><path d="M136.906 632.907a.908.908 0 0 1-.164-.014 1 1 0 0 1-.824-1.149l3.641-22.009a7.72 7.72 0 0 0-6.128-9.061 1 1 0 0 1 .377-1.965 9.723 9.723 0 0 1 7.72 11.378l-3.637 21.983a1 1 0 0 1-.985.837zm50.438 17.212a1 1 0 0 1-.989-1.153l3.458-22.285a7.722 7.722 0 1 0-15.2-2.749 1 1 0 1 1-1.969-.353 9.722 9.722 0 1 1 19.139 3.432l-3.455 22.261a1 1 0 0 1-.984.847zm208.33-10.636a1 1 0 0 1-1-.974 9.723 9.723 0 0 1 19.439-.5 1 1 0 0 1-.975 1.026h-.025a1 1 0 0 1-1-.975 7.722 7.722 0 0 0-15.439.394 1 1 0 0 1-.974 1.025zm-55.054 26.88a1 1 0 0 1-1-1l.057-23.851a9.722 9.722 0 1 1 19.444.052 1 1 0 0 1-1 1 1 1 0 0 1-1-1 7.722 7.722 0 1 0-15.444-.042l-.057 23.851a1 1 0 0 1-1 .99zm-48.727 7.198a9.723 9.723 0 0 1-9.212-10.21l.949-23.809a9.75 9.75 0 0 1 10.184-9.221 1.01 1.01 0 0 1 .963 1.023.99.99 0 0 1-.988.977 7.775 7.775 0 0 0-8.161 7.313l-.949 23.809a7.721 7.721 0 0 0 7.314 8.12zm-45.982-34.981h-.094a1 1 0 0 1-.9-1.089 7.721 7.721 0 0 0-15.376-1.435 1.014 1.014 0 0 1-1.089.9 1 1 0 0 1-.9-1.089 9.723 9.723 0 0 1 19.362 1.806 1 1 0 0 1-1.003.907zm203.563 15.941a1 1 0 0 1-1-.933l-1.484-22.373a9.722 9.722 0 0 1 19.393-1.4 1 1 0 0 1-.925 1.069 1.012 1.012 0 0 1-1.069-.924 7.722 7.722 0 1 0-15.4 1.113l1.485 22.379a1 1 0 0 1-.932 1.064zm60.631-4.446a9.664 9.664 0 0 1-9.605-8.375l-2.914-22.8a9.732 9.732 0 0 1 8.286-10.962 1 1 0 0 1 .278 1.981 7.73 7.73 0 0 0-6.581 8.715l2.913 22.792a7.686 7.686 0 0 0 8.023 6.635c.228-.012.459-.033.691-.065a1 1 0 1 1 .275 1.98q-.432.06-.863.083a7.06 7.06 0 0 1-.503.016zm46.352-17.74a9.7 9.7 0 0 1-9.427-7.378 1 1 0 0 1 1.941-.483 7.721 7.721 0 1 0 14.986-3.727l-3.912-18.737a1 1 0 0 1 1.955-.41l3.905 18.7a9.723 9.723 0 0 1-7.1 11.744 9.819 9.819 0 0 1-2.348.291z" fill="#b70455"/><path d="M302.021 616.967c-60.04 0-105.957-10.348-134.044-19.1-34.183-10.647-54.572-22.5-61.232-27.829a1 1 0 0 1 1.25-1.563c6.1 4.88 26.609 16.9 60.577 27.483 28.326 8.822 74.926 19.278 135.851 19a1 1 0 0 1 0 2c-.794.007-1.603.009-2.402.009z" fill="#403838"/><path d="M575.522 573.138c-7.978 9.427-46.325 22.05-83.8 27.818 34.735-19.565 81.3-63 87.562-81 3.13 16.435-3.762 53.182-3.762 53.182z" fill="#cc125e"/><path d="M956.332 143.658a31.842 31.842 0 0 1-1.16 8.52c-3.37 11.01-13.14 6.16-17.75 1.21-3.39-3.65-5.95-9.44-8.19-13.7.18.95.34 1.94.48 2.95 2.54 17.65-.37 44.09-11.96 61.91-17.27-7.15-93.62-18.96-93.62-18.96-5.55-19.41-10.65-55.82-12.01-64.56-2.14-13.69-1.16-28.83 6.14-40.58 8.37-13.47 24.8-38.73 30.75-47.97 4.33-6.72 11.01-11.13 18.02-14.39 10.12-4.7 29.99-13.21 42.51-17.08 13.76-4.26 17.85 5.63 10.37 17.44a87.666 87.666 0 0 1-5.88 8.03c-.05.06-.09.13-.15.19-.38.46-.76.92-1.15 1.37a.178.178 0 0 1-.07.08 223.643 223.643 0 0 1-16.75 17.61c17.46-1.01 21.75 14.69 21.58 25.17 13.29-5.43 21.26.96 26.36 12.27 5.44 12.04 12.948 39.032 12.48 60.49z" fill="#d1a7db"/><path d="M910.272 254.058q0 8.175-.21 16.31c-2.28 89.97-23.6 173.99-65.09 220.57a124.737 124.737 0 0 1-23.46 20.73c-13.36 27.92-63.53 103.11-148.05 103.11s-166.96-79.82-181.74-107.5c-15.03 16.49-52.64-1.72-69.02-67.33-4.85-19.4-7.84-42.96-7.84-70.98 0-131.44 84.77-173.22 120.25-173.22 14 0 28.4 10.39 37.65 19.98 22.43 23.23 78.24 98.61 106.24 146.28a.031.031 0 0 1 .01.02c.67-19.95 15.83-46.33 34.77-70.51 24.42-31.18 55.15-58.71 69.27-64.11 2.88-11.191 11.537-28.194 26.522-42.04a22 22 0 0 1 11.03-5.523c26.412-4.729 83.13 4.073 102.393 17.673a12.167 12.167 0 0 1 5.15 10.8c-1.032 14.811-7.957 33.003-17.875 45.74z" fill="#5dace2"/><path d="M491.722 507.278c-15.03 16.49-52.64-1.72-69.02-67.33 11.6 40.5 39.97 44.73 41.79-3.51 7.39 29.71 15.3 48.1 27.23 70.84zm353.25-16.34a124.737 124.737 0 0 1-23.46 20.73c9.58-21.06 9.19-46.49 6.74-56.86 13.38 11.82 16.92 24.18 16.72 36.13zm-151.69-96.5a192.408 192.408 0 0 0-14.27-32.41c.67-19.95 15.83-46.33 34.77-70.51.49-.23.98-.45 1.48-.67-13.239 19.63-30.11 60.46-21.98 103.59zm216.99-140.38q0 8.175-.21 16.31c-16.691-15.847-36.518-30.325-60.574-39.954 22.622 4.542 43.23 11.325 60.784 23.644z" fill="#3591ba"/><circle cx="905.032" cy="218.75" fill="#3591ba" r="7.969"/><path d="M490.653 506.583a1 1 0 0 1-.868-.5c-13.006-22.695-23.077-49.32-26.281-69.485a1 1 0 0 1 1.975-.314c3.169 19.94 13.147 46.305 26.04 68.805a1 1 0 0 1-.866 1.5z" fill="#403838"/><path d="M422.7 439.948c-4.85-19.4-7.84-42.96-7.84-70.98 0-131.44 84.77-173.22 120.25-173.22-71.66 19.182-118.778 122.18-112.41 244.2z" fill="#3591ba"/><path d="M693.281 395.438a1 1 0 0 1-.964-.736 107.505 107.505 0 0 0-13.57-31.073 1 1 0 0 1 1.668-1.106 109.524 109.524 0 0 1 13.831 31.652 1 1 0 0 1-.965 1.263zm216.067-140.96a.988.988 0 0 1-.561-.173c-19.379-13.159-36.489-18.365-59.493-22.91a1 1 0 0 1 .387-1.963c23.257 4.6 40.568 9.869 60.23 23.219a1 1 0 0 1-.563 1.827zM897.634 104.8a1 1 0 0 1-.933-1.358c4.294-11.179 13.241-29.3 20.289-33.414A1 1 0 1 1 918 71.76c-6.555 3.823-15.4 21.9-19.429 32.4a1 1 0 0 1-.937.64z" fill="#403838"/><path d="M929.712 142.638c-.21-.98-.37-1.97-.48-2.95.18.95.34 1.94.48 2.95z" fill="#3d768a"/><path d="M933.562 117.175c-.621 9.064-2.324 17.346-4.33 22.513a165.924 165.924 0 0 0-4.04-16.56c7.72-41.34 9.808-26.882 8.37-5.953zm-20.9-89.057a223.643 223.643 0 0 1-16.75 17.61s-11.61 1.34-25.11 30.35c-.27-9.92.39-29.8 10.96-36.84 9.91-6.6 23.62-3.63 30.9-11.12z" fill="#8c6fb5"/><path d="M870.8 77.078a1 1 0 0 1-.874-1.485 300.213 300.213 0 0 0 1.964-3.625c5.422-10.121 12.849-23.981 23.729-27.2a1 1 0 1 1 .569 1.918c-10.08 2.984-17.28 16.418-22.535 26.229-.7 1.3-1.356 2.528-1.977 3.649a1 1 0 0 1-.876.514zm30.781-63.651a10.47 10.47 0 0 1-8.025-4 1 1 0 1 1 1.523-1.294 8.337 8.337 0 0 0 7.636 3.21c3.857-.553 7.422-3.909 9.784-9.208a1 1 0 0 1 1.827.815c-2.648 5.941-6.776 9.723-11.326 10.376a10.157 10.157 0 0 1-1.419.101z" fill="#403838"/></svg></g><g transform="translate(767.0 340.0) rotate(0.0 38.0 37.0) scale(1.035577538868223 1.0350663701341392)"><svg width="73.389" height="71.493" viewBox="0 0 73.389 71.493"><ellipse cx="36.695" cy="35.746" fill="#4ca2bb" rx="40.11" ry="31.857" transform="matrix(.74654529 -.6653346 .6653346 .74654529 -14.483 33.474)"/><path d="m57.467 29.092-13.659-.224 3.421-11.145a2.969 2.969 0 0 0-2.793-3.818l-8.915-.157a2.97 2.97 0 0 0-2.9 2.144l-3.783 12.731-12.792-.209a2.969 2.969 0 0 0-2.873 2.054l-2.121 6.55a2.969 2.969 0 0 0 2.717 3.882l11.4.415L21.752 53.5a2.969 2.969 0 0 0 2.694 3.789l8.456.45a2.966 2.966 0 0 0 3-2.114l4.025-13.774 15.378.56a2.969 2.969 0 0 0 2.973-2.189l2-7.385a2.969 2.969 0 0 0-2.811-3.745z" fill="#ffe3c3"/></svg></g></svg>