<svg xmlns="http://www.w3.org/2000/svg" viewBox="0 0 3000 3000" width="3000" height="3000"><g transform="translate(256.0 294.0) rotate(0.0 1176.0 867.0) scale(2.001596511503223 2.000609182034668)"><svg width="1175.062" height="866.736" viewBox="0 0 1175.062 866.736"><path d="M645.068 0C358.191 0 0 102.109 0 448.955c0 380.882 323.881 253.624 440.851 317.672 513.786 281.328 734.211-97.246 734.211-314.43C1175.062 212.321 954.636 0 645.068 0z" fill="#fece2f"/></svg></g><g transform="translate(854.0 262.0) rotate(0.0 824.0 777.0) scale(1.9977331547334034 1.9977271675468322)"><svg width="824.935" height="777.884" viewBox="0 0 824.935 777.884"><g fill="#fff"><path d="m584.458 143.183 43.761 37.278 36.737-3.782-25.932-51.325zm222.648 136.262-37.278 43.761 3.782 36.738 51.325-25.933zm-301.129-60.298c1.621-1.081 41.6-20.53 41.6-20.53l17.829 31.875-59.428-11.345zM0 459.521c1.621-1.081 41.6-20.53 41.6-20.53l17.829 31.875zM488.584 88.28c1.621-.54 28.093-11.886 28.093-11.886l-23.771-25.932-39.979 24.312zm272.311 689.604c1.621-.54 28.093-11.886 28.093-11.886l-23.771-25.932-39.979 24.312zM29.714 248.145l27.959-14.587 32.82 9.725-30.389 24.312zm106.971-64.934 32.821-34.743 25.677 9.724-15.952 30.39zm31.605 111.126 39.502-2.431 6.691 29.174-35.252 10.94zm-51.054 247.979-6.078 31.605 51.288-3.647v-26.743zM449.09 571.49l-9.725 34.051 42.68-17.025zm220.162 109.557 28.627 20.846-1.303-45.933zM371.287 0l10.94 37.683 46.915-31.605zm-1.703 129.636 4.13 35.117 30.153-3.408-5.355-20.769zm379.155 75.329 32.821-34.013 21.881 36.444-40.115 23.096z"/></g></svg></g><g transform="translate(446.0 234.0) rotate(0.0 658.0 793.0) scale(2.0051225090238134 2.004124503391595)"><svg width="656.319" height="791.368" viewBox="0 0 656.319 791.368"><path d="m533.958 226.805-25.871 7.688c-28.744-80.591-68.425-132.496-115.765-160.616-.01-.01-.019-.01-.029-.019-56.566-33.578-124.068-33.213-196.933-7.217-43.573 15.54-79.995 37.009-107.106 64.994a191.954 191.954 0 0 0-14.982 17.356c-.029.038-.058.067-.077.106h-.01C29.439 206.432 19.791 287.071 58.26 394.936l-24.9 10.427C-40.359 238.991 19.013 76.713 178.639 19.772c163.864-58.449 307.104 31.56 355.319 207.033z" fill="#fece2f"/><path d="M187.476 22.593C248.305.895 306.286-.327 357.625 15.669 304.1-3.415 242.872-3.394 178.451 19.585 18.825 76.525-40.547 238.803 33.173 405.175l6.548-2.742C-30.121 238.085 29.69 78.877 187.476 22.593z" fill="#fff"/><path d="M33.362 407.365a1.999 1.999 0 0 1-1.829-1.19c-38.079-85.938-41.786-173.479-10.438-246.498 13.86-32.284 34.126-60.774 60.233-84.68 26.873-24.607 59.387-43.821 96.639-57.109C252.865-8.83 325.681-5.655 388.536 27.072c69.693 36.284 122.023 107.029 147.35 199.203a2 2 0 0 1-1.359 2.447l-25.87 7.688a2 2 0 0 1-2.453-1.245c-27.422-76.882-66.081-130.568-114.903-159.568-.021-.014-.044-.026-.065-.041-53.551-31.771-119.227-34.135-195.202-7.031-44.461 15.856-80.239 37.559-106.342 64.502a190.646 190.646 0 0 0-14.829 17.178l-.007.01a1.955 1.955 0 0 1-.183.231c-45.864 60.223-50.751 142.252-14.527 243.818a2 2 0 0 1-1.111 2.517l-24.9 10.428a2.023 2.023 0 0 1-.771.156zM276.665 3.956c-31.563 0-64.239 5.889-97.354 17.7-73.085 26.07-126.523 74.343-154.54 139.6C-5.916 232.735-2.486 318.427 34.4 402.76l21.344-8.938C19.706 291.648 25.036 208.908 71.597 147.884c.025-.034.053-.066.08-.099l.015-.02a194.747 194.747 0 0 1 15.13-17.525c26.53-27.386 62.823-49.419 107.868-65.483 77.167-27.53 143.993-25.048 198.625 7.382.022.013.045.026.066.041 49.246 29.267 88.252 83.048 115.951 159.857l22.174-6.59c-25.219-90.17-76.595-159.311-144.815-194.828-34.104-17.754-71.222-26.663-110.026-26.663zM74.989 149.983v.002-.002zm.005-.01-.004.007.004-.007z" fill="#1a1a1a"/><path d="M43.989 349.545a1.999 1.999 0 0 1-1.996-2.152c3.549-46.783 23.482-91.246 57.646-128.582 31.422-34.338 73.462-61.593 121.578-78.819 48.057-17.204 97.95-22.97 144.279-16.677 49.648 6.745 92.135 27.289 122.867 59.409a2 2 0 1 1-2.891 2.765c-58.816-61.476-162.014-77.856-262.908-41.731-80.062 28.663-168.493 97.29-176.584 203.938a2 2 0 0 1-1.992 1.849z" fill="#1a1a1a"/><path d="m113.954 551.074-64.13-3.613-33.217-93.127a41.594 41.594 0 0 1 .589-29.502l12.26-30.467c5.293-13.154 24.043-12.779 28.807.576z" fill="#fff"/><path d="M113.954 553.074c-.037 0-.075 0-.112-.003l-64.13-3.612a2 2 0 0 1-1.771-1.325l-33.218-93.127a43.559 43.559 0 0 1 .617-30.92l12.261-30.468c2.767-6.874 9.063-11.087 16.497-10.905 7.409.147 13.559 4.575 16.049 11.556l55.69 156.133a2 2 0 0 1-1.884 2.672zm-62.692-7.534 59.796 3.368L56.38 395.613c-2.292-6.427-7.889-8.812-12.361-8.9-4.474-.137-10.159 2.069-12.706 8.399L19.052 425.58a39.562 39.562 0 0 0-.561 28.083z" fill="#1a1a1a"/><path d="m563.774 390.628 47.367-43.383-33.217-93.127a41.594 41.594 0 0 0-19.127-22.469l-28.774-15.831c-12.423-6.835-26.703 5.322-21.94 18.676l55.691 156.133z" fill="#fff"/><path d="M563.773 392.628a2.003 2.003 0 0 1-1.883-1.329L506.2 235.166c-2.49-6.979-.531-14.3 5.112-19.104 5.643-4.805 13.181-5.569 19.675-1.996l28.774 15.83a43.557 43.557 0 0 1 20.047 23.55l33.217 93.126a1.995 1.995 0 0 1-.533 2.146l-47.367 43.383a1.997 1.997 0 0 1-1.351.525zm-41.179-176.78c-3.474 0-6.549 1.438-8.69 3.262-3.406 2.899-6.229 8.288-3.938 14.714l54.678 153.295 44.166-40.451-32.771-91.876a39.567 39.567 0 0 0-18.207-21.39l-28.774-15.83c-2.221-1.221-4.412-1.724-6.464-1.724zM90.654 390.705l30.734-10.963c35.667-12.722 74.954 5.906 87.676 41.574l51.23 143.625c12.723 35.667-5.905 74.953-41.573 87.676l-30.735 10.963z" fill="#1a1a1a"/><path d="M187.985 665.582a2.003 2.003 0 0 1-1.884-1.329L88.77 391.378a2 2 0 0 1 1.212-2.556l30.734-10.963c36.675-13.076 77.151 6.113 90.231 42.785l51.229 143.626c13.081 36.672-6.112 77.15-42.785 90.231l-30.735 10.963a2.003 2.003 0 0 1-.672.117zM93.21 391.918l95.987 269.107 28.852-10.291c34.595-12.341 52.701-50.525 40.361-85.12l-51.229-143.626c-12.339-34.596-50.526-52.699-85.12-40.361z" fill="#1a1a1a"/><path d="m186.692 683.061-1.509.538a22.667 22.667 0 0 1-4.786 1.144c-10.283 1.297-20.431-4.661-24.054-14.819L62.144 405.815c-3.489-9.783.183-20.383 8.294-26.053a22.197 22.197 0 0 1 5.372-2.777l1.509-.538c11.744-4.19 24.65 1.932 28.831 13.666l94.209 264.118c4.19 11.734-1.932 24.641-13.666 28.831z" fill="#fece2f"/><path d="m156.079 669.173-51.939-6.774a45.878 45.878 0 0 1-37.277-30.078L26.021 517.818a45.875 45.875 0 0 1 1.448-34.401l34.942-76.85 93.669 262.605z" fill="#fece2f"/><path d="M156.079 671.173a2.06 2.06 0 0 1-.259-.017l-51.938-6.773c-17.923-2.338-32.829-14.365-38.902-31.39L24.138 518.49c-4.199-11.773-3.663-24.522 1.511-35.9l34.941-76.85a1.984 1.984 0 0 1 1.904-1.17 2 2 0 0 1 1.8 1.326L157.963 668.5a2.002 2.002 0 0 1-1.884 2.672zm-93.893-259.28-32.897 72.353c-4.741 10.427-5.232 22.111-1.384 32.9l40.842 114.503c5.565 15.602 19.227 26.625 35.652 28.767l48.698 6.352zM577.655 524.59l-30.734 10.963c-35.667 12.722-74.954-5.906-87.677-41.574l-51.23-143.625c-12.722-35.667 5.906-74.953 41.574-87.676l30.734-10.963z" fill="#1a1a1a"/><path d="M523.936 541.544c-29.022.002-56.281-18.033-66.575-46.894l-51.23-143.625c-13.08-36.673 6.113-77.15 42.786-90.232l30.734-10.962a2.001 2.001 0 0 1 2.556 1.212l97.332 272.874a2 2 0 0 1-1.212 2.556l-30.734 10.963a70.322 70.322 0 0 1-23.656 4.108zm-44.825-287.273-28.851 10.29c-34.596 12.341-52.702 50.525-40.362 85.121l51.23 143.625c12.34 34.596 50.526 52.704 85.12 40.361l28.851-10.291z" fill="#1a1a1a"/><path d="m592.494 538.311-1.509.538a23.14 23.14 0 0 1-1.922.596c-11.186 2.912-22.949-3.162-26.909-14.262l-94.209-264.118c-3.969-11.148 1.355-23.353 11.945-28.129.567-.259 1.144-.49 1.73-.702l1.509-.538c11.734-4.19 24.641 1.932 28.831 13.666l94.209 264.118c4.18 11.734-1.932 24.65-13.675 28.831z" fill="#fece2f"/><path d="M180.398 684.742c-10.283 1.297-20.431-4.661-24.054-14.819l-94.2-264.108c-3.489-9.783.183-20.383 8.294-26.053-.596 1.999-.817 4.459-.557 7.506.663 7.957 5.631 14.829 10.629 21.047 5.007 6.227 10.388 12.589 12.176 20.374 2.056 8.976-1.009 18.519 1.009 27.505 2.105 9.427 9.37 16.664 14.646 24.746 7.525 11.551 11.109 25.16 14.569 38.508 5.228 20.143 10.456 40.286 15.674 60.42 1.442 5.564 2.922 11.196 5.814 16.145 2.595 4.43 6.247 8.198 8.582 12.762 5.295 10.35 3.431 24.054 11.302 32.607 2.643 2.864 6.227 4.921 8.111 8.332 2.575 4.68 1.24 10.418 1.221 15.761-.019 6.948 2.47 13.848 6.785 19.269zm408.665-145.297c-11.186 2.912-22.949-3.162-26.909-14.262l-94.209-264.118c-3.969-11.148 1.355-23.353 11.945-28.129-1.49 1.874-2.489 4.248-2.652 7.88-.384 8.572 5.872 16.001 11.379 21.863 5.113 5.449 10.677 10.86 13.281 17.875 2.249 6.064 2.056 12.705 2.21 19.163.606 26.159 7.467 52.154 19.845 75.2 10.523 19.576 25.294 38.085 27.235 60.227.913 10.408-.971 21.661 4.219 30.724 4.353 7.602 13.156 12.464 15.636 20.864 1.653 5.555.144 11.523.461 17.308.721 13.185 10.61 23.958 17.558 35.404z" fill="#fff"/><path d="M177.623 686.912c-10.096 0-19.577-6.273-23.158-16.313L60.258 406.485c-2.204-6.18-1.87-12.848.941-18.776s7.762-10.407 13.941-12.611l1.509-.538c6.182-2.205 12.85-1.867 18.776.941 5.929 2.811 10.407 7.763 12.611 13.942l94.207 264.113c4.55 12.757-2.126 26.837-14.883 31.388l-1.509.538a24.447 24.447 0 0 1-8.229 1.43zM84.916 377.121c-2.329 0-4.664.4-6.923 1.206l-1.509.538c-10.68 3.81-16.269 15.597-12.459 26.276l94.207 264.114a20.432 20.432 0 0 0 10.558 11.672 20.427 20.427 0 0 0 15.719.787l1.509-.538c10.679-3.81 16.269-15.597 12.459-26.276l-94.208-264.113a20.432 20.432 0 0 0-10.558-11.672 20.494 20.494 0 0 0-8.796-1.994zM583.39 542.175c-3.591 0-7.166-.798-10.508-2.382a24.403 24.403 0 0 1-12.611-13.942l-94.206-264.113c-4.55-12.757 2.126-26.838 14.883-31.388l1.509-.538c12.755-4.545 26.838 2.125 31.388 14.883l94.207 264.114c4.55 12.757-2.127 26.837-14.884 31.388l-1.509.538a24.582 24.582 0 0 1-8.269 1.44zm-92.701-309.792c-2.288 0-4.613.385-6.889 1.196l-1.509.538c-10.679 3.81-16.269 15.597-12.459 26.276l94.206 264.113a20.432 20.432 0 0 0 10.558 11.672 20.428 20.428 0 0 0 15.719.788l1.509-.538c10.68-3.81 16.27-15.597 12.46-26.276l-94.207-264.114c-2.998-8.403-10.937-13.655-19.388-13.655z" fill="#1a1a1a"/><path d="m641.823 470.607-21.267 22.574-14.656 15.55-93.671-262.609 75.69 37.384a45.874 45.874 0 0 1 22.892 25.727l40.843 114.496c5.785 16.232 1.989 34.347-9.831 46.879z" fill="#fece2f"/><path d="M605.9 510.731a2 2 0 0 1-1.884-1.328l-93.671-262.609a2 2 0 0 1 2.77-2.465l75.69 37.384c11.213 5.541 19.696 15.076 23.89 26.849l40.843 114.495c6.07 17.032 2.139 35.778-10.26 48.923l-35.923 38.124a2 2 0 0 1-1.455.628zm-90.128-260.629 90.914 254.879 33.681-35.745c11.362-12.047 14.966-29.227 9.402-44.836l-40.843-114.496c-3.843-10.789-11.618-19.527-21.894-24.605l-71.262-35.196z" fill="#1a1a1a"/><path d="m641.823 470.607-21.267 22.574-.279-.048 4.283-34.404c5.998 14.281 31.582-5.873 27.094-35.002 5.785 16.232 1.989 34.347-9.831 46.879z" fill="#1a1a1a"/><path d="M620.555 495.181c-.112 0-.226-.01-.339-.029l-.278-.048a2 2 0 0 1-1.646-2.218l4.283-34.403a1.998 1.998 0 0 1 1.712-1.734 1.996 1.996 0 0 1 2.116 1.207c1.262 3.002 3.516 4.071 6.695 3.17 8.711-2.46 19.499-18.133 16.578-37.093a2 2 0 0 1 3.86-.976c6.07 17.032 2.139 35.778-10.26 48.923l-21.267 22.573c-.382.405-.91.629-1.456.629zm5.389-31.381-2.976 23.902 17.398-18.467c6.704-7.108 10.707-16.004 11.72-25.309-3.585 11.208-11.178 19.149-17.901 21.048-3.185.9-6.041.453-8.242-1.175z" fill="#1a1a1a"/><path d="M629.259 480.3c-9.163 17.182-21.001 33.034-21.001 33.034l1.15 21.057c-19.657 48.081-110.78 121.273-183.847 154.903-3.036 1.393-6.612-.146-7.701-3.306-.929-2.682-2.128-6.12-3.466-9.939-2.419-6.876-5.309-14.985-7.978-22.166-.991-2.675.152-5.684 2.682-6.994 99.842-51.838 188.359-138.137 210.878-188.338.915-2.031 3.833-1.927 4.581.18l.901 2.53 4.145 11.617c.866 2.426.859 5.157-.347 7.423z" fill="#fece2f"/><path d="m343.887 788.389 2.662 2.979a45.749 45.749 0 0 1-2.662-2.979zM625.461 461.26c-1.31 2.717-2.876 5.358-4.401 7.804-42.82 68.784-52.406 63.184-68.112 80.206-7.264 7.874-12.199 18.111-21.119 24.051-4.367 2.911-9.44 4.595-13.973 7.243-12.116 7.084-5.448 7.513-63.399 49.786-25.749 18.776-27.419 10.723-37.774 16.288-4.221 2.26-7.222 7.908-4.561 11.887.79 1.178 1.982 2.065 2.731 3.278 1.774 2.89-.097 7.978-.458 14.243-2.419-6.876-5.309-14.985-7.978-22.166-.991-2.675.152-5.684 2.682-6.994 99.842-51.838 188.359-138.137 210.878-188.338.915-2.031 3.833-1.927 4.581.18l.901 2.53z" fill="#fff"/><g fill="#1a1a1a"><path d="M423.21 691.805a7.647 7.647 0 0 1-2.999-.612 7.69 7.69 0 0 1-4.241-4.55c-2.467-7.13-7.23-20.775-11.423-32.067-1.345-3.622.216-7.69 3.63-9.464 46.07-23.917 93.661-57.471 134.007-94.48 37.034-33.972 64.724-67.832 75.97-92.897a4.48 4.48 0 0 1 4.261-2.644 4.448 4.448 0 0 1 4.032 2.967l5.047 14.149c1.107 3.104.936 6.397-.472 9.036-8.14 15.266-18.498 29.652-20.728 32.698l1.111 20.34c.017.296-.033.592-.146.866-20.431 49.973-114.448 123.556-184.861 155.961a7.616 7.616 0 0 1-3.188.697zm199.021-232.719a.44.44 0 0 0-.427.284c-22.319 49.746-109.636 136.262-211.783 189.292-1.626.844-2.367 2.788-1.724 4.521 4.206 11.329 8.98 25.007 11.452 32.151a3.636 3.636 0 0 0 2.031 2.18 3.59 3.59 0 0 0 2.946-.04c69.54-32.004 162.22-104.298 182.66-153.428l-1.126-20.604a1.999 1.999 0 0 1 .395-1.306c.117-.158 11.857-15.936 20.837-32.776.878-1.646.963-3.764.233-5.81l-5.047-14.149a.436.436 0 0 0-.423-.314h-.025z"/><path d="M490.072 654.352a2.003 2.003 0 0 1-1.884-1.329l-15.807-44.313a2 2 0 0 1 3.768-1.344l15.807 44.313a2 2 0 0 1-1.884 2.673zm34.246-83.334a2 2 0 0 1-.36-3.967c.232-.043 23.247-4.281 41.642-8.48 14.299-14.149 32.998-35.29 41.036-46.41a2 2 0 0 1 3.242 2.344c-8.221 11.371-27.396 33.038-41.873 47.313a2.002 2.002 0 0 1-.957.525c-18.57 4.261-42.131 8.6-42.367 8.643a2.05 2.05 0 0 1-.363.033zM73.186 149.097c.029-.038.058-.067.087-.106-.029.038-.058.067-.077.106z"/><path d="M73.196 151.097a2.01 2.01 0 0 1-1.792-1.102 2 2 0 0 1 .178-2.092c.026-.036.098-.125.127-.159.661-.886 1.895-1.041 2.777-.385.882.655 1.048 1.924.402 2.81s0 .002-.002.003 0 .002-.002.003l-.002.002s0 .002-.002.003v.002l-.003.003-.021.027a2 2 0 0 1-1.66.885zm319.098-77.238c-56.566-33.578-124.068-33.213-196.933-7.217-43.573 15.54-79.995 37.009-107.106 64.994 25.477-28.398 50.098-50.319 63.091-59.122 15.54-10.523 29.455-6.391 40.988-13.916 11.532-7.515.644-16.876 16.184-19.883 15.54-3.008 36.538 9.043 54.509.336C287.84 27.019 369.383 57.82 392.294 73.859z"/><path d="M88.255 133.635a2 2 0 0 1-1.488-3.336c25.99-28.972 50.6-50.73 63.458-59.442 8.801-5.959 17.169-7.42 24.553-8.709 6.193-1.081 11.543-2.015 16.464-5.226 4.483-2.922 4.991-5.986 5.528-9.23.702-4.233 1.496-9.03 11.368-10.941 6.744-1.306 14.178.022 22.047 1.427 10.797 1.928 21.962 3.922 31.97-.927 26.227-12.721 108.486 19.008 131.287 34.97a2.001 2.001 0 0 1-2.168 3.359c-53.561-31.791-119.247-34.164-195.24-7.054-44.461 15.856-80.239 37.559-106.342 64.502a1.997 1.997 0 0 1-1.437.608zm125.871-93.416c-1.815 0-3.563.136-5.229.459-7.14 1.382-7.532 3.747-8.182 7.667-.594 3.585-1.332 8.046-7.29 11.928-5.608 3.659-11.608 4.707-17.961 5.815-7.329 1.279-14.907 2.603-22.997 8.081-7.863 5.327-20.222 15.646-34.636 29.587 21.689-15.438 47.401-28.494 76.857-38.999 50.335-17.957 96.27-23.146 137.288-15.582a332.12 332.12 0 0 0-4.198-1.338c-30.304-9.432-53.588-11.978-63.88-6.987-11.178 5.417-23.525 3.212-34.418 1.265-5.417-.967-10.617-1.896-15.355-1.896zm399.76 399.945c-8.015 0-14.535-6.521-14.535-14.535s6.521-14.535 14.535-14.535 14.535 6.521 14.535 14.535-6.521 14.535-14.535 14.535zm0-25.07c-5.81 0-10.535 4.726-10.535 10.535s4.726 10.535 10.535 10.535 10.535-4.726 10.535-10.535-4.726-10.535-10.535-10.535zM82.399 527.91a2 2 0 0 1-1.871-1.295L68.996 496.03a2 2 0 1 1 3.742-1.412l11.532 30.585a2 2 0 0 1-1.871 2.707zm-10.04 4.114a2 2 0 0 1-1.871-1.295l-11.532-30.586a2 2 0 1 1 3.742-1.412l11.532 30.586a2 2 0 0 1-1.871 2.707zm-10.04 4.113a2 2 0 0 1-1.871-1.295l-11.533-30.586a2 2 0 1 1 3.742-1.412L64.19 533.43a2 2 0 0 1-1.871 2.707z"/></g></svg></g><g transform="translate(1700.0 758.0) rotate(0.0 557.0 578.0) scale(1.9983389032097199 1.99888643350936)"><svg width="557.463" height="578.322" viewBox="0 0 557.463 578.322"><path d="M161.206 78.613c-7.22 11.54-19.6 18.5-32.32 18.18-11.43-.29-21.6-6.47-27.2-16.53-3.9-6.99-1.39-15.82 5.61-19.72 6.99-3.89 15.82-1.39 19.72 5.61.64 1.16 1.37 1.63 2.6 1.66 1.88.04 4.85-1.12 7-4.57 2.61-4.17.2-12.41-6.81-16.79-10.64-6.66-35.68-11.38-54.3 18.39-18.99 30.36 2.69 61.8 35.4 102.9 11.25 14.14 21.88 27.48 28.59 40.29.37.7.72 1.4 1.06 2.1 8.15 16.6 8.45 31.12.91 43.17-1.88 3-4.1 5.66-6.57 7.93-8.13 7.44-19.02 10.71-29.78 8.49-3.92-.81-7.53-2.27-10.73-4.27-7.53-4.71-12.74-12.38-14.13-21.44-1.21-7.91 4.23-15.31 12.14-16.52 7.92-1.21 15.31 4.23 16.52 12.14.18 1.18 1.5 1.58 2.06 1.7 1.25.25 3.68.16 5.91-3.4 5.64-9.03-13.38-32.93-28.66-52.13-14.6-18.35-31.15-39.14-40.64-61.12-11.85-27.43-10.72-52.73 3.34-75.22 15.79-25.25 35.48-33.49 49.21-35.96 15.64-2.81 32.05.24 45.05 8.37 20.07 12.55 27.4 38.54 16.02 56.74z" fill="#fece2f"/><path d="M111.849 272.414c-2.371 0-4.759-.241-7.138-.731-4.099-.848-7.929-2.373-11.386-4.533a32.785 32.785 0 0 1-15.047-22.832c-1.376-8.992 4.822-17.426 13.814-18.801 8.967-1.371 17.335 4.759 18.777 13.673.093.055.272.134.524.188 1.632.341 2.966-1.182 3.795-2.505 4.891-7.829-15.221-33.101-28.528-49.823-14.708-18.484-31.326-39.371-40.912-61.572-12.121-28.06-10.95-53.99 3.479-77.074 16.176-25.865 36.42-34.326 50.554-36.87 16.119-2.893 33.054.255 46.466 8.644 20.987 13.123 28.614 40.369 16.654 59.496-7.589 12.132-20.6 19.472-34.066 19.118-12.146-.308-22.948-6.871-28.896-17.556a16.377 16.377 0 0 1-1.46-12.539 16.399 16.399 0 0 1 7.843-9.901c7.946-4.423 18.015-1.561 22.441 6.384.342.621.461.623.901.635 1.064-.018 3.437-.713 5.254-3.629.949-1.517.957-4.031.023-6.567-1.11-3.014-3.311-5.666-6.196-7.469-2.385-1.493-11.069-6.208-22.758-4.191-11.2 1.93-20.886 9.313-28.787 21.945-18.296 29.253 3.077 60.146 35.27 100.595l.149.187c11.251 14.142 21.879 27.499 28.647 40.421.378.714.737 1.434 1.087 2.153 8.468 17.247 8.74 32.426.807 45.105a40.586 40.586 0 0 1-6.911 8.342c-6.924 6.335-15.539 9.708-24.4 9.708zm-17.257-43.088c-.625 0-1.258.047-1.895.145a12.419 12.419 0 0 0-8.181 4.954 12.41 12.41 0 0 0-2.285 9.286 28.79 28.79 0 0 0 13.214 20.047c3.054 1.908 6.443 3.256 10.075 4.007 10.001 2.066 20.21-.856 28.024-8.007a36.641 36.641 0 0 0 6.226-7.516c7.149-11.428 6.81-25.299-1.011-41.228a68.8 68.8 0 0 0-1.033-2.047c-6.596-12.591-17.108-25.804-28.238-39.793l-.148-.187C76.116 127.242 54.12 95.259 73.81 63.781c10.625-16.988 22.994-22.301 31.498-23.767 13.082-2.256 22.871 3.06 25.559 4.742 3.632 2.27 6.413 5.636 7.828 9.478 1.394 3.783 1.254 7.453-.384 10.069-2.582 4.144-6.171 5.569-8.738 5.509-1.954-.049-3.321-.904-4.308-2.694-3.349-6.011-10.978-8.177-16.997-4.828a12.415 12.415 0 0 0-5.941 7.501 12.4 12.4 0 0 0 1.105 9.497c5.254 9.438 14.787 15.232 25.504 15.505 11.99.266 23.73-6.305 30.573-17.241 10.811-17.288 3.765-42.01-15.384-53.984-12.58-7.867-28.488-10.816-43.637-8.097-13.338 2.4-32.471 10.43-47.868 35.052-13.691 21.902-14.768 46.586-3.199 73.367 9.375 21.713 25.817 42.378 40.324 60.611 16.535 20.776 35.226 44.262 28.836 54.491-2.965 4.732-6.58 4.581-7.998 4.301-2.038-.437-3.391-1.69-3.646-3.36-.944-6.173-6.282-10.607-12.346-10.607z" fill="#1a1a1a"/><path d="M542.246 356.783c-14.06 22.48-36.33 34.57-66.17 35.92-23.92 1.08-49.86-4.7-72.74-9.8-23.96-5.34-53.77-11.99-59.42-2.97-2.22 3.56-1.25 5.79-.47 6.8.35.46 1.28 1.47 2.43 1.11 7.64-2.37 15.77 1.9 18.14 9.55 2.38 7.64-1.89 15.77-9.54 18.14-8.75 2.72-17.93 1.39-25.45-3.32-3.2-2-6.1-4.61-8.54-7.78-6.97-9.05-8.68-20.82-5-31.75.93-2.78 2.22-5.51 3.85-8.12 7.86-12.56 21.84-18.63 41.57-18.04 2.88.09 5.85.31 8.9.63 12.24 1.3 25.72 4.3 39.84 7.45 51.27 11.43 89.03 17.17 108.02-13.19 18.62-29.77 3.42-50.23-7.23-56.88-7-4.39-15.47-2.94-18.07 1.22-2.16 3.45-1.91 6.62-1.05 8.3.57 1.09 1.3 1.54 2.63 1.61 7.99.44 14.12 7.29 13.67 15.28-.44 7.99-7.28 14.12-15.27 13.67-11.5-.63-21.51-7.07-26.77-17.22-5.85-11.3-5.01-25.48 2.2-37.01 11.39-18.21 37.97-22.99 58.04-10.43 12.99 8.12 22.92 21.55 27.23 36.84 3.79 13.43 5 34.74-10.8 59.99z" fill="#fece2f"/><g fill="#1a1a1a"><path d="M345.367 418.918c-6.085 0-12.119-1.7-17.402-5.01a34.459 34.459 0 0 1-9.063-8.255c-7.244-9.407-9.229-21.971-5.311-33.608a40.304 40.304 0 0 1 4.049-8.541c8.265-13.207 22.848-19.6 43.326-18.979 2.83.088 5.789.298 9.049.64 12.421 1.319 25.851 4.315 40.067 7.487 50.46 11.248 87.592 16.954 105.889-12.299 7.901-12.633 10.302-24.574 7.136-35.492-3.305-11.396-11.344-17.142-13.729-18.631-3.34-2.094-7.423-2.859-10.931-2.058-2.029.468-3.627 1.43-4.384 2.641-1.827 2.918-1.467 5.352-.966 6.33.199.38.254.486.955.523a16.381 16.381 0 0 1 11.387 5.475 16.381 16.381 0 0 1 4.175 11.915 16.388 16.388 0 0 1-5.475 11.385c-3.283 2.936-7.505 4.411-11.905 4.17-12.212-.669-22.843-7.509-28.433-18.297-6.175-11.928-5.301-26.868 2.28-38.991 5.812-9.292 15.438-15.564 27.106-17.661 11.599-2.087 23.562.259 33.689 6.597 13.412 8.384 23.651 22.231 28.094 37.992 3.9 13.823 5.151 35.732-11.029 61.594-14.432 23.075-37.234 35.476-67.774 36.857-24.206 1.092-50.265-4.719-73.267-9.846-20.89-4.655-52.393-11.675-57.289-3.86-1.172 1.879-1.38 3.483-.582 4.516.143.188.289.319.382.383a16.382 16.382 0 0 1 12.442 1.197 16.372 16.372 0 0 1 8.073 9.711c1.31 4.204.901 8.669-1.15 12.57s-5.499 6.768-9.708 8.071a32.68 32.68 0 0 1-9.701 1.475zm12.958-70.434c-17.632 0-30.172 5.76-37.294 17.14a36.25 36.25 0 0 0-3.648 7.693c-3.493 10.374-1.74 21.549 4.688 29.896 2.257 2.934 4.953 5.391 8.015 7.304a28.708 28.708 0 0 0 23.797 3.106 12.4 12.4 0 0 0 7.354-6.112 12.4 12.4 0 0 0 .871-9.522 12.405 12.405 0 0 0-6.116-7.357 12.419 12.419 0 0 0-9.522-.878c-1.642.516-3.364-.165-4.614-1.81-.874-1.13-2.607-4.303.364-9.068 6.399-10.217 35.676-3.689 61.504 2.065 22.81 5.084 48.612 10.846 72.264 9.765 29.148-1.318 50.871-13.088 64.564-34.982 15.406-24.621 14.252-45.341 10.57-58.387-4.176-14.815-13.785-27.823-26.365-35.687-9.286-5.812-20.241-7.961-30.861-6.052-10.543 1.896-19.217 7.522-24.423 15.846-6.834 10.93-7.646 24.353-2.119 35.031 4.932 9.516 14.316 15.551 25.103 16.142a12.41 12.41 0 0 0 9.018-3.157 12.412 12.412 0 0 0 4.146-8.626 12.405 12.405 0 0 0-3.162-9.026 12.406 12.406 0 0 0-8.621-4.146c-2.027-.107-3.393-.959-4.292-2.681-1.16-2.265-1.467-6.146 1.127-10.288 1.334-2.135 3.777-3.704 6.879-4.417 4.517-1.043 9.732-.079 13.949 2.564 2.687 1.678 11.749 8.149 15.449 20.907 2.404 8.29 3.04 21.738-7.587 38.728-19.689 31.478-58.075 25.69-110.15 14.082-14.103-3.146-27.424-6.119-39.616-7.413-3.159-.332-6.022-.535-8.751-.62a85.773 85.773 0 0 0-2.519-.038zm-13.046 37.449h-.002z"/><path d="M369.806 347.153c-6.96 6.61-16.15 12.76-26.85 17.56-9.41 4.22-18.83 6.86-27.47 7.97.93-2.78 2.22-5.51 3.85-8.12 7.86-12.56 21.84-18.63 41.57-18.04 2.88.09 5.85.31 8.9.63z"/><path d="M315.486 374.683a2.002 2.002 0 0 1-1.897-2.633 40.278 40.278 0 0 1 4.05-8.546c8.265-13.207 22.848-19.6 43.326-18.979 2.83.088 5.789.298 9.049.64a2.001 2.001 0 0 1 1.168 3.44c-7.361 6.991-16.839 13.193-27.408 17.935-9.254 4.15-18.948 6.962-28.033 8.129a1.83 1.83 0 0 1-.255.017zm42.839-26.199c-17.632 0-30.172 5.76-37.294 17.14a37.31 37.31 0 0 0-2.433 4.569c7.708-1.324 15.776-3.824 23.539-7.306 8.596-3.855 16.426-8.702 22.895-14.149a103.756 103.756 0 0 0-4.188-.216 85.773 85.773 0 0 0-2.519-.038zm-216.859-95.181c-1.88 3-4.1 5.66-6.57 7.93-1.96-10.48-1.68-23.28 1.32-36.62 1.15-5.1 2.61-9.95 4.34-14.48 8.15 16.6 8.45 31.12.91 43.17z"/><path d="M134.896 263.233a2 2 0 0 1-1.966-1.633c-2.074-11.088-1.6-24.38 1.334-37.426 1.16-5.143 2.647-10.106 4.423-14.755a1.999 1.999 0 0 1 3.663-.169c8.472 17.255 8.744 32.434.811 45.113a40.57 40.57 0 0 1-6.91 8.341 1.996 1.996 0 0 1-1.354.527zm5.889-47.74a107.234 107.234 0 0 0-2.618 9.561c-2.479 11.024-3.136 22.198-1.91 31.923a37.268 37.268 0 0 0 3.515-4.734c6.47-10.344 6.806-22.689 1.014-36.749z"/></g><path d="M207.082 550.993c-24.173-23.245-42.462-45.199-50.266-73.059l-46.176-28.883c-28.467 5.174-56.21-1.665-87.689-13.23-19.801-7.274-29.558 7.976-11.221 31.694 17.172 22.211 46.424 41.942 80.08 62.994s64.197 38.721 91.683 44.443c29.35 6.11 38.794-9.336 23.588-23.958z" fill="#fece2f"/><path d="M195.643 578.317c-3.8 0-8.015-.463-12.557-1.408-28.856-6.007-61.438-25.379-92.337-44.706-30.898-19.326-62.573-40.146-80.602-63.465-9.931-12.846-12.801-24.689-7.676-31.684 3.936-5.371 11.851-6.535 21.169-3.11 27.32 10.037 56.724 18.576 86.642 13.139a2 2 0 0 1 1.418.272l46.176 28.883c.423.264.731.676.865 1.156 8.2 29.273 28.747 51.982 49.728 72.157 7.155 6.881 9.572 14.506 6.465 20.395-2.891 5.478-9.792 8.371-19.291 8.371zM13.78 435.996c-3.589 0-6.419 1.154-8.081 3.423-3.096 4.226-2.722 13.504 7.613 26.872 17.625 22.797 48.967 43.387 79.559 62.521s62.82 38.309 91.03 44.181c16.543 3.444 25.051-.28 27.495-4.913 2.229-4.223.098-10.071-5.7-15.646-21.211-20.397-42-43.382-50.594-73.214l-44.87-28.066c-30.587 5.33-60.348-3.308-87.97-13.456-3.104-1.14-5.978-1.702-8.482-1.702z" fill="#1a1a1a"/><path d="M516.498 195.384c-26.15 83.06-112.49 135.82-154.59 150.88-69.36 24.8-108.4 26.79-145.28 45.81-34.34 17.72-59.37 53.67-62.83 110.14l-63.67-39.83c49.26-27.81 70.64-66.06 71.54-104.68.97-41.49-14.32-77.46-22.37-150.68-4.89-44.45 4.78-145.17 68.02-205.02 11.8 2.31 23.8 5.55 35.67 9.4 19.86 6.42 39.37 14.54 57.07 22.84 43.47 20.36 76.03 41.78 76.03 41.78s91.29 54.23 140.41 119.36z" fill="#fece2f"/><path d="M186.378 317.755c-38.95-116.36-13.53-228.48 56.61-306.35 19.86 6.42 39.37 14.54 57.07 22.84-84.49 53.27-133.55 157.22-113.68 283.51z" fill="#fff"/><path d="M153.799 504.211c-.041 0-.083 0-.124-.004a2 2 0 0 1-1.874-2.118c1.676-27.377 8.444-51.099 20.118-70.506 10.815-17.981 25.55-31.87 43.794-41.28 20.12-10.379 40.588-15.665 66.501-22.358 22.127-5.715 47.205-12.193 79.017-23.567 33.183-11.865 125.095-61.622 153.043-148.608-48.457-63.703-138.303-117.49-139.208-118.028-.958-.628-88.636-57.879-167.118-73.577-65.989 63.194-70.512 167.612-66.661 202.641 3.691 33.583 8.841 58.968 13.384 81.365 5.32 26.229 9.522 46.945 8.994 69.578-.479 20.522-6.52 39.849-17.955 57.441-12.343 18.988-30.712 35.455-54.596 48.94a1.998 1.998 0 0 1-2.725-.758 1.999 1.999 0 0 1 .758-2.725c57.05-32.214 69.838-73.788 70.52-102.993.517-22.184-3.646-42.707-8.916-68.689-4.561-22.48-9.729-47.96-13.44-81.723-2.372-21.577-1.382-58.507 8.512-97.444 11.455-45.092 32.245-82.87 60.121-109.252a2.006 2.006 0 0 1 1.759-.51c79.521 15.559 168.594 73.727 169.483 74.313.839.496 92.119 55.137 140.904 119.833.39.516.505 1.188.312 1.805-11.523 36.609-36.396 71.833-71.928 101.864-30.683 25.934-63.456 42.982-83.896 50.291-31.982 11.437-57.155 17.938-79.364 23.675-25.67 6.63-45.946 11.867-65.667 22.04-25.963 13.392-57.751 43.082-61.754 108.476a1.998 1.998 0 0 1-1.994 1.878z" fill="#1a1a1a"/><circle cx="306.254" cy="187.667" fill="#fff" r="68.478"/><path d="M306.139 258.127a70.048 70.048 0 0 1-37.26-10.708c-32.947-20.608-42.985-64.179-22.377-97.126 20.606-32.946 64.181-42.988 97.126-22.377 15.96 9.982 27.078 25.583 31.304 43.928 4.227 18.345 1.057 37.237-8.927 53.197-13.356 21.354-36.362 33.086-59.866 33.086zm.223-136.92c-22.173 0-43.868 11.063-56.469 31.207-9.416 15.055-12.406 32.875-8.42 50.179s14.473 32.019 29.527 41.436c15.055 9.415 32.874 12.404 50.179 8.42 17.304-3.987 32.019-14.474 41.436-29.528 9.416-15.055 12.406-32.875 8.42-50.179-3.986-17.303-14.473-32.019-29.527-41.435a66.097 66.097 0 0 0-35.146-10.1z" fill="#1a1a1a"/><path d="M253.62 162.31c20.056-32.063 62.306-41.798 94.37-21.743a68.197 68.197 0 0 1 21.181 20.855c-5.261-12.707-14.371-23.963-26.92-31.812-32.064-20.056-74.314-10.321-94.37 21.742-14.553 23.268-13.408 51.893.562 73.515-8.182-19.762-7.029-43.043 5.177-62.558z" fill="#1a1a1a"/><path d="M248.444 226.868a1.998 1.998 0 0 1-1.681-.915c-14.785-22.884-15.013-52.582-.578-75.66 20.607-32.949 64.179-42.988 97.126-22.377 12.493 7.813 22.074 19.136 27.707 32.742a2 2 0 0 1-3.527 1.849c-5.313-8.223-12.23-15.034-20.562-20.245-15.056-9.417-32.877-12.407-50.179-8.42-17.304 3.987-32.019 14.474-41.436 29.528-11.366 18.173-13.245 40.876-5.024 60.732a2 2 0 0 1-1.847 2.765zm57.62-105.703c-5.008 0-10.052.569-15.053 1.722-17.304 3.986-32.019 14.473-41.436 29.527-9.62 15.382-12.336 33.88-8.181 51.027-1-14.657 2.572-29.47 10.529-42.191 9.982-15.96 25.584-27.078 43.929-31.305 18.347-4.229 37.237-1.057 53.197 8.927a71.565 71.565 0 0 1 6.685 4.731 66.415 66.415 0 0 0-14.545-12.297c-10.704-6.694-22.806-10.142-35.126-10.142zM153.799 502.214c-.196 8.622 1.983 16.609 7.532 22.158 9.13 9.13 22.229.916 14.906-7.592-14.123-16.408-19.42-38.847-19.42-38.847s-2.757 12.803-3.018 24.281z" fill="#1a1a1a"/><path d="M170.269 530.377c-3.405 0-7.143-1.38-10.353-4.59-5.536-5.537-8.344-13.704-8.117-23.618.262-11.535 2.947-24.126 3.062-24.656a2 2 0 0 1 1.935-1.579h.021a2 2 0 0 1 1.946 1.54c.052.22 5.364 22.173 18.99 38.003 4.013 4.662 2.896 9.451.011 12.129-1.889 1.752-4.569 2.771-7.494 2.771zm-12.952-43.862c-.691 4.52-1.396 10.31-1.52 15.746-.14 6.133.953 14.702 6.947 20.698 4.695 4.695 10.018 3.83 12.298 1.715 1.89-1.754 1.772-4.155-.321-6.588-9.099-10.569-14.573-23.407-17.404-31.571z" fill="#1a1a1a"/></svg></g><g transform="translate(704.0 1540.0) rotate(0.0 759.0 632.0) scale(1.9984596852228518 1.998358942577219)"><svg width="759.585" height="632.519" viewBox="0 0 759.585 632.519"><path d="m727.777 198.562-.276-40.169a23.477 23.477 0 0 0-10.049-19.097l-73.783-51.449a23.48 23.48 0 0 0-16.976-3.95l-89.309 13.646 190.393 101.02z" fill="#1a1a1a"/><path d="M727.778 200.562c-.321 0-.644-.077-.938-.233L536.447 99.309a2.002 2.002 0 0 1 .636-3.745l89.309-13.646a25.364 25.364 0 0 1 18.421 4.286l73.783 51.449a25.513 25.513 0 0 1 10.904 20.725l.277 40.169a2 2 0 0 1-2 2.014zM543.659 98.607l182.096 96.617-.254-36.817a21.509 21.509 0 0 0-9.192-17.471l-73.782-51.449a21.386 21.386 0 0 0-15.53-3.613L543.66 98.607zM210.687 52.29l21.277-34.072a23.477 23.477 0 0 1 18.563-11.003l89.801-5.176a23.479 23.479 0 0 1 16.53 5.527l68.927 58.407z" fill="#1a1a1a"/><path d="M425.786 67.973c-.043 0-.085 0-.128-.004L210.56 54.286a2.001 2.001 0 0 1-1.569-3.056l21.277-34.072a25.515 25.515 0 0 1 20.145-11.94l89.8-5.176a25.382 25.382 0 0 1 17.938 5.997l68.927 58.408a1.998 1.998 0 0 1-1.292 3.525zM214.159 50.507l205.725 13.086-64.319-54.502a21.413 21.413 0 0 0-15.121-5.055l-89.801 5.176a21.508 21.508 0 0 0-16.982 10.065l-19.502 31.229z" fill="#1a1a1a"/><path d="M742.551 566.147c-15.01 43.53-42.81 65.91-71.76 64.29-22.55-1.26-45.81-17.08-64.28-48.81-6.1-10.32-13.28-24.46-18.49-35.28-33.8-69-17.4-55.51-39.91-66.99-62.66-33.16-243.93-89.28-346.65-94.77-24.74 18.39-61 42.97-89.26 58.13-44.73 23.66-81.9 16.29-99.4-11.94-.01-.02-.03-.04-.04-.06-10.7-17.31-14.03-42.44-7.21-73.05 17.6-78.92 127.53-231.57 184.17-298.91 7.09-8.42 16.94-14.07 27.81-15.82 38.17-6.16 80.18-6.3 123.31-2.01 186.22 18.51 393.27 119.5 401.4 174.13 1.53 10.26 3.07 21.91 4.55 34.61 11.1 95.09 19 249.04-4.24 316.48z" fill="#fece2f"/><path d="M340.841 40.927c-15.4 5.81-30.58 12.38-46.89 13.75-25.55 2.15-53.85-8.2-75.51 5.52-16.15 10.22-22.53 30.48-35.49 44.52-6.42 6.96-14.51 12.43-19.79 20.29-13.11 19.53-5.15 47.27-16.38 67.94-4.93 9.07-13.12 15.89-19.27 24.18-19.8 26.72-15.71 63.32-19.14 96.4-4.34 41.73-6.12 67.72-24.25 100.36-15.63 28.15-57.05 37.55-71.32 16.89-.01-.02-.03-.04-.04-.06-10.7-17.31-14.03-42.44-7.21-73.05 17.6-78.92 127.53-231.57 184.17-298.91 7.09-8.42 16.94-14.07 27.81-15.82 38.17-6.16 80.18-6.3 123.31-2.01z" fill="#fff"/><path d="M661.601 628.707c-40.75-9.13-62.95-55.2-90.32-119.08-1.78-4.13-3.08-7.68-4.59-10.94-4.87-10.49-11.86-17.94-43.9-31.71-.01-.01-.02-.02-.03-.02-7.39-3.18-16.11-6.69-26.44-10.66-59.31-22.53-189.77-60.42-258.15-68.55-19.31-2.48-34.63-5.07-48.44 5.35-66.99 48.09-109.34 73.54-148 60.27 20.09 5.65 40.38-3.27 60.28-19.23 48.06-38.56 93.9-118.25 129.36-133.44 98.43-42.18 286.83 11.02 348.66 98.62 19.83 28.09 19.84 104.12 34.28 161.4 8.49 33.62 21.94 60.78 47.29 67.99z" fill="#fece2f"/><path d="M614.311 560.717c-19.74-30.29-31.66-90.13-33.2-117.09-.81-14.22-.43-29.35-7.64-41.55-9.34-15.78-28.32-21.89-43.77-31.47-26.29-16.31-22.63-24.58-78.72-43.14-49.81-16.5-155.81-53.17-195.14-20.12-12.91 10.85-7.92 8.24-24.98 12.43-28.77 7.05-32.68 31.52-41.75 42.61-7.28 8.91-18.36 13.49-27.36 20.58-19.59 15.43-34.44 51.5-59.74 51.17 48.06-38.56 93.9-118.25 129.36-133.44 98.43-42.18 286.83 11.02 348.66 98.62 19.83 28.09 19.84 104.12 34.28 161.4z" fill="#fff"/><path d="M673.709 632.518c-25.434 0-50.299-17.892-68.927-49.885-7.351-12.437-15.432-28.913-18.563-35.419-12.943-26.416-18.48-40.608-21.788-49.088q-4.133-10.592-11.737-14.273a271.257 271.257 0 0 1-5.491-2.715c-63.001-33.343-242.35-88.807-345.129-94.515-22.961 17.028-59.777 42.219-88.927 57.856-34.435 18.213-66.607 19.173-88.281 2.638-22.43-17.113-30.182-49.876-21.267-89.885 9.845-44.144 47.699-108.358 77.722-154.454 38.833-59.624 80.668-114.156 106.87-145.309 7.434-8.829 17.741-14.691 29.023-16.508 160.173-25.856 390.153 54.531 484.519 123.554 25.702 18.8 40.394 36.175 42.487 50.247 6.002 40.247 13.074 108.605 14.92 179.755 1.428 54.989.036 129.517-14.698 172.28-13.395 38.841-37.248 62.701-65.445 65.461a54.13 54.13 0 0 1-5.287.259zM201.461 382.587c.035 0 .071 0 .106.003 103.146 5.515 284.051 61.43 347.479 94.999a271.913 271.913 0 0 0 5.39 2.663c8.765 4.244 9.149 4.704 13.721 16.42 3.285 8.422 8.784 22.516 21.659 48.795 3.116 6.472 11.137 22.826 18.416 35.143 19.101 32.807 44.743 50.172 70.374 47.669 26.573-2.602 49.191-25.485 62.054-62.784 27.06-78.54 11.058-273.338-.397-350.143-1.933-12.991-16.072-29.453-40.892-47.607-93.802-68.612-322.372-148.534-481.52-122.834-10.337 1.664-19.783 7.039-26.6 15.134-26.126 31.062-67.845 85.442-106.579 144.916-29.842 45.82-67.454 109.582-77.169 153.142-8.562 38.422-1.349 69.707 19.789 85.835 20.38 15.547 50.986 14.46 83.974-2.988 29.196-15.663 66.193-41.017 89.002-57.968a2.002 2.002 0 0 1 1.193-.395z" fill="#1a1a1a"/><path d="M661.603 630.707c-.146 0-.292-.016-.439-.049-41.279-9.249-64.054-55.672-91.721-120.243-.766-1.778-1.445-3.454-2.091-5.045-.84-2.069-1.632-4.022-2.475-5.843-4.172-8.986-9.69-16.45-42.876-30.713a2.277 2.277 0 0 1-.141-.067c-7.242-3.115-15.833-6.577-26.257-10.583-59.045-22.43-188.783-60.241-257.669-68.431l-2.701-.35c-17.759-2.31-31.785-4.131-44.297 5.31-33.872 24.315-61.269 42.682-85.008 53.372-25.318 11.401-45.922 13.69-64.847 7.193a2.001 2.001 0 0 1 1.19-3.817c41.061 11.542 84.103-40.986 122.077-87.328 23.95-29.228 46.572-56.834 66.234-65.256 46.646-19.987 117.443-19.778 189.386.557 71.964 20.344 132.411 57.259 161.695 98.749 12.338 17.478 17.146 52.845 22.237 90.288 8.072 59.37 17.221 126.66 58.245 138.332a2 2 0 0 1-.545 3.924zM523.657 465.172c31.532 13.559 39.589 21.342 44.85 32.673.884 1.909 1.694 3.907 2.552 6.021.636 1.566 1.304 3.215 2.061 4.969 20.706 48.327 38.569 86.297 63.317 105.567-23.077-26.719-30.117-78.49-36.497-125.412-5.022-36.945-9.768-71.842-21.541-88.521-61.126-86.602-248.806-139.687-346.238-97.936-18.764 8.037-41.084 35.276-64.716 64.114-30.311 36.989-63.791 77.841-97.789 88.021 29.541-2.75 64.59-24.203 118.911-63.198 13.777-10.397 29.259-8.385 47.183-6.055l2.678.347c69.165 8.223 199.366 46.16 258.605 68.663 10.533 4.048 19.206 7.545 26.521 10.693l-.002.003c.036.015.071.031.106.049z" fill="#1a1a1a"/><circle cx="320.254" cy="302.476" fill="#1a1a1a" r="43.963"/><path d="M320.322 348.46c-4.2 0-8.425-.581-12.578-1.756-24.388-6.899-38.615-32.353-31.717-56.738 6.897-24.389 32.35-38.613 56.738-31.718 24.388 6.899 38.615 32.353 31.717 56.738-3.342 11.813-11.084 21.619-21.801 27.609-6.949 3.885-14.611 5.864-22.359 5.864zm-.052-87.951c-18.306 0-35.172 12.083-40.394 30.545-6.299 22.265 6.69 45.503 28.955 51.801a41.865 41.865 0 0 0 11.407 1.589c18.306.002 35.172-12.083 40.394-30.545 6.299-22.265-6.69-45.503-28.955-51.801a41.865 41.865 0 0 0-11.407-1.589z" fill="#1a1a1a"/><circle cx="526.075" cy="360.698" fill="#1a1a1a" r="43.963"/><path d="M526.143 406.682c-4.2 0-8.425-.581-12.578-1.756-24.387-6.899-38.615-32.352-31.718-56.738 3.343-11.814 11.085-21.62 21.801-27.61s23.126-7.448 34.938-4.107c11.814 3.342 21.619 11.084 27.61 21.801 5.99 10.717 7.449 23.124 4.107 34.938s-11.084 21.619-21.801 27.609c-6.949 3.885-14.611 5.864-22.359 5.864zm-.131-87.966c-7.075 0-14.067 1.806-20.412 5.353-9.784 5.47-16.853 14.422-19.903 25.207-6.298 22.265 6.692 45.503 28.956 51.801a41.865 41.865 0 0 0 11.407 1.589c18.306.002 35.172-12.083 40.394-30.545 3.052-10.786 1.72-22.114-3.75-31.898-5.469-9.783-14.421-16.852-25.206-19.902a42.15 42.15 0 0 0-11.485-1.604z" fill="#1a1a1a"/><circle cx="312.417" cy="287.613" fill="#fece2f" r="43.963"/><path d="M312.4 333.581c-4.131 0-8.327-.563-12.493-1.74-24.387-6.899-38.615-32.353-31.718-56.739 6.899-24.388 32.357-38.612 56.738-31.717 24.388 6.898 38.615 32.351 31.718 56.738-5.721 20.221-24.197 33.458-44.245 33.458zm.031-87.937c-18.303 0-35.17 12.084-40.393 30.545-6.298 22.266 6.692 45.504 28.956 51.802 22.269 6.305 45.503-6.692 51.801-28.956 6.298-22.266-6.691-45.504-28.956-51.801a41.869 41.869 0 0 0-11.408-1.59z" fill="#1a1a1a"/><circle cx="518.238" cy="345.834" fill="#fece2f" r="43.963"/><path d="M518.307 391.818a46.17 46.17 0 0 1-12.58-1.756c-11.814-3.342-21.619-11.084-27.609-21.801s-7.449-23.124-4.107-34.938 11.084-21.619 21.801-27.609c10.716-5.991 23.122-7.45 34.938-4.108 24.387 6.899 38.615 32.352 31.718 56.738-3.343 11.814-11.085 21.62-21.801 27.61-6.949 3.885-14.61 5.863-22.358 5.863zm-.054-87.951c-18.306 0-35.172 12.083-40.394 30.545-3.052 10.786-1.72 22.114 3.749 31.898 5.47 9.783 14.421 16.852 25.206 19.902 10.785 3.052 22.114 1.72 31.898-3.749 9.784-5.47 16.853-14.422 19.903-25.207 6.298-22.265-6.692-45.503-28.956-51.801a41.865 41.865 0 0 0-11.407-1.589z" fill="#1a1a1a"/><circle cx="469.342" cy="125.036" fill="#fff" r="30.39"/><path d="M469.391 157.44a32.54 32.54 0 0 1-8.865-1.237c-17.185-4.861-27.211-22.798-22.351-39.982 4.862-17.185 22.801-27.205 39.983-22.351 17.186 4.861 27.211 22.798 22.351 39.982-2.355 8.325-7.812 15.234-15.363 19.456-4.896 2.737-10.295 4.132-15.755 4.132zm-.038-60.796c-12.384 0-23.796 8.175-27.328 20.664-4.261 15.063 4.527 30.784 19.59 35.045 7.301 2.065 14.962 1.164 21.58-2.536s11.4-9.757 13.465-17.053c4.261-15.063-4.526-30.784-19.589-35.045a28.288 28.288 0 0 0-7.718-1.075z" fill="#1a1a1a"/><path d="M444.795 124.59c4.568-16.15 21.364-25.539 37.514-20.97a30.243 30.243 0 0 1 15.132 9.861c-3.428-8.322-10.495-15.048-19.827-17.687-16.15-4.569-32.946 4.82-37.514 20.97-2.825 9.986-.308 20.216 5.839 27.652a30.244 30.244 0 0 1-1.143-19.826z" fill="#1a1a1a"/><path d="M445.939 146.416c-.58 0-1.15-.252-1.543-.726a32.422 32.422 0 0 1-6.222-29.471c4.861-17.185 22.802-27.205 39.983-22.351 9.615 2.72 17.317 9.591 21.133 18.851a2.002 2.002 0 0 1-.82 2.477 2.006 2.006 0 0 1-2.571-.44 28.204 28.204 0 0 0-14.134-9.211c-15.061-4.265-30.783 4.527-35.045 19.589-1.748 6.18-1.379 12.584 1.067 18.521a2.002 2.002 0 0 1-1.848 2.762zm23.413-49.772c-12.384 0-23.796 8.175-27.328 20.664a28.354 28.354 0 0 0-.354 14.046 32.633 32.633 0 0 1 1.201-7.308c4.862-17.185 22.798-27.209 39.982-22.351a32.559 32.559 0 0 1 5.171 1.947 28.298 28.298 0 0 0-10.954-5.924 28.288 28.288 0 0 0-7.718-1.075z" fill="#1a1a1a"/><circle cx="257.463" cy="142.953" fill="#fece2f" r="61.856"/><g fill="#1a1a1a"><path d="M257.558 206.837a64.191 64.191 0 0 1-17.476-2.439c-33.881-9.583-53.647-44.944-44.064-78.825 9.584-33.882 44.95-53.647 78.826-44.064 33.881 9.585 53.648 44.945 44.064 78.825-4.644 16.413-15.399 30.035-30.288 38.357-9.653 5.396-20.298 8.146-31.063 8.146zm-.184-123.767c-10.091 0-20.066 2.577-29.117 7.636-13.956 7.802-24.038 20.57-28.39 35.954-4.352 15.385-2.452 31.543 5.349 45.499 7.802 13.955 20.57 24.037 35.954 28.389 15.385 4.353 31.542 2.452 45.499-5.349 13.955-7.802 24.038-20.57 28.39-35.954 4.353-15.385 2.452-31.543-5.349-45.498-7.801-13.956-20.57-24.038-35.954-28.39a60.13 60.13 0 0 0-16.382-2.287z"/><circle cx="601.365" cy="250.185" r="22.829"/><path d="M601.402 275.025c-2.269 0-4.552-.313-6.796-.948-6.381-1.806-11.678-5.987-14.914-11.776a24.676 24.676 0 0 1-2.219-18.873c1.806-6.382 5.987-11.679 11.776-14.915a24.686 24.686 0 0 1 18.873-2.219c6.382 1.806 11.679 5.987 14.915 11.776s4.024 12.492 2.219 18.874c-1.806 6.381-5.987 11.678-11.776 14.914a24.688 24.688 0 0 1-12.078 3.167zm-.029-45.671c-9.086 0-17.458 5.998-20.05 15.161-3.126 11.052 3.321 22.586 14.372 25.712a20.692 20.692 0 0 0 15.833-1.86 20.692 20.692 0 0 0 9.879-12.512c1.515-5.354.854-10.977-1.86-15.833s-7.158-8.365-12.512-9.879a20.79 20.79 0 0 0-5.662-.789z"/><circle cx="661.504" cy="219.195" r="22.829"/><path d="M661.541 244.035c-2.27 0-4.552-.313-6.795-.948-6.382-1.806-11.679-5.987-14.915-11.776a24.676 24.676 0 0 1-2.219-18.873c1.806-6.382 5.987-11.679 11.776-14.915s12.489-4.025 18.874-2.219c6.381 1.806 11.678 5.987 14.914 11.776a24.676 24.676 0 0 1 2.219 18.873c-1.806 6.382-5.987 11.679-11.776 14.915a24.7 24.7 0 0 1-12.078 3.167zm-.068-45.679c-3.512 0-6.982.897-10.132 2.657a20.692 20.692 0 0 0-9.879 12.512c-3.126 11.052 3.321 22.586 14.372 25.712 11.06 3.125 22.586-3.323 25.712-14.372 1.515-5.354.854-10.977-1.861-15.833s-7.158-8.365-12.511-9.879a20.914 20.914 0 0 0-5.701-.797z"/><circle cx="632.727" cy="307.058" r="22.829"/><path d="M632.764 331.898c-2.27 0-4.552-.313-6.795-.948-6.383-1.806-11.68-5.987-14.915-11.776a24.672 24.672 0 0 1-2.22-18.873c3.729-13.173 17.471-20.859 30.651-17.134 6.381 1.806 11.678 5.987 14.914 11.776a24.676 24.676 0 0 1 2.219 18.873c-1.806 6.382-5.987 11.679-11.776 14.915a24.7 24.7 0 0 1-12.078 3.167zm-.03-45.671c-9.085 0-17.457 5.998-20.05 15.162-1.515 5.353-.854 10.976 1.861 15.832s7.158 8.365 12.512 9.879c11.061 3.124 22.586-3.321 25.712-14.372 3.126-11.052-3.321-22.586-14.372-25.712a20.792 20.792 0 0 0-5.663-.789z"/><circle cx="692.866" cy="276.068" r="22.829"/><path d="M692.856 300.9c-2.231 0-4.498-.303-6.748-.939-13.174-3.727-20.86-17.476-17.134-30.649 1.806-6.383 5.987-11.68 11.776-14.915 5.789-3.236 12.492-4.025 18.873-2.22 13.174 3.728 20.86 17.478 17.135 30.65-3.091 10.923-13.072 18.073-23.902 18.073zm-.021-45.67c-3.512 0-6.983.896-10.133 2.657a20.692 20.692 0 0 0-9.879 12.512c-3.126 11.052 3.321 22.586 14.372 25.712 11.056 3.128 22.587-3.323 25.713-14.372 3.126-11.052-3.322-22.587-14.374-25.713a20.927 20.927 0 0 0-5.699-.796z"/></g><circle cx="598.061" cy="244.402" fill="#fff" r="22.829"/><path d="M598.052 269.234c-2.232 0-4.498-.303-6.749-.939-6.383-1.806-11.68-5.987-14.915-11.776a24.672 24.672 0 0 1-2.22-18.873c3.728-13.174 17.479-20.86 30.65-17.135 13.174 3.728 20.859 17.478 17.134 30.65-3.09 10.923-13.071 18.073-23.9 18.073zm.017-45.663c-9.086 0-17.458 5.998-20.051 15.163-1.515 5.353-.854 10.976 1.861 15.832s7.158 8.365 12.512 9.879c11.061 3.126 22.586-3.322 25.712-14.372 3.126-11.052-3.321-22.587-14.373-25.713a20.772 20.772 0 0 0-5.661-.789z" fill="#1a1a1a"/><circle cx="658.2" cy="213.413" fill="#fff" r="22.829"/><path d="M658.19 238.244c-2.231 0-4.498-.303-6.748-.939-13.174-3.728-20.859-17.478-17.134-30.65 3.727-13.176 17.478-20.859 30.649-17.134 6.383 1.806 11.68 5.987 14.915 11.776a24.672 24.672 0 0 1 2.22 18.873c-3.091 10.924-13.072 18.074-23.902 18.074zm.018-45.663c-9.086 0-17.458 5.998-20.05 15.161-3.126 11.052 3.321 22.587 14.373 25.713 11.051 3.129 22.585-3.322 25.712-14.373 1.515-5.354.854-10.977-1.861-15.833s-7.158-8.365-12.512-9.879a20.79 20.79 0 0 0-5.662-.789z" fill="#1a1a1a"/><circle cx="629.422" cy="301.275" fill="#fff" r="22.829"/><path d="M629.459 326.116c-2.27 0-4.552-.313-6.795-.948-13.174-3.728-20.859-17.478-17.134-30.65 1.806-6.382 5.987-11.679 11.776-14.915 5.789-3.235 12.493-4.024 18.873-2.219 6.382 1.806 11.679 5.987 14.915 11.776a24.676 24.676 0 0 1 2.219 18.873c-1.806 6.383-5.987 11.68-11.776 14.915a24.69 24.69 0 0 1-12.078 3.168zm-.029-45.672c-9.086 0-17.458 5.998-20.05 15.161-3.126 11.052 3.321 22.587 14.373 25.713a20.698 20.698 0 0 0 15.832-1.861 20.692 20.692 0 0 0 9.879-12.512c3.126-11.052-3.321-22.586-14.372-25.712a20.79 20.79 0 0 0-5.662-.789z" fill="#1a1a1a"/><circle cx="689.562" cy="270.286" fill="#fff" r="22.829"/><path d="M689.599 295.125c-2.269 0-4.552-.313-6.796-.948-6.381-1.806-11.678-5.987-14.914-11.776s-4.024-12.492-2.219-18.874c1.806-6.381 5.987-11.678 11.776-14.914 5.789-3.235 12.492-4.025 18.873-2.219 6.382 1.806 11.679 5.987 14.915 11.776a24.676 24.676 0 0 1 2.219 18.873c-1.806 6.382-5.987 11.679-11.776 14.915a24.688 24.688 0 0 1-12.078 3.167zm-.029-45.671c-9.086 0-17.458 5.998-20.05 15.161-1.515 5.354-.854 10.977 1.86 15.833s7.158 8.365 12.512 9.879a20.682 20.682 0 0 0 15.833-1.86 20.692 20.692 0 0 0 9.879-12.512c3.126-11.052-3.321-22.586-14.372-25.712a20.79 20.79 0 0 0-5.662-.789z" fill="#1a1a1a"/><rect fill="#1a1a1a" height="19.449" rx="9.391" transform="matrix(.96224175 .27219628 -.27219628 .96224175 66.73 -99.276)" width="50.244" x="366.085" y="181.165"/><path d="M406.247 206.885c-1.023 0-2.063-.139-3.095-.431l-30.273-8.563a11.326 11.326 0 0 1-6.844-5.403 11.323 11.323 0 0 1-1.018-8.66l.182-.642c1.709-6.043 8.02-9.569 14.062-7.86l30.274 8.564c6.043 1.709 9.569 8.018 7.86 14.062l-.182.643c-1.418 5.011-5.998 8.291-10.967 8.291zm-2.007-4.28c3.921 1.107 8.015-1.179 9.124-5.101l.182-.642c1.109-3.922-1.179-8.015-5.1-9.123l-30.274-8.564c-3.916-1.112-8.015 1.18-9.123 5.1l-.182.643c-1.11 3.921 1.178 8.015 5.101 9.124z" fill="#1a1a1a"/><rect fill="#1a1a1a" height="19.449" rx="9.391" transform="matrix(.96224175 .27219628 -.27219628 .96224175 80.073 -129.685)" width="50.244" x="482.363" y="214.058"/><path d="M522.549 239.782c-1.042 0-2.089-.145-3.118-.436l-30.273-8.563a11.323 11.323 0 0 1-6.844-5.403 11.32 11.32 0 0 1-1.018-8.659l.182-.642a11.323 11.323 0 0 1 5.403-6.843 11.327 11.327 0 0 1 8.659-1.018l30.272 8.563a11.326 11.326 0 0 1 6.844 5.403 11.32 11.32 0 0 1 1.018 8.659l-.182.642a11.322 11.322 0 0 1-5.402 6.843 11.35 11.35 0 0 1-5.541 1.453zm-30.107-27.994c-3.224 0-6.194 2.129-7.114 5.381l-.182.642a7.336 7.336 0 0 0 .66 5.618 7.34 7.34 0 0 0 4.44 3.505l30.272 8.563a7.34 7.34 0 0 0 5.618-.66 7.338 7.338 0 0 0 3.505-4.439l.182-.643a7.333 7.333 0 0 0-.66-5.617 7.338 7.338 0 0 0-4.44-3.506l-30.272-8.563a7.4 7.4 0 0 0-2.01-.28z" fill="#1a1a1a"/><rect fill="#fece2f" height="19.449" rx="9.391" transform="matrix(.96224175 .27219628 -.27219628 .96224175 65.17 -99.013)" width="50.244" x="364.354" y="175.674"/><path d="M404.539 201.399c-1.042 0-2.089-.145-3.118-.436l-30.273-8.563c-6.044-1.711-9.57-8.019-7.861-14.062l.182-.643a11.327 11.327 0 0 1 5.403-6.843 11.321 11.321 0 0 1 8.659-1.018l30.272 8.563a11.326 11.326 0 0 1 6.844 5.403 11.32 11.32 0 0 1 1.018 8.659l-.181.639a11.325 11.325 0 0 1-5.403 6.846 11.35 11.35 0 0 1-5.541 1.453zm-30.121-27.997a7.344 7.344 0 0 0-3.595.943 7.338 7.338 0 0 0-3.506 4.44l-.182.642c-1.109 3.921 1.179 8.014 5.101 9.123l30.272 8.563c3.919 1.107 8.015-1.18 9.124-5.101l.181-.639a7.34 7.34 0 0 0-.66-5.62 7.338 7.338 0 0 0-4.44-3.506l-30.272-8.563a7.427 7.427 0 0 0-2.023-.283z" fill="#1a1a1a"/><rect fill="#fece2f" height="19.449" rx="9.391" transform="matrix(.96224175 .27219628 -.27219628 .96224175 78.513 -129.421)" width="50.244" x="480.632" y="208.567"/><path d="M520.795 234.286c-1.023 0-2.063-.139-3.095-.431l-30.273-8.563a11.326 11.326 0 0 1-6.844-5.403 11.323 11.323 0 0 1-1.018-8.66l.181-.639c1.71-6.045 8.017-9.574 14.063-7.863l30.274 8.564c6.043 1.709 9.569 8.018 7.86 14.062l-.182.643c-1.418 5.011-5.998 8.291-10.967 8.291zm-2.007-4.28c3.923 1.108 8.015-1.179 9.124-5.101l.182-.642c1.109-3.922-1.179-8.015-5.1-9.123l-30.274-8.564c-3.919-1.11-8.015 1.179-9.124 5.101l-.181.639c-1.11 3.924 1.178 8.018 5.101 9.127zm-209.16-90.064-32.369-9.157 9.157-32.369c1.712-6.053-1.807-12.348-7.86-14.061l-10.042-2.841c-6.053-1.712-12.349 1.807-14.061 7.86l-9.156 32.369-32.369-9.156c-6.053-1.712-12.348 1.807-14.061 7.86l-2.841 10.042c-1.712 6.053 1.807 12.349 7.86 14.061l32.369 9.156-9.157 32.369c-1.712 6.053 1.807 12.349 7.86 14.061L245 202.977c6.053 1.712 12.349-1.807 14.061-7.86l9.156-32.369 32.369 9.156c6.053 1.712 12.349-1.807 14.061-7.86l2.841-10.042c1.712-6.053-1.807-12.348-7.86-14.061z" fill="#1a1a1a"/><path d="M248.094 205.409c-1.203 0-2.425-.164-3.639-.507l-10.042-2.841c-7.104-2.011-11.25-9.426-9.241-16.53l8.613-30.445-30.444-8.611c-3.442-.974-6.299-3.229-8.044-6.352s-2.17-6.736-1.197-10.178l2.841-10.042a13.304 13.304 0 0 1 6.351-8.044 13.325 13.325 0 0 1 10.179-1.197l30.445 8.612 8.611-30.444c2.011-7.104 9.425-11.25 16.53-9.241l10.042 2.841c7.105 2.011 11.25 9.426 9.24 16.53l-8.612 30.445 30.444 8.611c3.442.974 6.299 3.229 8.044 6.352s2.17 6.736 1.197 10.178l-2.841 10.042c-.974 3.442-3.229 6.299-6.352 8.044s-6.74 2.169-10.178 1.197l-30.445-8.612-8.611 30.444c-1.667 5.891-7.051 9.747-12.892 9.748zm-38.282-91.257a9.336 9.336 0 0 0-4.568 1.198 9.329 9.329 0 0 0-4.453 5.641l-2.841 10.042c-.683 2.414-.385 4.949.839 7.139s3.228 3.771 5.641 4.453l32.369 9.156a2.003 2.003 0 0 1 1.381 2.469l-9.157 32.369c-1.409 4.982 1.498 10.184 6.48 11.593l10.041 2.841c4.983 1.412 10.183-1.498 11.593-6.48l9.156-32.368a2.01 2.01 0 0 1 2.469-1.381l32.369 9.156a9.326 9.326 0 0 0 7.139-.839 9.329 9.329 0 0 0 4.453-5.641l2.841-10.042c.683-2.414.385-4.949-.839-7.139s-3.228-3.771-5.641-4.453l-32.369-9.156a2 2 0 0 1-1.381-2.469l9.156-32.37c1.41-4.982-1.496-10.183-6.479-11.592l-10.041-2.841c-4.985-1.413-10.183 1.497-11.593 6.48l-9.156 32.368a2.007 2.007 0 0 1-2.469 1.381l-32.369-9.156a9.438 9.438 0 0 0-2.57-.359z" fill="#1a1a1a"/><path d="m307.596 135.093-32.369-9.157 9.157-32.369c1.712-6.053-1.807-12.348-7.86-14.061l-10.042-2.841c-6.053-1.712-12.349 1.807-14.061 7.86l-9.156 32.369-32.369-9.156c-6.053-1.712-12.348 1.807-14.061 7.86l-2.841 10.042c-1.712 6.053 1.807 12.349 7.86 14.061l32.369 9.156-9.157 32.369c-1.712 6.053 1.807 12.349 7.86 14.061l10.042 2.841c6.053 1.712 12.349-1.807 14.061-7.86l9.156-32.369 32.369 9.156c6.053 1.712 12.349-1.807 14.061-7.86l2.841-10.042c1.712-6.053-1.807-12.348-7.86-14.061z" fill="#fff"/><path d="M246.089 200.565c-1.225 0-2.456-.17-3.666-.512l-10.041-2.841a13.304 13.304 0 0 1-8.044-6.351 13.3 13.3 0 0 1-1.197-10.18l8.612-30.444-30.444-8.611c-7.104-2.011-11.25-9.426-9.241-16.53l2.841-10.042c2.011-7.104 9.429-11.246 16.529-9.24l30.445 8.612 8.612-30.445a13.305 13.305 0 0 1 6.351-8.043 13.317 13.317 0 0 1 10.179-1.197l10.042 2.841c3.442.974 6.299 3.229 8.044 6.352s2.17 6.736 1.197 10.178l-8.613 30.445 30.445 8.612c3.442.974 6.299 3.229 8.044 6.351s2.17 6.737 1.196 10.18l-2.84 10.041c-2.011 7.104-9.428 11.247-16.53 9.241l-30.445-8.612-8.611 30.444a13.305 13.305 0 0 1-6.352 8.044 13.321 13.321 0 0 1-6.513 1.708zm-38.292-91.257c-4.096 0-7.87 2.704-9.039 6.836l-2.841 10.041c-1.409 4.981 1.498 10.183 6.48 11.592l32.368 9.156a2 2 0 0 1 1.381 2.469l-9.156 32.369a9.321 9.321 0 0 0 .839 7.139 9.329 9.329 0 0 0 5.641 4.453l10.042 2.841a9.321 9.321 0 0 0 7.139-.839 9.327 9.327 0 0 0 4.453-5.64l9.156-32.369a2.007 2.007 0 0 1 2.469-1.381l32.369 9.156c4.985 1.414 10.183-1.497 11.593-6.48l2.84-10.041a9.321 9.321 0 0 0-.839-7.139 9.327 9.327 0 0 0-5.64-4.453l-32.37-9.157a2.003 2.003 0 0 1-1.381-2.469l9.157-32.37c.683-2.413.385-4.948-.839-7.138s-3.228-3.771-5.641-4.453l-10.042-2.841c-4.985-1.412-10.184 1.498-11.592 6.479l-9.157 32.37a2.007 2.007 0 0 1-2.469 1.38l-32.369-9.156a9.364 9.364 0 0 0-2.553-.355zm53.494 281.759c-.923-.154-1.838-.299-2.755-.447a469.92 469.92 0 0 0-10.745-1.613c-1.44-.21-2.87-.41-4.29-.59l-2.79-.36c-.85-.11-1.7-.21-2.54-.31-.78-.1-1.55-.19-2.32-.28-1.32-.15-2.64-.3-3.96-.44-1.21-.14-2.43-.26-3.64-.39-.68-.07-1.37-.14-2.06-.2-3.17-.31-6.35-.6-9.55-.85-.07-.01-.15-.01-.22-.01-9.44-.7-18.84 1.95-26.56 7.43-.04.03-.09.06-.13.09 26.98-25.32 46.55-30.18 57.44-27.99 15.2 3.06-1.69 23.01 13.54 25.85.19.04.38.07.58.1z" fill="#1a1a1a"/><path d="M189.707 395.131a2.005 2.005 0 0 1-1.525-.715c-.693-.813-.598-2.047.181-2.777 31.997-30.029 52.063-29.929 59.203-28.493 9.327 1.878 8.768 9.526 8.359 15.111-.463 6.336-.444 9.69 5.152 10.734.199.041.352.063.513.088a1.998 1.998 0 0 1 1.701 1.978 2.01 2.01 0 0 1-2.328 1.982c-.734-.122-1.464-.239-2.193-.355l-.551-.089a464.912 464.912 0 0 0-10.699-1.607 223.925 223.925 0 0 0-4.27-.587l-2.795-.361c-.755-.098-1.509-.188-2.255-.275l-.265-.031c-.793-.103-1.554-.191-2.316-.28-1.31-.149-2.625-.298-3.94-.438-.804-.092-1.594-.175-2.383-.257l-1.259-.133c-.661-.068-1.342-.137-2.021-.196a484.867 484.867 0 0 0-9.532-.848c-.015 0-.03-.003-.046-.004-.05-.002-.139-.004-.166-.006-8.938-.661-17.902 1.848-25.253 7.066l-.12.082a1.937 1.937 0 0 1-1.192.411zm27.122-11.535c2.899.227 5.938.497 9.557.851.681.06 1.381.13 2.071.201l1.253.132c.804.084 1.609.168 2.41.261 1.308.139 2.633.289 3.957.439.783.092 1.562.183 2.35.284l.244.028c.761.091 1.529.182 2.298.281l2.788.36c1.428.181 2.87.383 4.322.594 1.451.199 2.929.41 4.408.631.102.016.204.03.307.045-1.352-2.987-1.082-6.674-.858-9.738.467-6.385.449-9.769-5.159-10.897-5.712-1.15-20.574-1.258-44.698 17.952a42.508 42.508 0 0 1 14.425-1.441c.106 0 .22.007.326.018zm-.468 3.972.023.003zm350.33 111.119c-4.87-10.49-11.86-17.94-43.9-31.71-.01-.01-.02-.02-.03-.02-11.42-5.14-1.68-16.17 9.41-10.22 7.91 4.24 24.57 14.39 34.52 41.95z" fill="#1a1a1a"/><path d="M566.693 500.687a1.999 1.999 0 0 1-1.815-1.158c-4.172-8.987-9.69-16.451-42.876-30.714a1.842 1.842 0 0 1-.167-.082c-5.054-2.313-6.034-5.509-6.166-7.215-.199-2.563 1.171-5.064 3.665-6.691 2.947-1.923 8.116-2.894 13.783.147 6.108 3.274 24.699 13.24 35.456 43.034a2 2 0 0 1-1.88 2.678zm-43.036-35.515c16.869 7.254 27.02 12.854 33.617 18.229-9.797-16.192-21.53-22.481-26.048-24.902-4.127-2.214-7.72-1.617-9.708-.323-1.25.816-1.946 1.949-1.862 3.032.11 1.421 1.542 2.852 3.927 3.925l-.002.003c.026.012.052.023.076.036zm218.894 100.975c-15.01 43.53-42.81 65.91-71.76 64.29 28.71-13.594 14.854-46.535 21.89-68.84 6.57-20.84 28.98-32.97 37.89-52.93 15.9-35.63-17.14-75.74-11.79-114.39 3.53-25.51 23.58-47.5 22.75-73.25-.56-16.99-10.32-33.91-5.45-50.2 2.237-7.467 7.124-13.324 10.71-21.16 11.1 95.09 19 249.04-4.24 316.48z" fill="#1a1a1a"/><path d="M673.718 632.519c-1.011 0-2.023-.028-3.038-.085a1.999 1.999 0 0 1-.745-3.804c18.119-8.579 18.219-25.114 18.325-42.62.052-8.545.104-17.381 2.513-25.014 3.652-11.586 12.02-20.58 20.11-29.277 6.813-7.322 13.856-14.895 17.861-23.866 8.545-19.148 2.47-39.587-3.961-61.226-5.121-17.231-10.417-35.05-7.984-52.624 1.611-11.643 6.585-22.586 11.396-33.168 6.06-13.33 11.782-25.922 11.337-39.743-.211-6.4-1.817-12.984-3.371-19.352-2.521-10.33-5.127-21.012-1.996-31.485 1.396-4.664 3.705-8.609 6.149-12.786 1.595-2.725 3.243-5.541 4.658-8.633a2.015 2.015 0 0 1 2.13-1.144 2 2 0 0 1 1.675 1.744c9.87 84.559 20.064 246.557-4.336 317.362-7.332 21.264-18.131 38.53-31.229 49.934-11.908 10.366-25.503 15.787-39.494 15.787zm71.83-376.107c-.593 1.047-1.19 2.067-1.78 3.076-2.32 3.965-4.512 7.709-5.771 11.914-2.82 9.433-.455 19.126 2.05 29.39 1.602 6.564 3.259 13.354 3.483 20.169.476 14.757-5.711 28.367-11.693 41.529-4.692 10.321-9.544 20.995-11.074 32.062-2.314 16.717 2.855 34.112 7.855 50.936 6.355 21.384 12.928 43.496 3.779 63.996-4.276 9.579-11.55 17.397-18.585 24.96-8.147 8.758-15.843 17.03-19.225 27.756-2.227 7.058-2.275 15.207-2.327 23.835-.096 15.779-.195 32.03-14.02 42.296 26.465-2.302 49.444-25.207 62.419-62.835 23.557-68.357 14.468-223.302 4.888-309.083z" fill="#1a1a1a"/></svg></g></svg>