<svg xmlns="http://www.w3.org/2000/svg" xmlns:xlink="http://www.w3.org/1999/xlink" viewBox="0,0,256,256" width="25px" height="25px" fill-rule="nonzero"><g fill="none" fill-rule="nonzero" stroke="none" stroke-width="1" stroke-linecap="butt" stroke-linejoin="miter" stroke-miterlimit="10" stroke-dasharray="" stroke-dashoffset="0" font-family="none" font-weight="none" font-size="none" text-anchor="none" style="mix-blend-mode: normal"><g transform="scale(10.24,10.24)"><path d="M14,22h-4v-2h4c0.552,0 1,-0.448 1,-1v-5h2v5c0,1.654 -1.346,3 -3,3z" fill="#d21e1e"></path><rect x="14" y="10" width="10" height="2" fill="#de002a"></rect><path d="M8.5,25c-0.277,0 -0.549,-0.047 -0.806,-0.139l-5.98,-1.993c-1.026,-0.341 -1.714,-1.293 -1.714,-2.368v-18c0,-1.379 1.121,-2.5 2.5,-2.5c0.277,0 0.549,0.047 0.806,0.139l5.98,1.993c1.026,0.341 1.714,1.293 1.714,2.368v18c0,1.379 -1.121,2.5 -2.5,2.5zM2.5,2c-0.275,0 -0.5,0.225 -0.5,0.5v18c0,0.213 0.14,0.402 0.347,0.472l6,2c0.059,0.02 0.106,0.028 0.153,0.028c0.275,0 0.5,-0.225 0.5,-0.5v-18c0,-0.213 -0.14,-0.402 -0.347,-0.472l-6,-2c-0.059,-0.02 -0.106,-0.028 -0.153,-0.028z" fill="#d21e1e"></path><path d="M17,8h-2v-5c0,-0.552 -0.448,-1 -1,-1h-11.5v-2h11.5c1.654,0 3,1.346 3,3z" fill="#d21e1e"></path><path d="M20.707,15.707l-1.414,-1.414l3.293,-3.293l-3.293,-3.293l1.414,-1.414l4,4c0.391,0.391 0.391,1.023 0,1.414z" fill="#de002a"></path></g></g></svg>