<svg xmlns="http://www.w3.org/2000/svg" xmlns:xlink="http://www.w3.org/1999/xlink" viewBox="0,0,256,256" width="48px" height="48px" fill-rule="nonzero"><g fill="none" fill-rule="nonzero" stroke="none" stroke-width="1" stroke-linecap="butt" stroke-linejoin="miter" stroke-miterlimit="10" stroke-dasharray="" stroke-dashoffset="0" font-family="none" font-weight="none" font-size="none" text-anchor="none" style="mix-blend-mode: normal"><g transform="scale(0.5,0.5)"><path d="M213.8,196.4c-0.7,-5.4 -0.5,-11.4 -1.7,-16.7c-0.1,-0.6 -0.3,-1.1 -0.4,-1.7c-0.1,0 -0.3,-0.1 -0.4,-0.1c-1.2,-0.2 -2.5,-0.2 -3.7,-0.2c-2.8,0 -5.6,0 -8.4,-0.4c-5.5,-0.8 -11.2,-3.8 -15.5,-7.4c-10.2,-8.6 -11.2,-21.7 -2,-31.6c7.2,-7.7 17.1,-9.7 27.1,-9.8l1.8,-33.1c-0.5,0 -1.1,0 -1.6,0c-4.6,-0.1 -9.2,-0.3 -13.8,-0.6c-9.8,-0.6 -19.7,-1.5 -29.5,-2.1c-2.2,-0.1 -3.8,-1.2 -4.7,-2.7c-1.9,-1.6 -2.9,-4.3 -1.5,-7.2c2.2,-4.6 2.4,-11 0.1,-15.6c-2.9,-5.8 -7.3,-8 -13.9,-7.6c-13.2,0.7 -13.7,15.2 -14.9,25.5c-0.2,1.8 -1,3 -2.1,3.7c-0.3,0.7 -0.9,1.5 -1.7,2.1c-12.5,9.9 -29.7,0.5 -43.8,3.4l-2,37.8c14.5,0.6 35.2,5.4 36.1,22.2c0.5,9.8 -5.1,18.9 -14.2,22.6c-7.8,3.2 -16.4,2.8 -24.6,2.3c-0.9,9.5 -2,19.6 -0.3,28.8c0.1,0 0.1,0.1 0.2,0.1l28.8,1.6c2.9,0.2 5.8,0.3 8.7,0.2c1.3,-0.1 2.7,-0.1 4,-0.2c0.2,0 0.3,0 0.4,0c0.2,-0.2 0.4,-0.3 0.7,-0.4c0,-4.8 -0.1,-9.5 1.6,-14.1c1.8,-4.9 5.7,-9.3 10.1,-12c7.5,-4.6 18.7,-8.2 27.2,-4c8.5,4.2 16.8,18.8 15.4,29.8c12.8,0.2 25.5,-0.2 38.3,0.2c0.3,0 0.6,0 0.9,0l1.2,0.1c-0.4,-4.5 -1.4,-9 -1.9,-12.9z" fill="#ffffff"></path><path d="M337.1,132.8c0.2,-9.9 -0.5,-20.3 -3.5,-29.5c-0.2,-0.7 -0.9,-3.9 -1.8,-4c-2.1,-0.4 -4.3,-0.1 -6.4,-0.1c-5.2,-0.2 -10.4,-0.5 -15.6,-0.5c3.5,16.7 -10,34.9 -28.9,32.3c-19.1,-2.6 -25.5,-20.3 -20.6,-36.2c-12.7,-0.2 -25.3,0.3 -38,-0.2l-2.1,39.7c-0.2,3 -2.4,6.2 -5.8,6c-5.7,-0.3 -11.9,-0.6 -17.4,1.4c-4.2,1.5 -10.5,6.2 -10.4,11.3c0.2,5 4.7,8.6 8.9,10.6c4.9,2.4 9.1,1.8 14.4,2.2c4.3,0.3 9.7,1.1 11.7,5.6c2.1,4.9 2.3,9.8 2.8,15c0.8,8.3 3,17.1 2.5,25.5c4.6,1.5 12.7,0.5 16.5,0.4c6.7,-0.2 13.5,-0.6 20.2,0.4c2.6,0.4 4.4,3.2 4.5,5.6c0.2,8.7 0.1,18.3 11,18.8c3.9,0.2 11.4,0.5 12.4,-4.7c1,-4.9 -1.7,-9.7 -4.2,-13.7c-3.1,-4.8 1.8,-9.3 6.5,-8.7c12,1.5 25.2,0.3 37.1,-2.6c-0.1,-4.9 1.2,-9.8 0.8,-14.9c-0.5,-6 -1,-12.1 -1,-18.1c-14.9,-0.5 -37.3,-1.9 -34.5,-20.8c3.1,-18.6 25,-19.5 40.9,-20.8z" fill="#6d208e"></path><path d="M465.9,144.1c-1.5,-4.3 -3.4,-7.5 -8.3,-6.8c-3.7,0.5 -7.3,1.7 -11,2.4c-3.7,0.7 -7.4,-1.4 -7.5,-5.5c-0.4,-11.5 -1.4,-23 -1.2,-34.5c-5.1,-0.1 -10.1,0.6 -15.2,1c2.1,12.9 -9,26 -23.5,25c-7.5,-0.5 -15.4,-3.2 -19,-10.4c-2.5,-5.2 -3.3,-10.8 -3.4,-16.4c-5.6,-0.4 -11.3,-1.4 -16.9,-1.8c-4.9,-0.4 -10.8,-1.2 -15.9,0.1c5.2,12.2 5.3,28.1 4.7,40.9c-0.2,3.4 -2.4,5.6 -5.8,6c-6.8,0.8 -13.7,0.7 -20.3,2c-5.5,1.1 -13.6,2.9 -14.6,9.6c-1.3,8.9 23.6,7.2 28.7,7.4c3,0.1 6.2,2.4 6,5.8c-0.2,4.2 -0.2,8.5 0.1,12.7c0.2,3.5 1,7.4 0.8,10.9c-0.3,4.8 -1.6,10.4 -0.8,15.3c5.3,1 13.2,-0.3 17.9,-0.7c6,-0.5 12.1,-1.4 18.1,-1.7c-0.4,-6.5 -0.8,-13.8 4.1,-18.1c5.8,-5.1 14.2,-6.5 21.7,-4.9c8.3,1.8 13.2,6.8 18,13.4c2.5,3.5 3.9,4.4 8.1,4c2.6,-0.3 5.2,-0.6 7.9,-0.8c0.5,-9.5 0.7,-19.1 -0.4,-28.5c-1,-8.3 2.4,-16.4 12,-16.1c4.2,0.1 9.1,1.3 12.8,-1.3c3.2,-2 4.1,-5.6 2.9,-9z" fill="#020202"></path><path d="M209.4,407.3c-1.7,-1.4 -8,-2 -11.4,-2.5c-4.7,-0.7 -9.6,-2 -12.8,-5.7c-3.9,-4.5 -4.1,-11.1 -2.3,-16.6c3.6,-11.3 16.8,-15.8 27.6,-18.8c0.5,-6.1 -0.2,-12.4 -0.2,-18.6c-3,0.2 -6.1,0 -8.9,-0.1c-11.2,-0.3 -22.1,2.4 -33.3,2c-3.1,-0.1 -6.1,-2.4 -6,-5.8c0.3,-7.7 -3.4,-14.4 -11.8,-14.4c-7.5,0 -15.3,4 -18.1,11.3c-1,2.7 -3.9,5.6 -7.1,4.3c-13.4,-5.3 -27.8,-5.1 -42,-5.5c-0.7,16.3 -1,32.7 -1.7,49c6.2,-0.6 12.5,-0.1 18.1,2.7c6.9,3.5 13,11.2 12.5,19.3c-0.8,13.9 -14.2,18.8 -26.4,19.1c-0.7,8.7 -1.5,17.4 -1.6,26.2c6.9,0.6 13.9,0.4 20.8,0.8c6.3,0.3 13,-0.7 19,1.5c3.5,1.3 7.9,3.3 7.6,7.8c-0.1,2.3 0.5,4.3 3.4,6.6c5.1,4.2 12.9,4.8 18.9,2.3c6.5,-2.7 7.6,-8.8 5.7,-15c-1.1,-3.4 1.7,-7.7 5.5,-7.5c7.4,0.4 14.9,0.5 22.4,0.2c6.6,-0.3 14.4,-0.4 20.6,-3.1c0.7,-9.4 2.5,-18.7 2.7,-28.2c0,-2.8 0.1,-5.6 -0.3,-8.4c-0.3,-0.7 -1.3,-3.1 -0.9,-2.9zM341,295.2c-0.1,-2.3 -1.8,-1.6 -4.5,-2.1c-2.5,-0.4 -4.8,-1.1 -7.2,-2c-4.8,-1.9 -9.5,-4.3 -13.3,-7.9c-8,-7.5 -10.5,-20.6 -0.4,-27.8c7.3,-5.2 16,-4.4 24.5,-3.5c-1.4,-11.2 -1.4,-22.6 -4.6,-33.4c-10.7,2.7 -22.1,4.1 -33.2,3.8c1.6,4.9 2.1,10.1 0.2,15c-3.4,8.7 -12.6,12.1 -21.4,11.7c-7.7,-0.4 -16.2,-2.3 -20.4,-9.5c-2.8,-4.8 -3.7,-10.2 -4,-15.7c-6.5,-0.3 -13.2,0.5 -19.7,0.4c-2.2,0 -4.5,-0.1 -6.7,-0.3c0.1,2.3 0.1,4.7 -0.1,7c-0.4,7 -0.9,14 -1.3,21c-0.2,3.3 -0.6,6.7 -0.6,10c0.9,0.4 1.8,0.7 2.7,0.9c4.9,1.3 9.9,1.8 14.6,3.8c12,5.1 9.8,20.1 3.1,28.8c-6.5,8.5 -16.3,6.8 -25.5,7.7c1,5.1 1.9,10.3 2.3,15.5c0.4,4.4 0.7,9.5 -0.3,14.1c12.4,-2 25.2,-2.4 37.7,-1.4c-0.1,-7.1 0.1,-14.6 3.5,-20.8c4.5,-8.4 13.6,-12.4 23,-12.7c8.5,-0.3 16.4,2.8 20.4,10.8c2.8,5.7 3.3,12.1 3.2,18.5c4.6,0.2 9.4,-0.3 13.9,-0.7c4.5,-0.5 9.8,-0.8 14.2,-2.6c0,-4.5 -0.2,-9 -0.2,-13.5c-0.2,-5 0.4,-10 0.1,-15.1z" fill="#ffffff"></path><path d="M240.6,277.5c-3.6,-1.5 -7.7,-1.7 -11.5,-2.7c-4.1,-1.1 -9.5,-2.6 -11.6,-6.7c-2.3,-4.4 -0.7,-11 -0.4,-15.7c0.3,-6.1 0.8,-12.2 1.1,-18.3c0.2,-3.7 1.3,-9.6 -0.4,-13.1c-0.1,0 -0.2,0 -0.2,0c-17.1,-0.8 -34.3,0.2 -51.4,-0.6c-0.3,0 -0.5,0 -0.8,-0.1c-5.4,0.3 -9.2,-7.7 -3.4,-10.9c4.8,-2.8 -3.4,-18.6 -7.5,-19.8c-5.6,-1.6 -12.7,0.8 -17.2,4.3c-6,4.7 -4.7,11.6 -4.9,18.3c-0.1,2.7 -1.6,4.4 -3.5,5.3c0,0 0,0.1 -0.1,0.1c-2.9,5 -12,4.3 -16.9,4.1c-10.7,-0.4 -21.5,-1.1 -32.2,-1.7c0.5,11.9 4.7,23.6 4.3,35.7c-0.1,3 -2.4,6.2 -5.8,6c-6.8,-0.4 -14.1,-0.9 -20.8,0.8c-2.6,0.7 -11.9,4.1 -9,8.6c2.4,3.7 9.5,4.4 13.4,5c5,0.7 10.1,1 15,1.7c2.6,0.4 4.3,3.1 4.5,5.6c0.9,13.8 -2,28 0.6,41.7c13.9,0.4 28.2,0.2 41.5,4.4c5.8,-9.1 16.1,-15.3 27.3,-14.4c12.2,1 20.7,8.8 22.6,20c7.9,-0.4 15.7,-2 23.6,-2c3,0 14.9,1.8 16.2,-0.9c2.1,-4.8 0.8,-11.8 0.2,-16.8c-0.7,-5.1 -1.7,-10.1 -2.6,-15.1c-0.6,-3.1 0.7,-6.4 4,-7.3c5.3,-1.4 10.6,-1.3 16,-1.6c4.3,-0.2 8.1,-0.7 10.1,-5.1c1.1,-2.7 3.5,-7.3 -0.2,-8.8z" fill="#020202"></path><path d="M481,247.9c-7.4,-11.4 -27.8,-4.3 -38.4,-3c-3.1,0.4 -6.1,-2.8 -6,-5.8c0.3,-8.3 -1.9,-18.7 -0.7,-27.7c-4.4,0.6 -8.8,1.1 -12.6,-0.3c-6.7,-2.5 -8.9,-8.3 -13.5,-13.1c-4,-4.2 -10.6,-5.7 -16.1,-3.8c-5.7,2 -2.7,12 -2.8,16.7c-0.1,3 -2.4,6.2 -5.8,6c-8.9,-0.3 -17.9,1.3 -26.8,2c-3.2,0.2 -6.8,0.6 -10.4,0.7c2.7,12.2 2.2,24.9 4.8,37.1c0.7,3.4 -1.5,7.8 -5.5,7.5c-5.4,-0.4 -24.4,-5.2 -26.4,2.9c-1.8,7.6 11.2,13.1 17,14.1c4.6,0.8 10.4,1.4 13,6.1c2.2,3.9 2.1,8.1 2,12.5c-0.2,7.9 0,15.8 -0.2,23.7l13.2,0.7c3.9,0.2 8.1,0.2 11.8,1.5c6.2,2.2 7.5,7.2 9,12.9c2,7.3 6.7,14.3 15.2,13.8c7.9,-0.5 8.6,-6.1 9,-12.9c0.2,-3 2.4,-6.2 5.8,-6c10.4,0.5 21.2,-0.5 30.9,-4.5c1.2,-0.5 2.3,-0.6 3.2,-0.3c0,0 0,-0.1 0.1,-0.1c0.2,-0.5 0.4,-0.9 0.7,-1.3c3.7,-7.4 3.7,-16.8 3.7,-24.8c0.1,-9.7 -0.6,-19.5 -0.1,-29.2c0.1,-3.1 2.4,-6.1 5.8,-6c10.3,0.4 28.7,-6.1 20.1,-19.4z" fill="#ffffff"></path><path d="M320.3,416.5c-8.8,-8.6 -8.6,-20.9 0.9,-28.7c4.4,-3.7 9.7,-6.2 15.1,-8.1c2.6,-0.9 5.1,-1.7 7.9,-2.2c0.5,-0.1 1.4,-0.2 2.1,-0.3c2.3,-5.7 0.4,-12.9 -0.4,-18.7c-1,-7.7 -0.7,-15.4 -2.7,-23c-5.2,1.7 -10.9,2.3 -16.2,2.8c-7.2,0.7 -14.5,1.1 -21.7,-0.1c-2.4,-0.4 -4.6,-3.1 -4.5,-5.6c0.5,-9 1.7,-24 -11.3,-22.9c-6.5,0.5 -12.4,2.7 -14,9.7c-1.3,6 -0.9,12.3 -0.8,18.4c0.1,4.2 -3.6,6.3 -7.3,5.8c-14.8,-1.8 -30.8,-1.3 -45.5,1.8c0,8.1 0.9,16.2 -0.5,24.3c-0.3,2 -2.2,3.7 -4.1,4.2c-6.4,1.7 -27.8,6.3 -23.6,17.1c0.9,2.3 7.1,2.3 9,2.6c4.1,0.5 8.7,1 12.2,3.3c8,5.2 7.5,16.5 7.1,25c-0.4,7.2 -1.6,15 -2.3,22c8.6,0.5 17,2.2 25.6,2.7c3.1,0.2 6.1,2.3 6,5.8c-0.4,11.9 9.7,22.9 22.4,18.2c2.4,-0.9 17.8,-9.4 14.9,-11.5c-4.2,-3.1 -3.7,-11.3 2.8,-11c18.6,0.9 37.4,0.1 55.8,-2.7l1.1,-20c-9.9,-0.7 -21,-2.1 -28,-8.9z" fill="#6d208e"></path><path d="M466.3,420.3c0.1,-3 0.3,-6 0.1,-8.9c-0.2,-2.5 0.2,-3.6 -2.5,-3.6c-10.5,-0.1 -22.2,-1.2 -30.6,-8.2c-8.9,-7.5 -8.4,-20.1 -1.3,-28.8c6.2,-7.5 15.5,-10.3 24.6,-12.5c-0.9,-6.5 -1.9,-13 -3.5,-19.3c-0.6,0.6 -1.3,1.2 -2.2,1.5c-8.9,3.7 -19,5 -28.7,5c-0.9,6.5 -3,13 -9.1,16.1c-8.6,4.3 -19.2,3.5 -26.9,-2.3c-7.4,-5.6 -9,-13.4 -11.7,-21.6c-0.6,-1.8 -6.2,-1.3 -8.2,-1.5l-10.8,-0.6c1.1,5.6 1.5,11.3 1.9,17.1c0.4,7.1 2.8,14.3 1.6,21.5c-0.8,4.6 -1.4,9.6 -5.4,12.7c-2.7,2 -6.1,1.6 -9.1,2.5c-5.1,1.6 -22.9,7.2 -18,15.6c5.3,8.8 19.2,8.4 28.2,8.9c3,0.2 6.2,2.4 6,5.8l-1.7,26.3c6.9,0.2 13.9,0.1 20.8,0.3c3.6,-13.9 17.7,-22.5 32.2,-22.9c13.6,-0.4 25.8,6.9 26.6,19.8c4.9,0.1 9.7,0.1 14.6,0c4.1,-0.1 8.2,-0.2 12.2,-0.7c1.5,-0.2 3,-0.3 4.4,-0.7c-1.7,-6.9 -3.9,-14.5 -3.5,-21.5z" fill="#020202"></path><path d="M494.2,248.7c-2.6,-10.4 -11.9,-16.9 -22.1,-18.2c-8,-1 -15.9,0.5 -23.8,1.7c-0.1,-3.1 -0.4,-6.2 -0.5,-9.4c-0.1,-3.3 -1.2,-11.4 0.7,-14c0.1,-0.1 0.1,-0.2 0.2,-0.3c0.9,-1.1 1.4,-2.5 1.5,-3.9c0.4,-7.6 0.8,-15.1 0.7,-22.7c0,-5.2 -0.9,-10.3 -1.1,-15.5c0.5,0.1 1.8,-0.1 2.1,-0.1c2.6,0.1 5.1,0.5 7.8,0.2c5.6,-0.7 10.8,-3.1 14.4,-7.5c7,-8.8 3.9,-20.9 -3,-28.7c-5.4,-6.2 -13.3,-5.1 -20.6,-3.4c-0.5,-10.9 -1.3,-21.7 -0.8,-32.6c0.1,-2.4 -2,-5.3 -4.5,-5.6c-10.1,-1.3 -20.1,1.9 -30.1,0.5c-4.5,-0.6 -9.9,4.1 -6.5,8.7c3,4 3.5,8.3 0.2,12.4c-3.2,3.9 -8.1,4.2 -12.7,3.3c-8.9,-1.7 -7.8,-13.8 -7.5,-20.6c0.2,-3.2 -3,-5.8 -6,-5.8c-15.1,0.3 -33.7,-7 -47.8,0.8c-1.7,-0.5 -3.6,-0.7 -5.7,-0.7c-9.4,-0.1 -18.7,-0.9 -28,-0.2c-4.2,0.3 -7.4,5 -4.9,8.9c7,11 -1.9,25.6 -15.2,23c-13.5,-2.6 -12.2,-17.9 -6.5,-27c2.5,-4.1 -1,-8.6 -5.3,-8.8c-16.4,-0.8 -32.9,0.3 -49.3,-0.5c-1.2,-0.1 -2.2,0.2 -3,0.6c-2,-1.3 -4.5,-1.1 -6.4,0.1c-12.9,-0.1 -25.7,-1.3 -38.6,-2.2c3,-15.1 -5.2,-31.9 -22,-33.4c-9.1,-0.8 -18.2,1.5 -23.7,9.3c-5.1,7.1 -6,16.3 -7,24.7c-0.3,0.2 -0.6,0.3 -0.8,0.6c-1.3,1.1 -5.1,0.8 -6.8,0.9c-3.9,0.1 -7.7,-0.2 -11.6,-0.5c-5.8,-0.4 -11.8,-1.2 -17.7,-0.4c-2.9,-3.3 -10.3,-1.9 -10.6,4.1l-2.9,52.5c-0.3,5.2 5.1,6.7 8.7,4.7c8.3,-0.1 24.9,0.8 27.7,10.4c1.8,6.1 -3.8,11.1 -8.9,12.6c-6.1,1.8 -13,1.1 -19.4,0.7c-3.3,-2.4 -9.6,-0.8 -9.9,4.7c-0.8,13.8 -3.2,28.6 0.2,42.3c0,0 0,0 0,0.1c0.1,0.7 0.3,1.3 0.6,1.9c-0.3,11.3 3.3,22.3 4.2,33.5c-15.6,0 -38.9,3.3 -35.3,23.1c2.5,13.9 20.8,14.6 33,15.8c0.2,14.3 -2,28.6 1.5,42.7c-1.1,20.5 -1.2,41.1 -2.3,61.6c-0.2,4 4.1,6.3 7.5,5.5c7.9,-1.8 21.9,-2.3 23.4,8.6c1.1,8.1 -13.6,8.8 -18.7,8.2c-4,-0.5 -7.1,1.7 -7.3,5.8c-0.7,12.5 -2.3,24.9 -2,37.4c0,2.4 1.9,5.2 4.5,5.6c8.7,1.3 17.5,1.3 26.3,1.6c3.7,0.1 7.4,0.2 11.1,0.1c1.9,0 3.6,0.2 5.4,0.6h0.1c0.6,9 10.6,15.6 18.3,17.9c8.3,2.5 18.3,1 25.3,-4c6.3,-4.6 9.1,-11.4 8.9,-18.5c14.2,0.6 29.7,0.6 42.4,-5.1c0.7,-0.3 1.3,-0.8 1.8,-1.2c8,0 15.9,1.4 23.9,2.3c2.5,17.3 19.8,30.4 37.8,23.7c8.8,-3.3 22.2,-12.2 23.1,-21.5c16.6,0.3 33.1,-0.9 49.5,-3.5c0.5,0.2 1.1,0.3 1.8,0.3c10.9,0.5 21.7,0.2 32.6,0.7c3.2,0.2 5.4,-2.9 5.5,-5.7c0.8,-19.5 41.3,-24.5 37.1,-4.8c-0.8,3.7 1.9,6.8 5.6,7c8,0.4 16.1,0.4 24.2,0.1c6.5,-0.2 16.6,0.3 21.7,-4.6c1.2,-1.2 1.7,-2.6 1.7,-3.9c0.9,-1.2 1.3,-2.8 0.9,-4.6c-1.5,-6.7 -4,-14.2 -3.7,-21.1c0.3,-5.1 0.4,-10.2 -0.8,-15.2c-2.4,-10.9 -17.5,-7.6 -25.5,-9.3c-8.4,-1.8 -16.9,-6.3 -11.9,-16c4.4,-8.3 16.9,-9.8 25,-11.7c3.2,-0.8 4.3,-4.1 3.8,-6.9c-1.6,-9.8 -2.5,-19.8 -5.5,-29.3c3.7,-8.1 4.2,-17.6 4.4,-26.3c0.3,-8.8 -0.3,-17.6 -0.2,-26.4c15.5,-1.7 31.6,-12.6 27.3,-30.2zM344,97.1c5.1,-1.3 11,-0.5 15.9,-0.1c5.6,0.5 11.2,1.4 16.9,1.8c0.1,5.7 0.9,11.2 3.4,16.4c3.5,7.3 11.5,9.9 19,10.4c14.4,1 25.6,-12.1 23.5,-25c5.1,-0.3 10.1,-1 15.2,-1c-0.1,11.5 0.8,23 1.2,34.5c0.1,4.1 3.8,6.2 7.5,5.5c3.7,-0.7 7.3,-1.9 11,-2.4c4.9,-0.6 6.8,2.6 8.3,6.8c1.2,3.4 0.4,6.9 -2.6,9c-3.8,2.6 -8.6,1.5 -12.8,1.3c-9.7,-0.3 -13,7.8 -12,16.1c1.1,9.5 0.9,19 0.4,28.5c-2.6,0.2 -5.2,0.5 -7.9,0.8c-4.2,0.4 -5.7,-0.5 -8.1,-4c-4.8,-6.6 -9.7,-11.6 -18,-13.4c-7.5,-1.6 -15.9,-0.3 -21.7,4.9c-4.9,4.3 -4.5,11.6 -4.1,18.1c-6.1,0.3 -12.1,1.2 -18.1,1.7c-4.8,0.4 -12.6,1.7 -17.9,0.7c-0.8,-4.9 0.5,-10.6 0.8,-15.3c0.2,-3.5 -0.6,-7.4 -0.8,-10.9c-0.2,-4.2 -0.3,-8.5 -0.1,-12.7c0.1,-3.4 -3,-5.6 -6,-5.8c-5.1,-0.2 -30.1,1.5 -28.7,-7.4c1,-6.7 9.1,-8.5 14.6,-9.6c6.7,-1.3 13.6,-1.2 20.3,-2c3.4,-0.4 5.6,-2.6 5.8,-6c0.3,-12.8 0.2,-28.6 -5,-40.9zM316,283.2c3.8,3.5 8.5,6 13.3,7.9c2.4,0.9 4.7,1.6 7.2,2c2.7,0.5 4.4,-0.2 4.5,2.1c0.3,5 -0.3,10.1 -0.3,15.1c-0.1,4.5 0.2,9 0.2,13.5c-4.3,1.8 -9.7,2.1 -14.2,2.6c-4.5,0.5 -9.3,0.9 -13.9,0.7c0.1,-6.3 -0.4,-12.8 -3.2,-18.5c-3.9,-8 -11.8,-11.1 -20.4,-10.8c-9.3,0.3 -18.4,4.3 -23,12.7c-3.3,6.2 -3.6,13.7 -3.5,20.8c-12.5,-0.9 -25.3,-0.6 -37.7,1.4c1,-4.6 0.7,-9.7 0.3,-14.1c-0.4,-5.2 -1.3,-10.4 -2.3,-15.5c9.2,-0.9 19,0.8 25.5,-7.7c6.7,-8.7 8.9,-23.7 -3.1,-28.8c-4.7,-2 -9.7,-2.5 -14.6,-3.8c-0.9,-0.3 -1.8,-0.6 -2.7,-0.9c0.1,-3.3 0.4,-6.7 0.6,-10c0.4,-7 0.9,-14 1.3,-21c0.1,-2.3 0.2,-4.6 0.1,-7c2.3,0.2 4.5,0.2 6.7,0.3c6.4,0.1 13.2,-0.7 19.7,-0.4c0.3,5.5 1.2,10.9 4,15.7c4.2,7.2 12.7,9.2 20.4,9.5c8.8,0.4 18.1,-3 21.4,-11.7c1.9,-4.9 1.4,-10.1 -0.2,-15c11.1,0.3 22.5,-1.1 33.2,-3.8c3.2,10.8 3.2,22.2 4.6,33.4c-8.5,-0.9 -17.2,-1.7 -24.5,3.5c-9.9,7.2 -7.4,20.3 0.6,27.8zM214.5,140.4c3.4,0.2 5.6,-3 5.8,-6l2.1,-39.7c12.6,0.5 25.3,0 38,0.2c-4.9,15.9 1.6,33.6 20.6,36.2c18.9,2.6 32.4,-15.6 28.9,-32.3c5.2,0 10.4,0.3 15.6,0.5c2.1,0.1 4.3,-0.2 6.4,0.1c0.9,0.2 1.5,3.3 1.8,4c3,9.2 3.7,19.6 3.5,29.5c-15.9,1.3 -37.9,2.2 -40.7,21c-2.8,18.9 19.5,20.3 34.5,20.8c0,6 0.5,12.1 1,18.1c0.4,5 -0.9,9.9 -0.8,14.9c-12,2.9 -25.1,4.1 -37.1,2.6c-4.7,-0.6 -9.6,4 -6.5,8.7c2.5,4 5.2,8.8 4.2,13.7c-1,5.2 -8.5,4.9 -12.4,4.7c-10.9,-0.5 -10.9,-10.2 -11,-18.8c-0.1,-2.4 -1.9,-5.2 -4.5,-5.6c-6.7,-1 -13.5,-0.5 -20.2,-0.4c-3.9,0.1 -11.9,1.1 -16.5,-0.4c0.5,-8.4 -1.7,-17.3 -2.5,-25.5c-0.5,-5.2 -0.6,-10.1 -2.8,-15c-2,-4.5 -7.4,-5.3 -11.7,-5.6c-5.3,-0.4 -9.5,0.1 -14.4,-2.2c-4.2,-2.1 -8.7,-5.6 -8.9,-10.6c-0.2,-5.1 6.2,-9.7 10.4,-11.3c5.3,-2.2 11.5,-1.9 17.2,-1.6zM78.3,179.1c8.3,0.5 16.9,0.8 24.6,-2.3c9.1,-3.7 14.7,-12.8 14.2,-22.6c-0.9,-16.9 -21.6,-21.6 -36.1,-22.2l2,-37.8c14.1,-2.9 31.3,6.5 43.8,-3.4c0.8,-0.7 1.4,-1.4 1.7,-2.1c1.1,-0.7 1.9,-1.9 2.1,-3.7c1.3,-10.3 1.8,-24.8 14.9,-25.5c6.5,-0.4 10.9,1.8 13.9,7.6c2.3,4.6 2.2,11.1 -0.1,15.6c-1.4,2.9 -0.4,5.6 1.5,7.2c1,1.5 2.5,2.6 4.7,2.7c9.9,0.6 19.7,1.4 29.5,2.1c4.6,0.3 9.2,0.5 13.8,0.6c0.6,0 1.1,0 1.6,0l-1.8,33.1c-10,0.1 -19.9,2.1 -27.1,9.8c-9.2,9.9 -8.3,22.9 2,31.6c4.2,3.6 10,6.6 15.5,7.4c2.8,0.4 5.6,0.4 8.4,0.4c1.2,0 2.5,0 3.7,0.2c0.2,0.1 0.3,0.1 0.4,0.1c0.1,0.6 0.3,1.1 0.4,1.7c1.2,5.3 1,11.3 1.7,16.7c0.5,4 1.5,8.4 1.6,12.7l-1.2,-0.1c-0.3,0 -0.6,0 -0.9,0c-12.8,-0.4 -25.5,0 -38.3,-0.2c1.4,-11 -6.8,-25.6 -15.4,-29.8c-8.5,-4.2 -19.7,-0.6 -27.2,4c-4.4,2.7 -8.3,7.2 -10.1,12c-1.7,4.6 -1.6,9.3 -1.6,14.1c-0.2,0.1 -0.5,0.3 -0.7,0.4c-0.1,0 -0.3,0 -0.4,0c-1.3,0.1 -2.7,0.2 -4,0.2c-2.9,0.1 -5.8,0 -8.7,-0.2l-28.8,-1.6c-0.1,0 -0.1,-0.1 -0.2,-0.1c-1.4,-9 -0.3,-19 0.6,-28.6zM81.4,283.4c-0.2,-2.4 -1.8,-5.2 -4.5,-5.6c-5,-0.8 -10,-1 -15,-1.7c-4,-0.6 -11,-1.3 -13.4,-5c-2.9,-4.5 6.4,-7.9 9,-8.6c6.7,-1.7 14,-1.2 20.8,-0.8c3.3,0.2 5.7,-3 5.8,-6c0.4,-12.1 -3.7,-23.7 -4.3,-35.7c10.7,0.6 21.5,1.3 32.2,1.7c5,0.2 14,0.8 16.9,-4.1c0,0 0,-0.1 0.1,-0.1c1.9,-0.8 3.5,-2.6 3.5,-5.3c0.2,-6.7 -1.1,-13.6 4.9,-18.3c4.5,-3.5 11.5,-5.9 17.2,-4.3c4.1,1.2 12.3,17 7.5,19.8c-5.7,3.3 -1.9,11.3 3.4,10.9c0.3,0 0.5,0.1 0.8,0.1c17.1,0.8 34.3,-0.2 51.4,0.6c0.1,0 0.2,0 0.2,0c1.7,3.6 0.6,9.4 0.4,13.1c-0.4,6.1 -0.8,12.2 -1.1,18.3c-0.3,4.7 -1.9,11.3 0.4,15.7c2.1,4.1 7.5,5.6 11.6,6.7c3.7,1 7.9,1.2 11.5,2.7c3.6,1.5 1.2,6.1 0,8.8c-1.9,4.4 -5.8,4.9 -10.1,5.1c-5.4,0.2 -10.7,0.1 -16,1.6c-3.3,0.9 -4.6,4.2 -4,7.3c1,5 2,10 2.6,15.1c0.7,5 1.9,12 -0.2,16.8c-1.2,2.8 -13.2,0.9 -16.2,0.9c-7.9,0 -15.7,1.6 -23.6,2c-1.9,-11.3 -10.4,-19 -22.6,-20c-11.2,-0.9 -21.4,5.3 -27.3,14.4c-13.3,-4.2 -27.6,-3.9 -41.5,-4.4c-2.4,-13.7 0.5,-27.8 -0.4,-41.7zM210.4,418.7c-0.1,9.5 -2,18.8 -2.7,28.2c-6.2,2.7 -14,2.8 -20.6,3.1c-7.4,0.4 -14.9,0.2 -22.4,-0.2c-3.8,-0.2 -6.6,4.1 -5.5,7.5c1.9,6.2 0.8,12.3 -5.7,15c-6,2.5 -13.8,1.9 -18.9,-2.3c-2.9,-2.4 -3.5,-4.3 -3.4,-6.6c0.2,-4.5 -4.2,-6.5 -7.6,-7.8c-6,-2.2 -12.7,-1.2 -19,-1.5c-6.9,-0.3 -13.9,-0.1 -20.8,-0.8c0.1,-8.8 1,-17.5 1.6,-26.2c12.3,-0.3 25.7,-5.2 26.4,-19.1c0.4,-8.1 -5.6,-15.9 -12.5,-19.3c-5.5,-2.8 -11.9,-3.3 -18.1,-2.7c0.7,-16.3 0.9,-32.7 1.7,-49c14.2,0.4 28.6,0.2 42,5.5c3.2,1.3 6.1,-1.6 7.1,-4.3c2.8,-7.3 10.6,-11.3 18.1,-11.3c8.5,0 12.1,6.7 11.8,14.4c-0.1,3.3 3,5.6 6,5.8c11.2,0.4 22.2,-2.2 33.3,-2c2.8,0.1 5.9,0.3 8.9,0.1c0.1,6.2 0.8,12.5 0.2,18.6c-10.8,3 -24,7.6 -27.6,18.8c-1.7,5.5 -1.6,12.1 2.3,16.6c3.2,3.7 8.2,5 12.8,5.7c3.4,0.5 9.7,1.1 11.4,2.5c-0.4,-0.2 0.6,2.2 0.7,3c0.6,2.6 0.6,5.5 0.5,8.3zM347.2,445.3c-18.5,2.9 -37.2,3.7 -55.8,2.7c-6.4,-0.3 -7,8 -2.8,11c2.9,2.1 -12.5,10.6 -14.9,11.5c-12.7,4.7 -22.7,-6.3 -22.4,-18.2c0.1,-3.4 -3,-5.6 -6,-5.8c-8.6,-0.6 -17,-2.3 -25.6,-2.7c0.7,-7 1.9,-14.8 2.3,-22c0.5,-8.4 1,-19.8 -7.1,-25c-3.5,-2.3 -8.2,-2.7 -12.2,-3.3c-1.9,-0.3 -8.1,-0.3 -9,-2.6c-4.2,-10.7 17.2,-15.3 23.6,-17.1c1.9,-0.5 3.7,-2.2 4.1,-4.2c1.4,-8.1 0.5,-16.2 0.5,-24.3c14.7,-3.1 30.7,-3.6 45.5,-1.8c3.7,0.4 7.4,-1.6 7.3,-5.8c-0.1,-6.1 -0.6,-12.4 0.8,-18.4c1.5,-6.9 7.4,-9.1 14,-9.7c13,-1.1 11.8,13.8 11.3,22.9c-0.1,2.4 2,5.2 4.5,5.6c7.2,1.1 14.5,0.7 21.7,0.1c5.3,-0.5 11,-1.1 16.2,-2.8c2,7.6 1.7,15.2 2.7,23c0.8,5.9 2.7,13 0.4,18.7c-0.7,0.1 -1.5,0.2 -2.1,0.3c-2.7,0.4 -5.3,1.2 -7.9,2.2c-5.4,1.9 -10.7,4.5 -15.1,8.1c-9.5,7.9 -9.7,20.1 -0.9,28.7c6.9,6.8 18.1,8.2 28,8.8zM431.9,370.8c-7.1,8.7 -7.6,21.3 1.3,28.8c8.5,7.1 20.1,8.1 30.6,8.2c2.8,0 2.4,1 2.5,3.6c0.2,3 0,6 -0.1,8.9c-0.3,7 1.8,14.6 3.5,21.5c-1.4,0.4 -2.9,0.5 -4.4,0.7c-4.1,0.4 -8.2,0.6 -12.2,0.7c-4.8,0.1 -9.7,0.1 -14.6,0c-0.8,-12.9 -13,-20.2 -26.6,-19.8c-14.5,0.4 -28.6,9 -32.2,22.9c-6.9,-0.2 -13.9,-0.2 -20.8,-0.3l1.4,-26.4c0.2,-3.4 -3,-5.6 -6,-5.8c-9,-0.5 -22.9,-0.2 -28.2,-8.9c-5,-8.3 12.8,-14 18,-15.6c3.1,-1 6.4,-0.5 9.1,-2.5c4,-3 4.6,-8 5.4,-12.7c1.3,-7.1 -1.1,-14.4 -1.6,-21.5c-0.4,-5.8 -0.7,-11.5 -1.9,-17.1l10.8,0.6c2,0.1 7.6,-0.4 8.2,1.5c2.7,8.2 4.3,16 11.7,21.6c7.7,5.9 18.3,6.7 26.9,2.3c6.1,-3 8.2,-9.6 9.1,-16.1c9.7,0 19.8,-1.4 28.7,-5c0.9,-0.4 1.6,-0.9 2.2,-1.5c1.6,6.3 2.5,12.8 3.5,19.3c-8.9,2.3 -18.2,5.1 -24.3,12.6zM460.9,267.3c-3.4,-0.1 -5.6,3 -5.8,6c-0.5,9.7 0.2,19.5 0.1,29.2c-0.1,8 0,17.4 -3.7,24.8c-0.3,0.4 -0.6,0.8 -0.7,1.3c0,0 0,0.1 -0.1,0.1c-0.9,-0.2 -2,-0.2 -3.2,0.3c-9.7,4 -20.5,4.9 -30.9,4.5c-3.4,-0.1 -5.6,3 -5.8,6c-0.4,6.9 -1.1,12.4 -9,12.9c-8.4,0.6 -13.2,-6.5 -15.2,-13.8c-1.5,-5.7 -2.8,-10.8 -9,-12.9c-3.8,-1.3 -7.9,-1.3 -11.8,-1.5l-13.2,-0.7c0.2,-7.9 0,-15.8 0.2,-23.7c0.1,-4.4 0.1,-8.6 -2,-12.5c-2.6,-4.7 -8.3,-5.3 -13,-6.1c-5.8,-1 -18.8,-6.5 -17,-14.1c2,-8.1 21,-3.3 26.4,-2.9c4,0.3 6.2,-4.1 5.5,-7.5c-2.6,-12.2 -2.1,-24.9 -4.8,-37.1c3.6,-0.1 7.2,-0.4 10.4,-0.7c8.9,-0.7 17.9,-2.3 26.8,-2c3.3,0.1 5.7,-3 5.8,-6c0.1,-4.7 -2.9,-14.7 2.8,-16.7c5.5,-2 12.1,-0.4 16.1,3.8c4.6,4.8 6.8,10.6 13.5,13.1c3.8,1.4 8.2,0.9 12.6,0.3c-1.3,9 1,19.3 0.7,27.7c-0.1,3 3,6.1 6,5.8c10.6,-1.3 31,-8.4 38.4,3c8.6,13.3 -9.8,19.8 -20.1,19.4z" fill="#000000"></path></g></g></svg>