<svg xmlns="http://www.w3.org/2000/svg" viewBox="0 0 897.94 332.29"><defs><style>.cls-1{fill:#232a55;}.cls-2{fill:#3a1e78;}.cls-3{fill:#271451;}.cls-4{fill:#2a1260;}</style></defs><g id="Capa_2" data-name="Capa 2"><g id="Capa_1-2" data-name="Capa 1"><path class="cls-1" d="M202.17,100.06c-5.31-6-16.49-10.91-17.21-17.4,4.43.57,7.13-1.08,4.64-3.78,6,1.22,4.58-2.62-5.66-12.57,13.79,1.77-1.71-5.83-5.48-19.72,6.79,4.22,9.31,4.65,6.34.18,13.33,6.79-6.54-10.21-7.37-21.12,4.06,3.3,5.33,3.49,3.77.53,2,.63,2.77.24,1-2.1-4.52-6.54-7.57-14.49-8.91-24.08.17,1.12-1.8,18.67-11.91,29-2.35,2.4.87,2.38,2.06.2-1.5,4.89,8.64-6,5.21-.89-4.74,7-5,10.12-1.77,7.48-1.33,7.15-16.8,22.12-8.5,17.47-.28,1.06-.94,3.6-.33,4,.8.5,2.51-.72,3.42-3.27.11,4.55,2.4,3,7.26-6.16a31.78,31.78,0,0,1-5.86,10.89c-3.09,4.09,1.69,3.91,2.54,1.19-3.4,10.89-20.6,16.37-11.39,15.33,0,0-1.31,1.36-5,4.93s7.53,3,7.53,3c-2.39,10.19-24.71,13.82-10.7,14.5-3,3,7,3,10.05,0,0,0-8.45,8.83-13.75,14-3.65,2.93-.82,5.71,4.4,2.59-.74,1.78,4.95,2.88,6.81,1.26-6.1,6.15-8.07,5.6-14.45,7.06-4.65,1.07-.6,6,6.29,4.47-3.48,6.48,4.06,7.83,8.16,3.11a1.74,1.74,0,0,0,0,1.21c.8,1.7,10.87,3.45,17.2-5.3,0-.17-.34,15.61-.78,19.78-.11,1,6.76,1,6.67-.08-.15-1.72-1.31-21.76-1.31-21.76,2.94,9.06,14.78,9.93,14.1,5.86,3.19,5,9.43,5.88,6.82-.82,4.54,5.44,11.54,4.17,8,1.28-9.09-7.44-14.23-11.51-14.76-14.13,1.47,1.77,3.41.82,2.87-1,4.2,3.55,6.66,1.07,3.76-2.16-4.51-5.1-7.22-8.42-7.65-11.08,3.38,4.1,6.95,3.33,5.87.28,1.72,2,3.69.42,3.06-1.65C200.69,104,203.78,102.24,202.17,100.06Z"/><path class="cls-2" d="M221.1,97.78c-4.08-4.57-12.67-8.38-13.22-13.36,3.4.44,5.47-.83,3.56-2.91,4.57.94,3.52-2-4.34-9.65,10.59,1.37-1.32-4.47-4.21-15.14,5.21,3.24,7.15,3.57,4.87.13,10.24,5.22-5-7.83-5.66-16.21,3.12,2.53,4.09,2.68,2.89.4,1.57.49,2.13.19.79-1.61a42.21,42.21,0,0,1-6.84-18.49c.13.86-1.38,14.34-9.14,22.24-1.81,1.84.66,1.83,1.57.15-1.15,3.76,6.64-4.59,4-.68-3.63,5.39-3.83,7.77-1.35,5.74-1,5.49-12.9,17-6.53,13.42-.22.82-.72,2.77-.26,3,.62.38,1.93-.55,2.63-2.51.09,3.5,1.85,2.29,5.58-4.73a24.44,24.44,0,0,1-4.5,8.36c-2.37,3.14,1.3,3,1.95.92-2.61,8.36-15.82,12.57-8.75,11.77,0,0-1,1-3.8,3.79s5.78,2.31,5.78,2.31c-1.84,7.83-19,10.62-8.22,11.14-2.34,2.34,5.37,2.32,7.71,0,0,0-6.48,6.78-10.55,10.72-2.81,2.26-.64,4.39,3.38,2-.58,1.37,3.8,2.22,5.22,1-4.68,4.73-6.19,4.31-11.09,5.43-3.57.81-.46,4.57,4.83,3.43-2.67,5,3.12,6,6.26,2.39a1.39,1.39,0,0,0,0,.92c.62,1.31,8.35,2.65,13.21-4.06,0-.13-.26,12-.6,15.18-.09.81,5.19.74,5.12-.06-.11-1.32-1-16.71-1-16.71,2.26,7,11.36,7.63,10.83,4.5,2.46,3.86,7.24,4.52,5.24-.63,3.49,4.18,8.86,3.2,6.15,1-7-5.71-10.93-8.83-11.34-10.84,1.13,1.36,2.62.63,2.2-.77,3.23,2.72,5.12.82,2.89-1.66-3.46-3.92-5.54-6.46-5.87-8.51,2.59,3.14,5.34,2.56,4.5.21,1.33,1.58,2.84.33,2.36-1.26C220,100.78,222.33,99.45,221.1,97.78Z"/><path class="cls-3" d="M691.69,229.1c-118.77-109-163.67-72.32-291.15,41.31-63.72-89.05-88.17-126-117.69-70.3C210.15,79,170.2,39.39,109.29,144.85c-6.6,11.41-15.36,19.85-25.22,24.34a38.57,38.57,0,0,1-30.43.95c-18.1-7-36.06-6.85-53.64-1.68V332.29H889.92l-3.66-99.42C817.33,171.43,766.26,164,691.69,229.1Z"/><path class="cls-1" d="M859.49,160.93c-6-6.74-18.69-12.37-19.5-19.72,5,.64,8.07-1.22,5.25-4.29,6.75,1.39,5.19-2.95-6.41-14.23,15.63,2-1.94-6.61-6.21-22.35,7.69,4.78,10.56,5.26,7.18.2,15.11,7.7-7.4-11.56-8.34-23.93,4.6,3.74,6,4,4.27.6,2.31.71,3.14.27,1.16-2.38-5.12-7.41-8.57-16.42-10.09-27.29.18,1.27-2,21.16-13.49,32.82-2.68,2.72,1,2.7,2.32.22-1.7,5.55,9.79-6.77,5.9-1-5.36,8-5.65,11.47-2,8.49-1.51,8.09-19,25.06-9.62,19.8-.33,1.19-1.08,4.07-.39,4.5.91.56,2.85-.83,3.88-3.71.12,5.16,2.72,3.38,8.23-7A36.06,36.06,0,0,1,815,114c-3.5,4.63,1.92,4.42,2.88,1.35C814,127.69,794.52,133.91,805,132.73c0,0-1.49,1.54-5.62,5.58s8.54,3.42,8.54,3.42c-2.71,11.55-28,15.67-12.14,16.43-3.45,3.45,7.94,3.43,11.39,0,0,0-9.57,10-15.57,15.82-4.15,3.33-.94,6.48,5,2.94-.85,2,5.6,3.27,7.7,1.43-6.9,7-9.14,6.35-16.37,8-5.27,1.21-.68,6.76,7.13,5.07-3.94,7.34,4.6,8.87,9.24,3.52a2,2,0,0,0,0,1.37c.91,1.92,12.32,3.91,19.49-6,0-.2-.38,17.69-.89,22.41-.13,1.18,7.66,1.09,7.56-.09-.17-2-1.49-24.66-1.49-24.66,3.34,10.27,16.76,11.25,16,6.64,3.62,5.7,10.69,6.66,7.73-.93,5.15,6.17,13.08,4.72,9.07,1.45-10.31-8.43-16.13-13-16.72-16,1.66,2,3.86.93,3.24-1.13,4.76,4,7.56,1.21,4.26-2.45-5.11-5.78-8.17-9.54-8.66-12.55,3.83,4.64,7.88,3.77,6.64.31,2,2.33,4.19.48,3.48-1.86C857.82,165.35,861.31,163.4,859.49,160.93Z"/><path class="cls-2" d="M829.62,175.6c-6-6.75-18.7-12.37-19.51-19.72,5,.64,8.08-1.22,5.26-4.29,6.74,1.39,5.19-3-6.41-14.23,15.63,2-1.94-6.61-6.21-22.35,7.69,4.78,10.55,5.26,7.18.2,15.11,7.7-7.41-11.56-8.35-23.93,4.6,3.74,6,4,4.27.59,2.32.72,3.15.28,1.17-2.37-5.12-7.41-8.57-16.42-10.1-27.29.19,1.27-2,21.16-13.49,32.82-2.67,2.72,1,2.7,2.33.22-1.7,5.55,9.79-6.78,5.9-1-5.36,8-5.65,11.47-2,8.48-1.51,8.1-19,25.07-9.63,19.8-.32,1.2-1.07,4.08-.38,4.5.91.57,2.85-.82,3.88-3.7.12,5.15,2.72,3.38,8.23-7a36.23,36.23,0,0,1-6.64,12.34c-3.5,4.63,1.92,4.42,2.88,1.35-3.86,12.33-23.35,18.54-12.91,17.37,0,0-1.49,1.54-5.62,5.58S778,156.4,778,156.4c-2.7,11.55-28,15.67-12.13,16.43-3.45,3.45,7.94,3.43,11.39,0,0,0-9.57,10-15.57,15.82-4.15,3.33-.94,6.48,5,2.94-.85,2,5.61,3.26,7.71,1.43-6.91,7-9.14,6.35-16.37,8-5.27,1.21-.68,6.76,7.13,5.07-3.94,7.34,4.6,8.87,9.24,3.52a2,2,0,0,0,0,1.37c.91,1.92,12.31,3.91,19.48-6,0-.2-.38,17.69-.88,22.41-.13,1.18,7.66,1.09,7.56-.09-.17-1.95-1.49-24.66-1.49-24.66,3.34,10.27,16.75,11.25,16,6.64,3.62,5.7,10.68,6.66,7.73-.93,5.15,6.17,13.08,4.72,9.07,1.45-10.31-8.43-16.13-13-16.73-16,1.67,2,3.87.93,3.25-1.14,4.76,4,7.55,1.21,4.26-2.44-5.11-5.78-8.18-9.54-8.67-12.55,3.84,4.63,7.88,3.77,6.65.31,2,2.33,4.18.48,3.48-1.86C827.94,180,831.44,178.07,829.62,175.6Z"/><path class="cls-1" d="M802.79,155.43c-6-6.75-18.69-12.37-19.51-19.72,5,.64,8.08-1.22,5.26-4.29,6.75,1.39,5.19-3-6.41-14.24,15.63,2-1.94-6.6-6.21-22.34,7.69,4.78,10.56,5.26,7.18.2,15.11,7.7-7.4-11.56-8.35-23.93,4.61,3.74,6,4,4.28.59,2.31.72,3.14.28,1.16-2.37-5.12-7.41-8.57-16.42-10.09-27.29.18,1.27-2.05,21.15-13.5,32.82-2.67,2.72,1,2.7,2.33.22-1.7,5.55,9.79-6.78,5.9-1-5.36,8-5.65,11.47-2,8.48-1.51,8.1-19,25.07-9.62,19.8-.33,1.2-1.08,4.08-.39,4.5.91.56,2.85-.82,3.88-3.71.12,5.16,2.72,3.38,8.23-7a36.1,36.1,0,0,1-6.64,12.35c-3.5,4.62,1.92,4.42,2.88,1.34-3.86,12.34-23.35,18.55-12.91,17.38,0,0-1.49,1.54-5.62,5.58s8.54,3.42,8.54,3.42c-2.71,11.55-28,15.66-12.14,16.43-3.45,3.45,7.94,3.43,11.39,0,0,0-9.57,10-15.57,15.83-4.15,3.33-.94,6.47,5,2.94-.84,2,5.61,3.26,7.71,1.42-6.9,7-9.14,6.36-16.37,8-5.27,1.2-.68,6.75,7.13,5.07-3.94,7.34,4.6,8.87,9.24,3.52a2,2,0,0,0,0,1.37c.91,1.92,12.31,3.91,19.49-6,0-.19-.38,17.69-.89,22.41-.13,1.19,7.66,1.1,7.56-.08-.17-2-1.49-24.66-1.49-24.66,3.34,10.27,16.76,11.25,16,6.64,3.62,5.69,10.68,6.66,7.73-.94,5.15,6.17,13.08,4.73,9.07,1.46-10.31-8.43-16.13-13-16.73-16,1.67,2,3.87.93,3.25-1.14,4.76,4,7.56,1.21,4.26-2.44-5.11-5.78-8.17-9.54-8.66-12.55,3.83,4.63,7.87,3.77,6.64.31,2,2.32,4.19.48,3.48-1.87C801.12,159.85,804.61,157.89,802.79,155.43Z"/><path class="cls-1" d="M616.37,130.39c-6-6.75-18.69-12.37-19.51-19.72,5,.64,8.08-1.22,5.26-4.29,6.75,1.39,5.19-3-6.41-14.24,15.63,2-1.94-6.6-6.21-22.34,7.69,4.78,10.55,5.26,7.18.2,15.11,7.7-7.4-11.57-8.35-23.93,4.61,3.74,6,4,4.28.59,2.31.72,3.14.28,1.16-2.37-5.12-7.41-8.57-16.42-10.09-27.29.18,1.27-2,21.15-13.5,32.81-2.67,2.73,1,2.71,2.33.23-1.7,5.55,9.79-6.78,5.9-1-5.36,8-5.65,11.47-2,8.48-1.51,8.1-19,25.06-9.63,19.8-.32,1.2-1.07,4.08-.38,4.5.91.56,2.85-.82,3.88-3.71.12,5.16,2.72,3.38,8.23-7a36.1,36.1,0,0,1-6.64,12.35c-3.5,4.62,1.92,4.42,2.88,1.34-3.86,12.34-23.35,18.55-12.91,17.38,0,0-1.49,1.54-5.62,5.58s8.54,3.42,8.54,3.42c-2.71,11.55-28,15.66-12.14,16.43-3.45,3.45,7.94,3.43,11.39,0,0,0-9.57,10-15.57,15.83-4.15,3.33-.94,6.47,5,2.94-.84,2,5.61,3.26,7.71,1.42-6.9,7-9.14,6.36-16.37,8-5.27,1.2-.68,6.75,7.13,5.07-3.94,7.34,4.6,8.87,9.24,3.52a2,2,0,0,0,0,1.37c.91,1.92,12.31,3.91,19.49-6,0-.19-.39,17.69-.89,22.41-.13,1.19,7.66,1.1,7.56-.08-.17-2-1.49-24.66-1.49-24.66,3.34,10.27,16.76,11.25,16,6.63,3.62,5.7,10.68,6.67,7.73-.93,5.15,6.17,13.08,4.73,9.07,1.46-10.31-8.43-16.13-13-16.73-16,1.67,2,3.87.93,3.25-1.14,4.76,4,7.56,1.21,4.26-2.44-5.11-5.78-8.18-9.54-8.66-12.56,3.83,4.64,7.87,3.78,6.64.32,2,2.32,4.19.48,3.48-1.87C614.7,134.81,618.19,132.85,616.37,130.39Z"/><path class="cls-4" d="M282.85,199.9S346.24,321.27,338,332.29H442.55s-99.35-163.21-131.22-159a14.6,14.6,0,0,1-2.56.13C305.46,173.26,295.43,175.19,282.85,199.9Z"/><path class="cls-4" d="M692,227.65s68.54,74,75.7,104.64H897.94l-3.81-101s-63.71-63.59-123.2-47.78C770.93,183.47,736,190.92,692,227.65Z"/><path class="cls-4" d="M0,332.29v-161s37.61-17.22,67.41,2.2c0,0,107.32,103.34,80.72,158.83Z"/><path class="cls-1" d="M93.59,176.89c-6-6.75-18.7-12.37-19.51-19.72,5,.64,8.08-1.22,5.26-4.29,6.74,1.39,5.19-2.95-6.41-14.23,15.63,2-1.94-6.61-6.21-22.35,7.69,4.78,10.55,5.26,7.18.2,15.11,7.7-7.41-11.56-8.35-23.93,4.6,3.74,6,4,4.27.6,2.32.71,3.15.27,1.17-2.38-5.12-7.41-8.57-16.42-10.1-27.29.19,1.27-2,21.16-13.49,32.82-2.67,2.72,1,2.7,2.33.22-1.7,5.55,9.79-6.77,5.9-1-5.36,8-5.65,11.47-2,8.49-1.51,8.09-19,25.06-9.63,19.8-.32,1.19-1.07,4.07-.38,4.5.91.56,2.85-.83,3.88-3.71.12,5.16,2.72,3.38,8.23-7A36.23,36.23,0,0,1,49.09,130c-3.5,4.63,1.92,4.42,2.88,1.35-3.86,12.33-23.35,18.54-12.91,17.37,0,0-1.49,1.54-5.62,5.58S42,157.69,42,157.69c-2.7,11.55-28,15.67-12.13,16.43-3.45,3.45,7.94,3.43,11.39,0,0,0-9.57,10-15.57,15.82-4.15,3.33-.94,6.48,5,2.94-.85,2,5.61,3.27,7.71,1.43-6.91,7-9.14,6.35-16.37,8-5.27,1.21-.68,6.76,7.13,5.07-3.94,7.34,4.6,8.87,9.24,3.52a2,2,0,0,0,0,1.37c.91,1.92,12.31,3.91,19.48-6,0-.2-.38,17.69-.88,22.41-.13,1.18,7.66,1.09,7.56-.09C64.34,226.66,63,204,63,204c3.34,10.27,16.75,11.25,16,6.64,3.62,5.7,10.68,6.66,7.73-.93,5.15,6.17,13.08,4.72,9.07,1.45-10.31-8.43-16.13-13-16.73-16,1.67,2,3.87.93,3.25-1.13,4.76,4,7.55,1.21,4.26-2.45C81.47,185.74,78.4,182,77.91,179c3.84,4.64,7.88,3.77,6.65.31,2,2.33,4.18.48,3.48-1.86C91.91,181.31,95.41,179.36,93.59,176.89Z"/></g></g></svg>