<svg xmlns="http://www.w3.org/2000/svg" xmlns:xlink="http://www.w3.org/1999/xlink" viewBox="0,0,256,256" width="24px" height="24px" fill-rule="nonzero"><g fill="#ffffff" fill-rule="nonzero" stroke="none" stroke-width="1" stroke-linecap="butt" stroke-linejoin="miter" stroke-miterlimit="10" stroke-dasharray="" stroke-dashoffset="0" font-family="none" font-weight="none" font-size="none" text-anchor="none" style="mix-blend-mode: normal"><g transform="scale(10.66667,10.66667)"><path d="M12,2c-0.828,0 -1.5,0.672 -1.5,1.5v0.69531c-2.58682,0.66678 -4.5,3.00949 -4.5,5.80469v6l-1.53516,1.15625h-0.00195c-0.28839,0.18363 -0.46297,0.50186 -0.46289,0.84375c0,0.55228 0.44772,1 1,1h7h7c0.55228,0 1,-0.44772 1,-1c0.00008,-0.34189 -0.17451,-0.66012 -0.46289,-0.84375l-1.53711,-1.15625v-6c0,-2.7952 -1.91318,-5.1379 -4.5,-5.80469v-0.69531c0,-0.828 -0.672,-1.5 -1.5,-1.5zM10,20c0,1.1 0.9,2 2,2c1.1,0 2,-0.9 2,-2z"></path></g></g></svg>