<svg xmlns="http://www.w3.org/2000/svg" xmlns:xlink="http://www.w3.org/1999/xlink" viewBox="0,0,256,256" width="24px" height="24px" fill-rule="nonzero"><g fill="#ffffff" fill-rule="nonzero" stroke="none" stroke-width="1" stroke-linecap="butt" stroke-linejoin="miter" stroke-miterlimit="10" stroke-dasharray="" stroke-dashoffset="0" font-family="none" font-weight="none" font-size="none" text-anchor="none" style="mix-blend-mode: normal"><g transform="scale(10.66667,10.66667)"><path d="M9,2c-3.85415,0 -7,3.14585 -7,7c0,3.85415 3.14585,7 7,7c1.748,0 3.34501,-0.65198 4.57422,-1.71875l0.42578,0.42578v1.29297l6,6l2,-2l-6,-6h-1.29297l-0.42578,-0.42578c1.06677,-1.22921 1.71875,-2.82622 1.71875,-4.57422c0,-3.85415 -3.14585,-7 -7,-7zM9,4c2.77327,0 5,2.22673 5,5c0,2.77327 -2.22673,5 -5,5c-2.77327,0 -5,-2.22673 -5,-5c0,-2.77327 2.22673,-5 5,-5z"></path></g></g></svg>