<svg xmlns="http://www.w3.org/2000/svg" viewBox="0 0 65.95 49.29"><defs><style>.cls-1{fill:none;stroke:#fff;stroke-miterlimit:10;stroke-width:2px;}.cls-2{fill:#fff;}</style></defs><g id="Capa_2" data-name="Capa 2"><g id="Capa_2-2" data-name="Capa 2"><path class="cls-1" d="M34,3.58c3.67.91,24.37,7.16,30.5,21.51a5.84,5.84,0,0,1-5.78,8c-3.7-.19-9.32-1.68-17.81-6l-.08,0c-.76-.34-14.19-6.37-10.65-14.9a4.07,4.07,0,0,1,4.93-2.4c3.44,1.06,7.82,5.68,4.84,23.39,0,0-2.48,12.1-6.27,15.16a.31.31,0,0,1-.41,0,33,33,0,0,1-7.33-24.3,1.81,1.81,0,0,1,3.11-1.1c.47.56.58,1.42-.19,2.76a1.64,1.64,0,0,1-.6.6c-2.41,1.45-15.95,9.21-24.1,6.16a5.13,5.13,0,0,1-3-6c1.34-4.79,6.71-13.41,27.17-21L33,3.63A1.79,1.79,0,0,1,34,3.58Z"/><path class="cls-2" d="M29.46,3.33a5.19,5.19,0,0,0-1.55-1.51A4,4,0,0,1,26.49.34c-.1-.24-.61-.12-.79-.07a1.45,1.45,0,0,0-.49.22c-.06,0-.21.14-.17.24a4.17,4.17,0,0,0,1.45,1.56A5.19,5.19,0,0,1,28,3.72c.22.39,1.59-.14,1.45-.39Z"/><path class="cls-2" d="M39.49,3.61c.08-.16.18-.31.27-.46,0,.07,0,0,0,0l.07-.1.14-.2a8.44,8.44,0,0,1,.68-.78l.17-.17.09-.09c-.13.12,0,0,0,0l.39-.32c.14-.11.27-.21.41-.3L42,1,42.07,1,42,1,42.08,1a.86.86,0,0,0,.37-.34.41.41,0,0,0,0-.4.84.84,0,0,0-1-.1A8.92,8.92,0,0,0,38.1,3.45c-.17.3.16.57.44.6a1,1,0,0,0,1-.44Z"/></g></g></svg>